0
SECTION
2
HEADER
9
$INSUNITS
70
4
0
ENDSEC
0
SECTION
2
TABLES
0
TABLE
2
LTYPE
0
LTYPE
72
65
70
64
2
CONTINUOUS
3
______
73
0
40
0
0
ENDTAB
0
TABLE
2
LAYER
0
ENDTAB
0
ENDSEC
0
SECTION
2
ENTITIES
0
LINE
8
0
10
0
20
7.345
11
0
21
7.845
0
LINE
8
0
10
0
20
26.345
11
0
21
26.845
0
LINE
8
0
10
9.25
20
37.0224342
11
9.75
21
37.0725658
0
LINE
8
0
10
28.25
20
38.9274342
11
28.75
21
38.9775658
0
LINE
8
0
10
47.25
20
38.9775658
11
47.75
21
38.9274342
0
LINE
8
0
10
66.25
20
37.0725658
11
66.75
21
37.0224342
0
LINE
8
0
10
9.75
20
2.97
11
9.25
21
2.72
0
LINE
8
0
10
23.31
20
9.75
11
22.31
21
9.25
0
LINE
8
0
10
28.75
20
12.47
11
28.25
21
12.22
0
LINE
8
0
10
47.75
20
21.97
11
47.25
21
21.72
0
LINE
8
0
10
61.31
20
28.75
11
60.31
21
28.25
0
LINE
8
0
10
66.75
20
31.47
11
66.25
21
31.22
0
LINE
8
0
10
9.25
20
2.72
11
9.25
21
7.345
0
LINE
8
0
10
9.25
20
7.345
11
0
21
7.345
0
LINE
8
0
10
0
20
7.845
11
9.25
21
7.845
0
LINE
8
0
10
9.25
20
7.845
11
9.25
21
26.345
0
LINE
8
0
10
9.25
20
26.345
11
0
21
26.345
0
LINE
8
0
10
0
20
26.845
11
9.25
21
26.845
0
LINE
8
0
10
9.25
20
26.845
11
9.25
21
37.0224342
0
LINE
8
0
10
22.31
20
9.25
11
9.75
21
9.25
0
LINE
8
0
10
9.75
20
9.25
11
9.75
21
2.97
0
LINE
8
0
10
9.75
20
9.75
11
23.31
21
9.75
0
LINE
8
0
10
28.25
20
12.22
11
28.25
21
28.25
0
LINE
8
0
10
28.25
20
28.25
11
9.75
21
28.25
0
LINE
8
0
10
9.75
20
28.25
11
9.75
21
9.75
0
LINE
8
0
10
9.75
20
28.75
11
28.25
21
28.75
0
LINE
8
0
10
28.25
20
28.75
11
28.25
21
38.9274342
0
LINE
8
0
10
9.75
20
37.0725658
11
9.75
21
28.75
0
LINE
8
0
10
47.25
20
21.72
11
47.25
21
30.155
0
LINE
8
0
10
47.25
20
30.155
11
28.75
21
30.155
0
LINE
8
0
10
28.75
20
30.155
11
28.75
21
12.47
0
LINE
8
0
10
28.75
20
30.655
11
47.25
21
30.655
0
LINE
8
0
10
47.25
20
30.655
11
47.25
21
38.9775658
0
LINE
8
0
10
28.75
20
38.9775658
11
28.75
21
30.655
0
LINE
8
0
10
60.31
20
28.25
11
47.75
21
28.25
0
LINE
8
0
10
47.75
20
28.25
11
47.75
21
21.97
0
LINE
8
0
10
47.75
20
28.75
11
61.31
21
28.75
0
LINE
8
0
10
66.25
20
31.22
11
66.25
21
37.0725658
0
LINE
8
0
10
47.75
20
38.9274342
11
47.75
21
28.75
0
LINE
8
0
10
66.75
20
37.0224342
11
66.75
21
31.47
0
ENDSEC
0
EOF