<?xml version="1.0" standalone="no"?>
 <!DOCTYPE svg PUBLIC "-//W3C//DTD SVG 1.1//EN" 
 "http://www.w3.org/Graphics/SVG/1.1/DTD/svg11.dtd"> 
<svg
  xmlns:svg="http://www.w3.org/2000/svg"
  xmlns="http://www.w3.org/2000/svg"
  xmlns:xlink="http://www.w3.org/1999/xlink"
  version="1.1"
  width="128.0414mm" height="83.0326mm" viewBox="0.0000 0.0000 128.0414 83.0326">
<title>SVG Image created as Glide38_ready_for_manufuncturer-B_Paste.svg date 2024/04/29 22:32:38 </title>
  <desc>Image generated by PCBNEW </desc>
<g style="fill:#000000; fill-opacity:1.0000;stroke:#000000; stroke-opacity:1.0000;
stroke-linecap:round; stroke-linejoin:round;"
 transform="translate(0 0) scale(1 1)">
<path style="fill:#000000; fill-opacity:1.0000; stroke:none;fill-rule:evenodd;"
d="M 120.8500,34.1337
119.7500,34.1337
119.7500,32.3337
120.8500,32.3337
Z" /> 
<path style="fill:#000000; fill-opacity:1.0000; stroke:none;fill-rule:evenodd;"
d="M 120.8500,27.9337
119.7500,27.9337
119.7500,26.1337
120.8500,26.1337
Z" /> 
<path style="fill:#000000; fill-opacity:1.0000; stroke:none;fill-rule:evenodd;"
d="M 124.5500,34.1337
123.4500,34.1337
123.4500,32.3337
124.5500,32.3337
Z" /> 
<path style="fill:#000000; fill-opacity:1.0000; stroke:none;fill-rule:evenodd;"
d="M 124.5500,27.9337
123.4500,27.9337
123.4500,26.1337
124.5500,26.1337
Z" /> 
<path style="fill:#000000; fill-opacity:1.0000; stroke:none;fill-rule:evenodd;"
d="M 8.2838,39.4937
8.2838,38.2937
9.1838,38.2937
9.1838,39.4937
Z" /> 
<path style="fill:#000000; fill-opacity:1.0000; stroke:none;fill-rule:evenodd;"
d="M 11.5838,39.4937
11.5838,38.2937
12.4838,38.2937
12.4838,39.4937
Z" /> 
<path style="fill:#000000; fill-opacity:1.0000; stroke:none;fill-rule:evenodd;"
d="M 84.2838,58.4937
84.2838,57.2937
85.1838,57.2937
85.1838,58.4937
Z" /> 
<path style="fill:#000000; fill-opacity:1.0000; stroke:none;fill-rule:evenodd;"
d="M 87.5838,58.4937
87.5838,57.2937
88.4838,57.2937
88.4838,58.4937
Z" /> 
<path style="fill:#000000; fill-opacity:1.0000; stroke:none;fill-rule:evenodd;"
d="M 84.1838,77.5437
84.1838,76.3437
85.0838,76.3437
85.0838,77.5437
Z" /> 
<path style="fill:#000000; fill-opacity:1.0000; stroke:none;fill-rule:evenodd;"
d="M 87.4838,77.5437
87.4838,76.3437
88.3838,76.3437
88.3838,77.5437
Z" /> 
<path style="fill:#000000; fill-opacity:1.0000; stroke:none;fill-rule:evenodd;"
d="M 46.2838,16.6837
46.2838,15.4837
47.1838,15.4837
47.1838,16.6837
Z" /> 
<path style="fill:#000000; fill-opacity:1.0000; stroke:none;fill-rule:evenodd;"
d="M 49.5838,16.6837
49.5838,15.4837
50.4838,15.4837
50.4838,16.6837
Z" /> 
<path style="fill:#000000; fill-opacity:1.0000; stroke:none;fill-rule:evenodd;"
d="M 84.2838,39.4937
84.2838,38.2937
85.1838,38.2937
85.1838,39.4937
Z" /> 
<path style="fill:#000000; fill-opacity:1.0000; stroke:none;fill-rule:evenodd;"
d="M 87.5838,39.4937
87.5838,38.2937
88.4838,38.2937
88.4838,39.4937
Z" /> 
<path style="fill:#000000; fill-opacity:1.0000; stroke:none;fill-rule:evenodd;"
d="M 65.2838,18.5887
65.2838,17.3887
66.1838,17.3887
66.1838,18.5887
Z" /> 
<path style="fill:#000000; fill-opacity:1.0000; stroke:none;fill-rule:evenodd;"
d="M 68.5838,18.5887
68.5838,17.3887
69.4838,17.3887
69.4838,18.5887
Z" /> 
<path style="fill:#000000; fill-opacity:1.0000; stroke:none;fill-rule:evenodd;"
d="M 46.2838,54.6837
46.2838,53.4837
47.1838,53.4837
47.1838,54.6837
Z" /> 
<path style="fill:#000000; fill-opacity:1.0000; stroke:none;fill-rule:evenodd;"
d="M 49.5838,54.6837
49.5838,53.4837
50.4838,53.4837
50.4838,54.6837
Z" /> 
<path style="fill:#000000; fill-opacity:1.0000; stroke:none;fill-rule:evenodd;"
d="M 8.2838,20.4937
8.2838,19.2937
9.1838,19.2937
9.1838,20.4937
Z" /> 
<path style="fill:#000000; fill-opacity:1.0000; stroke:none;fill-rule:evenodd;"
d="M 11.5838,20.4937
11.5838,19.2937
12.4838,19.2937
12.4838,20.4937
Z" /> 
<path style="fill:#000000; fill-opacity:1.0000; stroke:none;fill-rule:evenodd;"
d="M 115.6220,69.8041
114.6156,69.1505
115.1057,68.3957
116.1121,69.0493
Z" /> 
<path style="fill:#000000; fill-opacity:1.0000; stroke:none;fill-rule:evenodd;"
d="M 117.4193,67.0365
116.4129,66.3829
116.9030,65.6281
117.9094,66.2817
Z" /> 
<path style="fill:#000000; fill-opacity:1.0000; stroke:none;fill-rule:evenodd;"
d="M 65.2838,56.5887
65.2838,55.3887
66.1838,55.3887
66.1838,56.5887
Z" /> 
<path style="fill:#000000; fill-opacity:1.0000; stroke:none;fill-rule:evenodd;"
d="M 68.5838,56.5887
68.5838,55.3887
69.4838,55.3887
69.4838,56.5887
Z" /> 
<path style="fill:#000000; fill-opacity:1.0000; stroke:none;fill-rule:evenodd;"
d="M 8.2838,58.4937
8.2838,57.2937
9.1838,57.2937
9.1838,58.4937
Z" /> 
<path style="fill:#000000; fill-opacity:1.0000; stroke:none;fill-rule:evenodd;"
d="M 11.5838,58.4937
11.5838,57.2937
12.4838,57.2937
12.4838,58.4937
Z" /> 
<path style="fill:#000000; fill-opacity:1.0000; stroke:none;fill-rule:evenodd;"
d="M 65.1838,75.6387
65.1838,74.4387
66.0838,74.4387
66.0838,75.6387
Z" /> 
<path style="fill:#000000; fill-opacity:1.0000; stroke:none;fill-rule:evenodd;"
d="M 68.4838,75.6387
68.4838,74.4387
69.3838,74.4387
69.3838,75.6387
Z" /> 
<path style="fill:#000000; fill-opacity:1.0000; stroke:none;fill-rule:evenodd;"
d="M 46.2838,35.6837
46.2838,34.4837
47.1838,34.4837
47.1838,35.6837
Z" /> 
<path style="fill:#000000; fill-opacity:1.0000; stroke:none;fill-rule:evenodd;"
d="M 49.5838,35.6837
49.5838,34.4837
50.4838,34.4837
50.4838,35.6837
Z" /> 
<path style="fill:#000000; fill-opacity:1.0000; stroke:none;fill-rule:evenodd;"
d="M 46.1838,75.6387
46.1838,74.4387
47.0838,74.4387
47.0838,75.6387
Z" /> 
<path style="fill:#000000; fill-opacity:1.0000; stroke:none;fill-rule:evenodd;"
d="M 49.4838,75.6387
49.4838,74.4387
50.3838,74.4387
50.3838,75.6387
Z" /> 
<path style="fill:#000000; fill-opacity:1.0000; stroke:none;fill-rule:evenodd;"
d="M 84.2838,20.4937
84.2838,19.2937
85.1838,19.2937
85.1838,20.4937
Z" /> 
<path style="fill:#000000; fill-opacity:1.0000; stroke:none;fill-rule:evenodd;"
d="M 87.5838,20.4937
87.5838,19.2937
88.4838,19.2937
88.4838,20.4937
Z" /> 
<path style="fill:#000000; fill-opacity:1.0000; stroke:none;fill-rule:evenodd;"
d="M 27.2838,18.5887
27.2838,17.3887
28.1838,17.3887
28.1838,18.5887
Z" /> 
<path style="fill:#000000; fill-opacity:1.0000; stroke:none;fill-rule:evenodd;"
d="M 30.5838,18.5887
30.5838,17.3887
31.4838,17.3887
31.4838,18.5887
Z" /> 
<path style="fill:#000000; fill-opacity:1.0000; stroke:none;fill-rule:evenodd;"
d="M 27.2838,37.5887
27.2838,36.3887
28.1838,36.3887
28.1838,37.5887
Z" /> 
<path style="fill:#000000; fill-opacity:1.0000; stroke:none;fill-rule:evenodd;"
d="M 30.5838,37.5887
30.5838,36.3887
31.4838,36.3887
31.4838,37.5887
Z" /> 
<path style="fill:#000000; fill-opacity:1.0000; stroke:none;fill-rule:evenodd;"
d="M 27.2838,56.5887
27.2838,55.3887
28.1838,55.3887
28.1838,56.5887
Z" /> 
<path style="fill:#000000; fill-opacity:1.0000; stroke:none;fill-rule:evenodd;"
d="M 30.5838,56.5887
30.5838,55.3887
31.4838,55.3887
31.4838,56.5887
Z" /> 
<path style="fill:#000000; fill-opacity:1.0000; stroke:none;fill-rule:evenodd;"
d="M 65.2838,37.5887
65.2838,36.3887
66.1838,36.3887
66.1838,37.5887
Z" /> 
<path style="fill:#000000; fill-opacity:1.0000; stroke:none;fill-rule:evenodd;"
d="M 68.5838,37.5887
68.5838,36.3887
69.4838,36.3887
69.4838,37.5887
Z" /> 
</g>
<g style="fill:none; 
stroke:#000000; stroke-width:0.0500; stroke-opacity:1; 
stroke-linecap:round; stroke-linejoin:round;">
<path d="M78.0250 2.0250
L78.0250 4.0250
" />
<path d="M19.0250 4.0250
L19.0250 2.0250
" />
<path d="M59.0250 0.0250
L59.0250 2.0250
" />
<path d="M128.0250 4.0250
L128.0250 63.0250
" />
<path d="M114.0250 83.0250
L76.0250 83.0250
" />
<path d="M19.0250 2.0250
L38.0250 2.0250
" />
<path d="M76.0250 83.0250
L76.0250 81.0250
" />
<path d="M38.0250 81.0250
L0.0250 63.0250
" />
<path d="M0.0250 63.0250
L0.0250 4.0250
" />
<path d="M78.0250 4.0250
L128.0250 4.0250
" />
<path d="M38.0250 2.0250
L38.0250 0.0250
" />
<path d="M38.0250 0.0250
L59.0250 0.0250
" />
<path d="M128.0250 63.0250
L115.0250 83.0250
" />
<path d="M114.0250 83.0250
L115.0250 83.0250
" />
<path d="M0.0250 4.0250
L19.0250 4.0250
" />
<path d="M59.0250 2.0250
L78.0250 2.0250
" />
<path d="M76.0250 81.0250
L38.0250 81.0250
" />
</g> 
</svg>
