<?xml version="1.0" standalone="no"?>
 <!DOCTYPE svg PUBLIC "-//W3C//DTD SVG 1.1//EN" 
 "http://www.w3.org/Graphics/SVG/1.1/DTD/svg11.dtd"> 
<svg
  xmlns:svg="http://www.w3.org/2000/svg"
  xmlns="http://www.w3.org/2000/svg"
  xmlns:xlink="http://www.w3.org/1999/xlink"
  version="1.1"
  width="128.0414mm" height="83.0326mm" viewBox="0.0000 0.0000 128.0414 83.0326">
<title>SVG Image created as Glide38_ready_for_manufuncturer-User_Drawings.svg date 2024/04/29 22:32:38 </title>
  <desc>Image generated by PCBNEW </desc>
<g style="fill:#000000; fill-opacity:1.0000;stroke:#000000; stroke-opacity:1.0000;
stroke-linecap:round; stroke-linejoin:round;"
 transform="translate(0 0) scale(1 1)">
</g>
<g style="fill:none; 
stroke:#000000; stroke-width:0.1500; stroke-opacity:1; 
stroke-linecap:round; stroke-linejoin:round;">
<text x="123.6813" y="21.9737"
textLength="4.9167" font-size="1.3333" lengthAdjust="spacingAndGlyphs"
text-anchor="middle" opacity="0">TRRS1</text>
<g class="stroked-text"><desc>TRRS1</desc>
<path d="M121.4432 20.9285
L122.0146 20.9285
" />
<path d="M121.7289 21.9285
L121.7289 20.9285
" />
<path d="M122.9194 21.9285
L122.5861 21.4523
" />
<path d="M122.3480 21.9285
L122.3480 20.9285
" />
<path d="M122.3480 20.9285
L122.7289 20.9285
" />
<path d="M122.7289 20.9285
L122.8242 20.9761
" />
<path d="M122.8242 20.9761
L122.8718 21.0238
" />
<path d="M122.8718 21.0238
L122.9194 21.1190
" />
<path d="M122.9194 21.1190
L122.9194 21.2619
" />
<path d="M122.9194 21.2619
L122.8718 21.3571
" />
<path d="M122.8718 21.3571
L122.8242 21.4047
" />
<path d="M122.8242 21.4047
L122.7289 21.4523
" />
<path d="M122.7289 21.4523
L122.3480 21.4523
" />
<path d="M123.9194 21.9285
L123.5861 21.4523
" />
<path d="M123.3480 21.9285
L123.3480 20.9285
" />
<path d="M123.3480 20.9285
L123.7289 20.9285
" />
<path d="M123.7289 20.9285
L123.8242 20.9761
" />
<path d="M123.8242 20.9761
L123.8718 21.0238
" />
<path d="M123.8718 21.0238
L123.9194 21.1190
" />
<path d="M123.9194 21.1190
L123.9194 21.2619
" />
<path d="M123.9194 21.2619
L123.8718 21.3571
" />
<path d="M123.8718 21.3571
L123.8242 21.4047
" />
<path d="M123.8242 21.4047
L123.7289 21.4523
" />
<path d="M123.7289 21.4523
L123.3480 21.4523
" />
<path d="M124.3003 21.8809
L124.4432 21.9285
" />
<path d="M124.4432 21.9285
L124.6813 21.9285
" />
<path d="M124.6813 21.9285
L124.7765 21.8809
" />
<path d="M124.7765 21.8809
L124.8242 21.8333
" />
<path d="M124.8242 21.8333
L124.8718 21.7380
" />
<path d="M124.8718 21.7380
L124.8718 21.6428
" />
<path d="M124.8718 21.6428
L124.8242 21.5476
" />
<path d="M124.8242 21.5476
L124.7765 21.4999
" />
<path d="M124.7765 21.4999
L124.6813 21.4523
" />
<path d="M124.6813 21.4523
L124.4908 21.4047
" />
<path d="M124.4908 21.4047
L124.3956 21.3571
" />
<path d="M124.3956 21.3571
L124.3480 21.3095
" />
<path d="M124.3480 21.3095
L124.3003 21.2142
" />
<path d="M124.3003 21.2142
L124.3003 21.1190
" />
<path d="M124.3003 21.1190
L124.3480 21.0238
" />
<path d="M124.3480 21.0238
L124.3956 20.9761
" />
<path d="M124.3956 20.9761
L124.4908 20.9285
" />
<path d="M124.4908 20.9285
L124.7289 20.9285
" />
<path d="M124.7289 20.9285
L124.8718 20.9761
" />
<path d="M125.8242 21.9285
L125.2527 21.9285
" />
<path d="M125.5384 21.9285
L125.5384 20.9285
" />
<path d="M125.5384 20.9285
L125.4432 21.0714
" />
<path d="M125.4432 21.0714
L125.3480 21.1666
" />
<path d="M125.3480 21.1666
L125.2527 21.2142
" />
</g><path d="M76.8838 43.3937
L95.8838 43.3937
" />
<path d="M76.8838 62.3937
L76.8838 43.3937
" />
<path d="M79.3838 46.8937
L79.3838 45.8937
" />
<path d="M79.3838 59.8937
L79.3838 58.8937
" />
<path d="M79.3838 59.8937
L80.3838 59.8937
" />
<path d="M80.3838 45.8937
L79.3838 45.8937
" />
<path d="M92.3838 59.8937
L93.3838 59.8937
" />
<path d="M93.3838 45.8937
L92.3838 45.8937
" />
<path d="M93.3838 45.8937
L93.3838 46.8937
" />
<path d="M93.3838 58.8937
L93.3838 59.8937
" />
<path d="M95.8838 43.3937
L95.8838 62.3937
" />
<path d="M95.8838 62.3937
L76.8838 62.3937
" />
<path d="M19.8838 41.4887
L38.8838 41.4887
" />
<path d="M19.8838 60.4887
L19.8838 41.4887
" />
<path d="M22.3838 44.9887
L22.3838 43.9887
" />
<path d="M22.3838 57.9887
L22.3838 56.9887
" />
<path d="M22.3838 57.9887
L23.3838 57.9887
" />
<path d="M23.3838 43.9887
L22.3838 43.9887
" />
<path d="M35.3838 57.9887
L36.3838 57.9887
" />
<path d="M36.3838 43.9887
L35.3838 43.9887
" />
<path d="M36.3838 43.9887
L36.3838 44.9887
" />
<path d="M36.3838 56.9887
L36.3838 57.9887
" />
<path d="M38.8838 41.4887
L38.8838 60.4887
" />
<path d="M38.8838 60.4887
L19.8838 60.4887
" />
<path d="M76.7838 62.4437
L95.7838 62.4437
" />
<path d="M76.7838 81.4437
L76.7838 62.4437
" />
<path d="M79.2838 65.9437
L79.2838 64.9437
" />
<path d="M79.2838 78.9437
L79.2838 77.9437
" />
<path d="M79.2838 78.9437
L80.2838 78.9437
" />
<path d="M80.2838 64.9437
L79.2838 64.9437
" />
<path d="M92.2838 78.9437
L93.2838 78.9437
" />
<path d="M93.2838 64.9437
L92.2838 64.9437
" />
<path d="M93.2838 64.9437
L93.2838 65.9437
" />
<path d="M93.2838 77.9437
L93.2838 78.9437
" />
<path d="M95.7838 62.4437
L95.7838 81.4437
" />
<path d="M95.7838 81.4437
L76.7838 81.4437
" />
<path d="M57.8838 3.4887
L76.8838 3.4887
" />
<path d="M57.8838 22.4887
L57.8838 3.4887
" />
<path d="M60.3838 6.9887
L60.3838 5.9887
" />
<path d="M60.3838 19.9887
L60.3838 18.9887
" />
<path d="M60.3838 19.9887
L61.3838 19.9887
" />
<path d="M61.3838 5.9887
L60.3838 5.9887
" />
<path d="M73.3838 19.9887
L74.3838 19.9887
" />
<path d="M74.3838 5.9887
L73.3838 5.9887
" />
<path d="M74.3838 5.9887
L74.3838 6.9887
" />
<path d="M74.3838 18.9887
L74.3838 19.9887
" />
<path d="M76.8838 3.4887
L76.8838 22.4887
" />
<path d="M76.8838 22.4887
L57.8838 22.4887
" />
<path d="M38.7838 60.5387
L57.7838 60.5387
" />
<path d="M38.7838 79.5387
L38.7838 60.5387
" />
<path d="M41.2838 64.0387
L41.2838 63.0387
" />
<path d="M41.2838 77.0387
L41.2838 76.0387
" />
<path d="M41.2838 77.0387
L42.2838 77.0387
" />
<path d="M42.2838 63.0387
L41.2838 63.0387
" />
<path d="M54.2838 77.0387
L55.2838 77.0387
" />
<path d="M55.2838 63.0387
L54.2838 63.0387
" />
<path d="M55.2838 63.0387
L55.2838 64.0387
" />
<path d="M55.2838 76.0387
L55.2838 77.0387
" />
<path d="M57.7838 60.5387
L57.7838 79.5387
" />
<path d="M57.7838 79.5387
L38.7838 79.5387
" />
<path d="M57.8838 22.4887
L76.8838 22.4887
" />
<path d="M57.8838 41.4887
L57.8838 22.4887
" />
<path d="M60.3838 25.9887
L60.3838 24.9887
" />
<path d="M60.3838 38.9887
L60.3838 37.9887
" />
<path d="M60.3838 38.9887
L61.3838 38.9887
" />
<path d="M61.3838 24.9887
L60.3838 24.9887
" />
<path d="M73.3838 38.9887
L74.3838 38.9887
" />
<path d="M74.3838 24.9887
L73.3838 24.9887
" />
<path d="M74.3838 24.9887
L74.3838 25.9887
" />
<path d="M74.3838 37.9887
L74.3838 38.9887
" />
<path d="M76.8838 22.4887
L76.8838 41.4887
" />
<path d="M76.8838 41.4887
L57.8838 41.4887
" />
<path d="M38.8838 1.5837
L57.8838 1.5837
" />
<path d="M38.8838 20.5837
L38.8838 1.5837
" />
<path d="M41.3838 5.0837
L41.3838 4.0837
" />
<path d="M41.3838 18.0837
L41.3838 17.0837
" />
<path d="M41.3838 18.0837
L42.3838 18.0837
" />
<path d="M42.3838 4.0837
L41.3838 4.0837
" />
<path d="M54.3838 18.0837
L55.3838 18.0837
" />
<path d="M55.3838 4.0837
L54.3838 4.0837
" />
<path d="M55.3838 4.0837
L55.3838 5.0837
" />
<path d="M55.3838 17.0837
L55.3838 18.0837
" />
<path d="M57.8838 1.5837
L57.8838 20.5837
" />
<path d="M57.8838 20.5837
L38.8838 20.5837
" />
<path d="M103.5288 5.1147
L111.1488 5.1147
" />
<path d="M103.5288 10.1947
L103.5288 5.1147
" />
<path d="M111.1488 5.1147
L111.1488 10.1947
" />
<path d="M111.1488 10.1947
L103.5288 10.1947
" />
<path d="M0.8838 43.3937
L19.8838 43.3937
" />
<path d="M0.8838 62.3937
L0.8838 43.3937
" />
<path d="M3.3838 46.8937
L3.3838 45.8937
" />
<path d="M3.3838 59.8937
L3.3838 58.8937
" />
<path d="M3.3838 59.8937
L4.3838 59.8937
" />
<path d="M4.3838 45.8937
L3.3838 45.8937
" />
<path d="M16.3838 59.8937
L17.3838 59.8937
" />
<path d="M17.3838 45.8937
L16.3838 45.8937
" />
<path d="M17.3838 45.8937
L17.3838 46.8937
" />
<path d="M17.3838 58.8937
L17.3838 59.8937
" />
<path d="M19.8838 43.3937
L19.8838 62.3937
" />
<path d="M19.8838 62.3937
L0.8838 62.3937
" />
<path d="M57.8838 41.4887
L76.8838 41.4887
" />
<path d="M57.8838 60.4887
L57.8838 41.4887
" />
<path d="M60.3838 44.9887
L60.3838 43.9887
" />
<path d="M60.3838 57.9887
L60.3838 56.9887
" />
<path d="M60.3838 57.9887
L61.3838 57.9887
" />
<path d="M61.3838 43.9887
L60.3838 43.9887
" />
<path d="M73.3838 57.9887
L74.3838 57.9887
" />
<path d="M74.3838 43.9887
L73.3838 43.9887
" />
<path d="M74.3838 43.9887
L74.3838 44.9887
" />
<path d="M74.3838 56.9887
L74.3838 57.9887
" />
<path d="M76.8838 41.4887
L76.8838 60.4887
" />
<path d="M76.8838 60.4887
L57.8838 60.4887
" />
<path d="M57.7838 60.5387
L76.7838 60.5387
" />
<path d="M57.7838 79.5387
L57.7838 60.5387
" />
<path d="M60.2838 64.0387
L60.2838 63.0387
" />
<path d="M60.2838 77.0387
L60.2838 76.0387
" />
<path d="M60.2838 77.0387
L61.2838 77.0387
" />
<path d="M61.2838 63.0387
L60.2838 63.0387
" />
<path d="M73.2838 77.0387
L74.2838 77.0387
" />
<path d="M74.2838 63.0387
L73.2838 63.0387
" />
<path d="M74.2838 63.0387
L74.2838 64.0387
" />
<path d="M74.2838 76.0387
L74.2838 77.0387
" />
<path d="M76.7838 60.5387
L76.7838 79.5387
" />
<path d="M76.7838 79.5387
L57.7838 79.5387
" />
<path d="M118.3313 7.2737
L118.3313 19.3737
" />
<path d="M118.5813 7.2737
L118.5813 5.2737
" />
<path d="M124.1813 5.2737
L118.5813 5.2737
" />
<path d="M124.1813 7.2737
L124.1813 5.2737
" />
<path d="M124.4313 7.2737
L118.3313 7.2737
" />
<path d="M124.4313 7.2737
L124.4313 19.3737
" />
<path d="M124.4313 19.3737
L118.3313 19.3737
" />
<path d="M19.8838 3.4887
L38.8838 3.4887
" />
<path d="M19.8838 22.4887
L19.8838 3.4887
" />
<path d="M22.3838 6.9887
L22.3838 5.9887
" />
<path d="M22.3838 19.9887
L22.3838 18.9887
" />
<path d="M22.3838 19.9887
L23.3838 19.9887
" />
<path d="M23.3838 5.9887
L22.3838 5.9887
" />
<path d="M35.3838 19.9887
L36.3838 19.9887
" />
<path d="M36.3838 5.9887
L35.3838 5.9887
" />
<path d="M36.3838 5.9887
L36.3838 6.9887
" />
<path d="M36.3838 18.9887
L36.3838 19.9887
" />
<path d="M38.8838 3.4887
L38.8838 22.4887
" />
<path d="M38.8838 22.4887
L19.8838 22.4887
" />
<path d="M0.8838 24.3937
L19.8838 24.3937
" />
<path d="M0.8838 43.3937
L0.8838 24.3937
" />
<path d="M3.3838 27.8937
L3.3838 26.8937
" />
<path d="M3.3838 40.8937
L3.3838 39.8937
" />
<path d="M3.3838 40.8937
L4.3838 40.8937
" />
<path d="M4.3838 26.8937
L3.3838 26.8937
" />
<path d="M16.3838 40.8937
L17.3838 40.8937
" />
<path d="M17.3838 26.8937
L16.3838 26.8937
" />
<path d="M17.3838 26.8937
L17.3838 27.8937
" />
<path d="M17.3838 39.8937
L17.3838 40.8937
" />
<path d="M19.8838 24.3937
L19.8838 43.3937
" />
<path d="M19.8838 43.3937
L0.8838 43.3937
" />
<path d="M0.8838 5.3937
L19.8838 5.3937
" />
<path d="M0.8838 24.3937
L0.8838 5.3937
" />
<path d="M3.3838 8.8937
L3.3838 7.8937
" />
<path d="M3.3838 21.8937
L3.3838 20.8937
" />
<path d="M3.3838 21.8937
L4.3838 21.8937
" />
<path d="M4.3838 7.8937
L3.3838 7.8937
" />
<path d="M16.3838 21.8937
L17.3838 21.8937
" />
<path d="M17.3838 7.8937
L16.3838 7.8937
" />
<path d="M17.3838 7.8937
L17.3838 8.8937
" />
<path d="M17.3838 20.8937
L17.3838 21.8937
" />
<path d="M19.8838 5.3937
L19.8838 24.3937
" />
<path d="M19.8838 24.3937
L0.8838 24.3937
" />
<path d="M98.9277 67.7862
L109.2758 51.8515
" />
<path d="M102.9306 66.2125
L102.3859 67.0511
" />
<path d="M103.2246 67.5958
L102.3859 67.0511
" />
<path d="M109.2758 51.8515
L125.2105 62.1996
" />
<path d="M110.0109 55.3097
L109.4662 56.1484
" />
<path d="M110.0109 55.3097
L110.8495 55.8544
" />
<path d="M114.1273 74.6761
L113.2886 74.1314
" />
<path d="M114.1273 74.6761
L114.6720 73.8374
" />
<path d="M114.8624 78.1343
L98.9277 67.7862
" />
<path d="M120.9136 62.3900
L121.7523 62.9347
" />
<path d="M121.2076 63.7734
L121.7523 62.9347
" />
<path d="M125.2105 62.1996
L114.8624 78.1343
" />
<path d="M76.8838 5.3937
L95.8838 5.3937
" />
<path d="M76.8838 24.3937
L76.8838 5.3937
" />
<path d="M79.3838 8.8937
L79.3838 7.8937
" />
<path d="M79.3838 21.8937
L79.3838 20.8937
" />
<path d="M79.3838 21.8937
L80.3838 21.8937
" />
<path d="M80.3838 7.8937
L79.3838 7.8937
" />
<path d="M92.3838 21.8937
L93.3838 21.8937
" />
<path d="M93.3838 7.8937
L92.3838 7.8937
" />
<path d="M93.3838 7.8937
L93.3838 8.8937
" />
<path d="M93.3838 20.8937
L93.3838 21.8937
" />
<path d="M95.8838 5.3937
L95.8838 24.3937
" />
<path d="M95.8838 24.3937
L76.8838 24.3937
" />
<path d="M19.8838 22.4887
L38.8838 22.4887
" />
<path d="M19.8838 41.4887
L19.8838 22.4887
" />
<path d="M22.3838 25.9887
L22.3838 24.9887
" />
<path d="M22.3838 38.9887
L22.3838 37.9887
" />
<path d="M22.3838 38.9887
L23.3838 38.9887
" />
<path d="M23.3838 24.9887
L22.3838 24.9887
" />
<path d="M35.3838 38.9887
L36.3838 38.9887
" />
<path d="M36.3838 24.9887
L35.3838 24.9887
" />
<path d="M36.3838 24.9887
L36.3838 25.9887
" />
<path d="M36.3838 37.9887
L36.3838 38.9887
" />
<path d="M38.8838 22.4887
L38.8838 41.4887
" />
<path d="M38.8838 41.4887
L19.8838 41.4887
" />
<path d="M38.8838 20.5837
L57.8838 20.5837
" />
<path d="M38.8838 39.5837
L38.8838 20.5837
" />
<path d="M41.3838 24.0837
L41.3838 23.0837
" />
<path d="M41.3838 37.0837
L41.3838 36.0837
" />
<path d="M41.3838 37.0837
L42.3838 37.0837
" />
<path d="M42.3838 23.0837
L41.3838 23.0837
" />
<path d="M54.3838 37.0837
L55.3838 37.0837
" />
<path d="M55.3838 23.0837
L54.3838 23.0837
" />
<path d="M55.3838 23.0837
L55.3838 24.0837
" />
<path d="M55.3838 36.0837
L55.3838 37.0837
" />
<path d="M57.8838 20.5837
L57.8838 39.5837
" />
<path d="M57.8838 39.5837
L38.8838 39.5837
" />
<path d="M38.8838 39.5837
L57.8838 39.5837
" />
<path d="M38.8838 58.5837
L38.8838 39.5837
" />
<path d="M41.3838 43.0837
L41.3838 42.0837
" />
<path d="M41.3838 56.0837
L41.3838 55.0837
" />
<path d="M41.3838 56.0837
L42.3838 56.0837
" />
<path d="M42.3838 42.0837
L41.3838 42.0837
" />
<path d="M54.3838 56.0837
L55.3838 56.0837
" />
<path d="M55.3838 42.0837
L54.3838 42.0837
" />
<path d="M55.3838 42.0837
L55.3838 43.0837
" />
<path d="M55.3838 55.0837
L55.3838 56.0837
" />
<path d="M57.8838 39.5837
L57.8838 58.5837
" />
<path d="M57.8838 58.5837
L38.8838 58.5837
" />
<path d="M76.8838 24.3937
L95.8838 24.3937
" />
<path d="M76.8838 43.3937
L76.8838 24.3937
" />
<path d="M79.3838 27.8937
L79.3838 26.8937
" />
<path d="M79.3838 40.8937
L79.3838 39.8937
" />
<path d="M79.3838 40.8937
L80.3838 40.8937
" />
<path d="M80.3838 26.8937
L79.3838 26.8937
" />
<path d="M92.3838 40.8937
L93.3838 40.8937
" />
<path d="M93.3838 26.8937
L92.3838 26.8937
" />
<path d="M93.3838 26.8937
L93.3838 27.8937
" />
<path d="M93.3838 39.8937
L93.3838 40.8937
" />
<path d="M95.8838 24.3937
L95.8838 43.3937
" />
<path d="M95.8838 43.3937
L76.8838 43.3937
" />
</g>
<g style="fill:none; 
stroke:#000000; stroke-width:0.0500; stroke-opacity:1; 
stroke-linecap:round; stroke-linejoin:round;">
<path d="M78.0250 2.0250
L78.0250 4.0250
" />
<path d="M19.0250 4.0250
L19.0250 2.0250
" />
<path d="M59.0250 0.0250
L59.0250 2.0250
" />
<path d="M128.0250 4.0250
L128.0250 63.0250
" />
<path d="M114.0250 83.0250
L76.0250 83.0250
" />
<path d="M19.0250 2.0250
L38.0250 2.0250
" />
<path d="M76.0250 83.0250
L76.0250 81.0250
" />
<path d="M38.0250 81.0250
L0.0250 63.0250
" />
<path d="M0.0250 63.0250
L0.0250 4.0250
" />
<path d="M78.0250 4.0250
L128.0250 4.0250
" />
<path d="M38.0250 2.0250
L38.0250 0.0250
" />
<path d="M38.0250 0.0250
L59.0250 0.0250
" />
<path d="M128.0250 63.0250
L115.0250 83.0250
" />
<path d="M114.0250 83.0250
L115.0250 83.0250
" />
<path d="M0.0250 4.0250
L19.0250 4.0250
" />
<path d="M59.0250 2.0250
L78.0250 2.0250
" />
<path d="M76.0250 81.0250
L38.0250 81.0250
" />
</g> 
</svg>
