<?xml version="1.0" standalone="no"?>
 <!DOCTYPE svg PUBLIC "-//W3C//DTD SVG 1.1//EN" 
 "http://www.w3.org/Graphics/SVG/1.1/DTD/svg11.dtd"> 
<svg
  xmlns:svg="http://www.w3.org/2000/svg"
  xmlns="http://www.w3.org/2000/svg"
  xmlns:xlink="http://www.w3.org/1999/xlink"
  version="1.1"
  width="128.0414mm" height="83.0326mm" viewBox="0.0000 0.0000 128.0414 83.0326">
<title>SVG Image created as Glide38_ready_for_manufuncturer-B_Courtyard.svg date 2024/04/29 22:32:38 </title>
  <desc>Image generated by PCBNEW </desc>
<g style="fill:#000000; fill-opacity:1.0000;stroke:#000000; stroke-opacity:1.0000;
stroke-linecap:round; stroke-linejoin:round;"
 transform="translate(0 0) scale(1 1)">
</g>
<g style="fill:none; 
stroke:#000000; stroke-width:0.0500; stroke-opacity:1; 
stroke-linecap:round; stroke-linejoin:round;">
<path d="M78.0250 2.0250
L78.0250 4.0250
" />
<path d="M19.0250 4.0250
L19.0250 2.0250
" />
<path d="M59.0250 0.0250
L59.0250 2.0250
" />
<path d="M128.0250 4.0250
L128.0250 63.0250
" />
<path d="M114.0250 83.0250
L76.0250 83.0250
" />
<path d="M19.0250 2.0250
L38.0250 2.0250
" />
<path d="M76.0250 83.0250
L76.0250 81.0250
" />
<path d="M38.0250 81.0250
L0.0250 63.0250
" />
<path d="M0.0250 63.0250
L0.0250 4.0250
" />
<path d="M78.0250 4.0250
L128.0250 4.0250
" />
<path d="M38.0250 2.0250
L38.0250 0.0250
" />
<path d="M38.0250 0.0250
L59.0250 0.0250
" />
<path d="M128.0250 63.0250
L115.0250 83.0250
" />
<path d="M114.0250 83.0250
L115.0250 83.0250
" />
<path d="M0.0250 4.0250
L19.0250 4.0250
" />
<path d="M59.0250 2.0250
L78.0250 2.0250
" />
<path d="M76.0250 81.0250
L38.0250 81.0250
" />
</g> 
</svg>
