<?xml version="1.0" standalone="no"?>
 <!DOCTYPE svg PUBLIC "-//W3C//DTD SVG 1.1//EN" 
 "http://www.w3.org/Graphics/SVG/1.1/DTD/svg11.dtd"> 
<svg
  xmlns:svg="http://www.w3.org/2000/svg"
  xmlns="http://www.w3.org/2000/svg"
  xmlns:xlink="http://www.w3.org/1999/xlink"
  version="1.1"
  width="128.0414mm" height="83.0326mm" viewBox="0.0000 0.0000 128.0414 83.0326">
<title>SVG Image created as Glide38_ready_for_manufuncturer-B_Silkscreen.svg date 2024/04/29 22:32:38 </title>
  <desc>Image generated by PCBNEW </desc>
<g style="fill:#000000; fill-opacity:1.0000;stroke:#000000; stroke-opacity:1.0000;
stroke-linecap:round; stroke-linejoin:round;"
 transform="translate(0 0) scale(1 1)">
</g>
<g style="fill:none; 
stroke:#000000; stroke-width:0.1500; stroke-opacity:1; 
stroke-linecap:round; stroke-linejoin:round;">
<path d="M119.4000 31.3837
L119.4000 28.8837
" />
<path d="M120.9000 27.3837
L119.4000 28.8837
" />
<path d="M120.9000 27.3837
L123.4000 27.3837
" />
<path d="M120.9000 32.8837
L119.4000 31.3837
" />
<path d="M120.9000 32.8837
L123.4000 32.8837
" />
<path d="M123.4000 27.3837
L124.9000 28.8837
" />
<path d="M123.4000 32.8837
L124.9000 31.3837
" />
<path d="M124.9000 31.3837
L124.9000 28.8837
" />
</g>
<g style="fill:none; 
stroke:#000000; stroke-width:0.1000; stroke-opacity:1; 
stroke-linecap:round; stroke-linejoin:round;">
<path d="M9.6338 38.8937
L10.0338 38.8937
" />
<path d="M10.0338 38.8937
L10.0338 38.3437
" />
<path d="M10.0338 38.8937
L10.0338 39.4437
" />
<path d="M10.0338 38.8937
L10.6338 38.4937
" />
<path d="M10.6338 38.4937
L10.6338 39.2937
" />
<path d="M10.6338 38.8937
L11.1338 38.8937
" />
<path d="M10.6338 39.2937
L10.0338 38.8937
" />
<path d="M85.6338 57.8937
L86.0338 57.8937
" />
<path d="M86.0338 57.8937
L86.0338 57.3437
" />
<path d="M86.0338 57.8937
L86.0338 58.4437
" />
<path d="M86.0338 57.8937
L86.6338 57.4937
" />
<path d="M86.6338 57.4937
L86.6338 58.2937
" />
<path d="M86.6338 57.8937
L87.1338 57.8937
" />
<path d="M86.6338 58.2937
L86.0338 57.8937
" />
<path d="M85.5338 76.9437
L85.9338 76.9437
" />
<path d="M85.9338 76.9437
L85.9338 76.3937
" />
<path d="M85.9338 76.9437
L85.9338 77.4937
" />
<path d="M85.9338 76.9437
L86.5338 76.5437
" />
<path d="M86.5338 76.5437
L86.5338 77.3437
" />
<path d="M86.5338 76.9437
L87.0338 76.9437
" />
<path d="M86.5338 77.3437
L85.9338 76.9437
" />
<path d="M47.6338 16.0837
L48.0338 16.0837
" />
<path d="M48.0338 16.0837
L48.0338 15.5337
" />
<path d="M48.0338 16.0837
L48.0338 16.6337
" />
<path d="M48.0338 16.0837
L48.6338 15.6837
" />
<path d="M48.6338 15.6837
L48.6338 16.4837
" />
<path d="M48.6338 16.0837
L49.1338 16.0837
" />
<path d="M48.6338 16.4837
L48.0338 16.0837
" />
<path d="M85.6338 38.8937
L86.0338 38.8937
" />
<path d="M86.0338 38.8937
L86.0338 38.3437
" />
<path d="M86.0338 38.8937
L86.0338 39.4437
" />
<path d="M86.0338 38.8937
L86.6338 38.4937
" />
<path d="M86.6338 38.4937
L86.6338 39.2937
" />
<path d="M86.6338 38.8937
L87.1338 38.8937
" />
<path d="M86.6338 39.2937
L86.0338 38.8937
" />
<path d="M66.6338 17.9887
L67.0338 17.9887
" />
<path d="M67.0338 17.9887
L67.0338 17.4387
" />
<path d="M67.0338 17.9887
L67.0338 18.5387
" />
<path d="M67.0338 17.9887
L67.6338 17.5887
" />
<path d="M67.6338 17.5887
L67.6338 18.3887
" />
<path d="M67.6338 17.9887
L68.1338 17.9887
" />
<path d="M67.6338 18.3887
L67.0338 17.9887
" />
<path d="M47.6338 54.0837
L48.0338 54.0837
" />
<path d="M48.0338 54.0837
L48.0338 53.5337
" />
<path d="M48.0338 54.0837
L48.0338 54.6337
" />
<path d="M48.0338 54.0837
L48.6338 53.6837
" />
<path d="M48.6338 53.6837
L48.6338 54.4837
" />
<path d="M48.6338 54.0837
L49.1338 54.0837
" />
<path d="M48.6338 54.4837
L48.0338 54.0837
" />
<path d="M9.6338 19.8937
L10.0338 19.8937
" />
<path d="M10.0338 19.8937
L10.0338 19.3437
" />
<path d="M10.0338 19.8937
L10.0338 20.4437
" />
<path d="M10.0338 19.8937
L10.6338 19.4937
" />
<path d="M10.6338 19.4937
L10.6338 20.2937
" />
<path d="M10.6338 19.8937
L11.1338 19.8937
" />
<path d="M10.6338 20.2937
L10.0338 19.8937
" />
<path d="M115.8540 68.3451
L116.0719 68.0096
" />
<path d="M116.0632 67.2886
L116.7341 67.7243
" />
<path d="M116.0719 68.0096
L115.6106 67.7101
" />
<path d="M116.0719 68.0096
L116.0632 67.2886
" />
<path d="M116.0719 68.0096
L116.5331 68.3092
" />
<path d="M116.3987 67.5064
L116.6710 67.0871
" />
<path d="M116.7341 67.7243
L116.0719 68.0096
" />
<path d="M66.6338 55.9887
L67.0338 55.9887
" />
<path d="M67.0338 55.9887
L67.0338 55.4387
" />
<path d="M67.0338 55.9887
L67.0338 56.5387
" />
<path d="M67.0338 55.9887
L67.6338 55.5887
" />
<path d="M67.6338 55.5887
L67.6338 56.3887
" />
<path d="M67.6338 55.9887
L68.1338 55.9887
" />
<path d="M67.6338 56.3887
L67.0338 55.9887
" />
<path d="M9.6338 57.8937
L10.0338 57.8937
" />
<path d="M10.0338 57.8937
L10.0338 57.3437
" />
<path d="M10.0338 57.8937
L10.0338 58.4437
" />
<path d="M10.0338 57.8937
L10.6338 57.4937
" />
<path d="M10.6338 57.4937
L10.6338 58.2937
" />
<path d="M10.6338 57.8937
L11.1338 57.8937
" />
<path d="M10.6338 58.2937
L10.0338 57.8937
" />
<path d="M66.5338 75.0387
L66.9338 75.0387
" />
<path d="M66.9338 75.0387
L66.9338 74.4887
" />
<path d="M66.9338 75.0387
L66.9338 75.5887
" />
<path d="M66.9338 75.0387
L67.5338 74.6387
" />
<path d="M67.5338 74.6387
L67.5338 75.4387
" />
<path d="M67.5338 75.0387
L68.0338 75.0387
" />
<path d="M67.5338 75.4387
L66.9338 75.0387
" />
<path d="M47.6338 35.0837
L48.0338 35.0837
" />
<path d="M48.0338 35.0837
L48.0338 34.5337
" />
<path d="M48.0338 35.0837
L48.0338 35.6337
" />
<path d="M48.0338 35.0837
L48.6338 34.6837
" />
<path d="M48.6338 34.6837
L48.6338 35.4837
" />
<path d="M48.6338 35.0837
L49.1338 35.0837
" />
<path d="M48.6338 35.4837
L48.0338 35.0837
" />
<path d="M47.5338 75.0387
L47.9338 75.0387
" />
<path d="M47.9338 75.0387
L47.9338 74.4887
" />
<path d="M47.9338 75.0387
L47.9338 75.5887
" />
<path d="M47.9338 75.0387
L48.5338 74.6387
" />
<path d="M48.5338 74.6387
L48.5338 75.4387
" />
<path d="M48.5338 75.0387
L49.0338 75.0387
" />
<path d="M48.5338 75.4387
L47.9338 75.0387
" />
<path d="M85.6338 19.8937
L86.0338 19.8937
" />
<path d="M86.0338 19.8937
L86.0338 19.3437
" />
<path d="M86.0338 19.8937
L86.0338 20.4437
" />
<path d="M86.0338 19.8937
L86.6338 19.4937
" />
<path d="M86.6338 19.4937
L86.6338 20.2937
" />
<path d="M86.6338 19.8937
L87.1338 19.8937
" />
<path d="M86.6338 20.2937
L86.0338 19.8937
" />
<path d="M28.6338 17.9887
L29.0338 17.9887
" />
<path d="M29.0338 17.9887
L29.0338 17.4387
" />
<path d="M29.0338 17.9887
L29.0338 18.5387
" />
<path d="M29.0338 17.9887
L29.6338 17.5887
" />
<path d="M29.6338 17.5887
L29.6338 18.3887
" />
<path d="M29.6338 17.9887
L30.1338 17.9887
" />
<path d="M29.6338 18.3887
L29.0338 17.9887
" />
<path d="M28.6338 36.9887
L29.0338 36.9887
" />
<path d="M29.0338 36.9887
L29.0338 36.4387
" />
<path d="M29.0338 36.9887
L29.0338 37.5387
" />
<path d="M29.0338 36.9887
L29.6338 36.5887
" />
<path d="M29.6338 36.5887
L29.6338 37.3887
" />
<path d="M29.6338 36.9887
L30.1338 36.9887
" />
<path d="M29.6338 37.3887
L29.0338 36.9887
" />
<path d="M28.6338 55.9887
L29.0338 55.9887
" />
<path d="M29.0338 55.9887
L29.0338 55.4387
" />
<path d="M29.0338 55.9887
L29.0338 56.5387
" />
<path d="M29.0338 55.9887
L29.6338 55.5887
" />
<path d="M29.6338 55.5887
L29.6338 56.3887
" />
<path d="M29.6338 55.9887
L30.1338 55.9887
" />
<path d="M29.6338 56.3887
L29.0338 55.9887
" />
<path d="M66.6338 36.9887
L67.0338 36.9887
" />
<path d="M67.0338 36.9887
L67.0338 36.4387
" />
<path d="M67.0338 36.9887
L67.0338 37.5387
" />
<path d="M67.0338 36.9887
L67.6338 36.5887
" />
<path d="M67.6338 36.5887
L67.6338 37.3887
" />
<path d="M67.6338 36.9887
L68.1338 36.9887
" />
<path d="M67.6338 37.3887
L67.0338 36.9887
" />
<path style="fill:#000000; fill-opacity:1.0000; stroke:none;fill-rule:evenodd;"
d="M 98.8425,9.5724
100.5951,9.5724
100.5951,11.3250
98.8425,11.3250
Z" /> 
</g>
<g style="fill:#000000; fill-opacity:1.0000; stroke:none;">
<circle cx="99.7188" cy="12.9887" r="0.8763" /> 
</g>
<g style="fill:#000000; fill-opacity:1.0000; stroke:none;">
<circle cx="99.7188" cy="15.5287" r="0.8763" /> 
</g>
<g style="fill:#000000; fill-opacity:1.0000; stroke:none;">
<circle cx="99.7188" cy="18.0687" r="0.8763" /> 
</g>
<g style="fill:#000000; fill-opacity:1.0000; stroke:none;">
<circle cx="99.7188" cy="20.6087" r="0.8763" /> 
</g>
<g style="fill:#000000; fill-opacity:1.0000; stroke:none;">
<circle cx="99.7188" cy="23.1487" r="0.8763" /> 
</g>
<g style="fill:#000000; fill-opacity:1.0000; stroke:none;">
<circle cx="99.7188" cy="25.6887" r="0.8763" /> 
</g>
<g style="fill:#000000; fill-opacity:1.0000; stroke:none;">
<circle cx="99.7188" cy="28.2287" r="0.8763" /> 
</g>
<g style="fill:#000000; fill-opacity:1.0000; stroke:none;">
<circle cx="99.7188" cy="30.7687" r="0.8763" /> 
</g>
<g style="fill:#000000; fill-opacity:1.0000; stroke:none;">
<circle cx="99.7188" cy="33.3087" r="0.8763" /> 
</g>
<g style="fill:#000000; fill-opacity:1.0000; stroke:none;">
<circle cx="99.7188" cy="35.8487" r="0.8763" /> 
</g>
<g style="fill:#000000; fill-opacity:1.0000; stroke:none;">
<circle cx="99.7188" cy="38.3887" r="0.8763" /> 
</g>
<g style="fill:#000000; fill-opacity:1.0000; stroke:none;">
<circle cx="114.9588" cy="10.4487" r="0.8763" /> 
</g>
<g style="fill:#000000; fill-opacity:1.0000; stroke:none;">
<circle cx="114.9588" cy="12.9887" r="0.8763" /> 
</g>
<g style="fill:#000000; fill-opacity:1.0000; stroke:none;">
<circle cx="114.9588" cy="15.5287" r="0.8763" /> 
</g>
<g style="fill:#000000; fill-opacity:1.0000; stroke:none;">
<circle cx="114.9588" cy="18.0687" r="0.8763" /> 
</g>
<g style="fill:#000000; fill-opacity:1.0000; stroke:none;">
<circle cx="114.9588" cy="20.6087" r="0.8763" /> 
</g>
<g style="fill:#000000; fill-opacity:1.0000; stroke:none;">
<circle cx="114.9588" cy="23.1487" r="0.8763" /> 
</g>
<g style="fill:#000000; fill-opacity:1.0000; stroke:none;">
<circle cx="114.9588" cy="25.6887" r="0.8763" /> 
</g>
<g style="fill:#000000; fill-opacity:1.0000; stroke:none;">
<circle cx="114.9588" cy="28.2287" r="0.8763" /> 
</g>
<g style="fill:#000000; fill-opacity:1.0000; stroke:none;">
<circle cx="114.9588" cy="30.7687" r="0.8763" /> 
</g>
<g style="fill:#000000; fill-opacity:1.0000; stroke:none;">
<circle cx="114.9588" cy="33.3087" r="0.8763" /> 
</g>
<g style="fill:#000000; fill-opacity:1.0000; stroke:none;">
<circle cx="114.9588" cy="35.8487" r="0.8763" /> 
</g>
<g style="fill:#000000; fill-opacity:1.0000; stroke:none;">
<circle cx="114.9588" cy="38.3887" r="0.8763" /> 
</g>
<g style="fill:none; 
stroke:#000000; stroke-width:0.0500; stroke-opacity:1; 
stroke-linecap:round; stroke-linejoin:round;">
<path d="M78.0250 2.0250
L78.0250 4.0250
" />
<path d="M19.0250 4.0250
L19.0250 2.0250
" />
<path d="M59.0250 0.0250
L59.0250 2.0250
" />
<path d="M128.0250 4.0250
L128.0250 63.0250
" />
<path d="M114.0250 83.0250
L76.0250 83.0250
" />
<path d="M19.0250 2.0250
L38.0250 2.0250
" />
<path d="M76.0250 83.0250
L76.0250 81.0250
" />
<path d="M38.0250 81.0250
L0.0250 63.0250
" />
<path d="M0.0250 63.0250
L0.0250 4.0250
" />
<path d="M78.0250 4.0250
L128.0250 4.0250
" />
<path d="M38.0250 2.0250
L38.0250 0.0250
" />
<path d="M38.0250 0.0250
L59.0250 0.0250
" />
<path d="M128.0250 63.0250
L115.0250 83.0250
" />
<path d="M114.0250 83.0250
L115.0250 83.0250
" />
<path d="M0.0250 4.0250
L19.0250 4.0250
" />
<path d="M59.0250 2.0250
L78.0250 2.0250
" />
<path d="M76.0250 81.0250
L38.0250 81.0250
" />
</g> 
</svg>
