  0
SECTION
  2
HEADER
  9
$ACADVER
  1
AC1014
  9
$HANDSEED
  5
FFFF
  9
$INSUNITS
 70
     4
  9
$MEASUREMENT
 70
     1
  0
ENDSEC
  0
SECTION
  2
TABLES
  0
TABLE
  2
VPORT
  5
8
330
0
100
AcDbSymbolTable
 70
     4
  0
VPORT
  5
2E
330
8
100
AcDbSymbolTableRecord
100
AcDbViewportTableRecord
  2
*ACTIVE
 70
     0
 10
0.0
 20
0.0
 11
1.0
 21
1.0
 12
210.0
 22
148.5
 13
0.0
 23
0.0
 14
10.0
 24
10.0
 15
10.0
 25
10.0
 16
0.0
 26
0.0
 36
1.0
 17
0.0
 27
0.0
 37
0.0
 40
341.0
 41
1.24
 42
50.0
 43
0.0
 44
0.0
 50
0.0
 51
0.0
 71
     0
 72
   100
 73
     1
 74
     3
 75
     0
 76
     0
 77
     0
 78
     0
  0
ENDTAB
  0
TABLE
  2
LTYPE
  5
5
330
0
100
AcDbSymbolTable
 70
     1
  0
LTYPE
  5
14
330
5
100
AcDbSymbolTableRecord
100
AcDbLinetypeTableRecord
  2
BYBLOCK
 70
     0
  3

 72
    65
 73
     0
 40
0.0
  0
LTYPE
  5
15
330
5
100
AcDbSymbolTableRecord
100
AcDbLinetypeTableRecord
  2
BYLAYER
 70
     0
  3

 72
    65
 73
     0
 40
0.0
  0
LTYPE
  5
16
330
5
100
AcDbSymbolTableRecord
100
AcDbLinetypeTableRecord
  2
CONTINUOUS
 70
     0
  3
Solid line
 72
    65
 73
     0
 40
0.0
  0
ENDTAB
  0
TABLE
  2
LAYER
  5
2
100
AcDbSymbolTable
 70
1
  0
LAYER
  5
50
100
AcDbSymbolTableRecord
100
AcDbLayerTableRecord
  2
0
 70
0
  6
CONTINUOUS
  0
ENDTAB
  0
TABLE
  2
STYLE
  5
3
330
0
100
AcDbSymbolTable
 70
     1
  0
STYLE
  5
11
330
3
100
AcDbSymbolTableRecord
100
AcDbTextStyleTableRecord
  2
STANDARD
 70
     0
 40
0.0
 41
1.0
 50
0.0
 71
     0
 42
2.5
  3
txt
  4

  0
ENDTAB
  0
TABLE
  2
VIEW
  5
6
330
0
100
AcDbSymbolTable
 70
     0
  0
ENDTAB
  0
TABLE
  2
UCS
  5
7
330
0
100
AcDbSymbolTable
 70
     0
  0
ENDTAB
  0
TABLE
  2
APPID
  5
9
330
0
100
AcDbSymbolTable
 70
     2
  0
APPID
  5
12
330
9
100
AcDbSymbolTableRecord
100
AcDbRegAppTableRecord
  2
ACAD
 70
     0
  0
ENDTAB
  0
TABLE
  2
DIMSTYLE
  5
A
330
0
100
AcDbSymbolTable
 70
     1
  0
DIMSTYLE
105
27
330
A
100
AcDbSymbolTableRecord
100
AcDbDimStyleTableRecord
  2
ISO-25
 70
     0
  3

  4

  5

  6

  7

 40
1.0
 41
2.5
 42
0.625
 43
3.75
 44
1.25
 45
0.0
 46
0.0
 47
0.0
 48
0.0
140
2.5
141
2.5
142
0.0
143
0.03937007874016
144
1.0
145
0.0
146
1.0
147
0.625
 71
     0
 72
     0
 73
     0
 74
     0
 75
     0
 76
     0
 77
     1
 78
     8
170
     0
171
     3
172
     1
173
     0
174
     0
175
     0
176
     0
177
     0
178
     0
270
     2
271
     2
272
     2
273
     2
274
     3
340
11
275
     0
280
     0
281
     0
282
     0
283
     0
284
     8
285
     0
286
     0
287
     3
288
     0
  0
ENDTAB
  0
TABLE
  2
BLOCK_RECORD
  5
1
330
0
100
AcDbSymbolTable
 70
     1
  0
BLOCK_RECORD
  5
1F
330
1
100
AcDbSymbolTableRecord
100
AcDbBlockTableRecord
  2
*MODEL_SPACE
  0
BLOCK_RECORD
  5
1B
330
1
100
AcDbSymbolTableRecord
100
AcDbBlockTableRecord
  2
*PAPER_SPACE
  0
ENDTAB
  0
ENDSEC
  0
SECTION
  2
BLOCKS
  0
BLOCK
  5
20
330
1F
100
AcDbEntity
  8
0
100
AcDbBlockBegin
  2
*MODEL_SPACE
 70
     0
 10
0.0
 20
0.0
 30
0.0
  3
*MODEL_SPACE
  1

  0
ENDBLK
  5
21
330
1F
100
AcDbEntity
  8
0
100
AcDbBlockEnd
  0
BLOCK
  5
1C
330
1B
100
AcDbEntity
 67
     1
  8
0
100
AcDbBlockBegin
  2
*PAPER_SPACE
  1

  0
ENDBLK
  5
1D
330
1B
100
AcDbEntity
 67
     1
  8
0
100
AcDbBlockEnd
  0
ENDSEC
  0
SECTION
  2
ENTITIES
  0
SPLINE
  5
100
100
AcDbEntity
  8
0
 62
7
100
AcDbSpline
 70
8
 71
3
 72
8
 73
4
 74
0
 40
0
 40
0
 40
0
 40
0
 40
1
 40
1
 40
1
 40
1
 10
18.258800
 20
60.918900
 30
0.0
 10
18.097015
 20
60.918900
 30
0.0
 10
17.951161
 20
60.821443
 30
0.0
 10
17.889248
 20
60.671973
 30
0.0
  0
SPLINE
  5
101
100
AcDbEntity
  8
0
 62
7
100
AcDbSpline
 70
8
 71
3
 72
8
 73
4
 74
0
 40
0
 40
0
 40
0
 40
0
 40
1
 40
1
 40
1
 40
1
 10
17.889248
 20
60.671973
 30
0.0
 10
17.827336
 20
60.522504
 30
0.0
 10
17.861558
 20
60.350456
 30
0.0
 10
17.975957
 20
60.236057
 30
0.0
  0
SPLINE
  5
102
100
AcDbEntity
  8
0
 62
7
100
AcDbSpline
 70
8
 71
3
 72
8
 73
4
 74
0
 40
0
 40
0
 40
0
 40
0
 40
1
 40
1
 40
1
 40
1
 10
17.975957
 20
60.236057
 30
0.0
 10
18.090356
 20
60.121658
 30
0.0
 10
18.262404
 20
60.087436
 30
0.0
 10
18.411873
 20
60.149348
 30
0.0
  0
SPLINE
  5
103
100
AcDbEntity
  8
0
 62
7
100
AcDbSpline
 70
8
 71
3
 72
8
 73
4
 74
0
 40
0
 40
0
 40
0
 40
0
 40
1
 40
1
 40
1
 40
1
 10
18.411873
 20
60.149348
 30
0.0
 10
18.561343
 20
60.211261
 30
0.0
 10
18.658800
 20
60.357115
 30
0.0
 10
18.658800
 20
60.518900
 30
0.0
  0
SPLINE
  5
104
100
AcDbEntity
  8
0
 62
7
100
AcDbSpline
 70
8
 71
3
 72
8
 73
4
 74
0
 40
0
 40
0
 40
0
 40
0
 40
1
 40
1
 40
1
 40
1
 10
18.658800
 20
60.518900
 30
0.0
 10
18.658800
 20
60.624987
 30
0.0
 10
18.616657
 20
60.726728
 30
0.0
 10
18.541643
 20
60.801743
 30
0.0
  0
SPLINE
  5
105
100
AcDbEntity
  8
0
 62
7
100
AcDbSpline
 70
8
 71
3
 72
8
 73
4
 74
0
 40
0
 40
0
 40
0
 40
0
 40
1
 40
1
 40
1
 40
1
 10
18.541643
 20
60.801743
 30
0.0
 10
18.466628
 20
60.876757
 30
0.0
 10
18.364887
 20
60.918900
 30
0.0
 10
18.258800
 20
60.918900
 30
0.0
  0
SPLINE
  5
106
100
AcDbEntity
  8
0
 62
7
100
AcDbSpline
 70
8
 71
3
 72
8
 73
4
 74
0
 40
0
 40
0
 40
0
 40
0
 40
1
 40
1
 40
1
 40
1
 10
18.742100
 20
62.085600
 30
0.0
 10
18.580315
 20
62.085600
 30
0.0
 10
18.434461
 20
61.988143
 30
0.0
 10
18.372548
 20
61.838673
 30
0.0
  0
SPLINE
  5
107
100
AcDbEntity
  8
0
 62
7
100
AcDbSpline
 70
8
 71
3
 72
8
 73
4
 74
0
 40
0
 40
0
 40
0
 40
0
 40
1
 40
1
 40
1
 40
1
 10
18.372548
 20
61.838673
 30
0.0
 10
18.310636
 20
61.689204
 30
0.0
 10
18.344858
 20
61.517156
 30
0.0
 10
18.459257
 20
61.402757
 30
0.0
  0
SPLINE
  5
108
100
AcDbEntity
  8
0
 62
7
100
AcDbSpline
 70
8
 71
3
 72
8
 73
4
 74
0
 40
0
 40
0
 40
0
 40
0
 40
1
 40
1
 40
1
 40
1
 10
18.459257
 20
61.402757
 30
0.0
 10
18.573656
 20
61.288358
 30
0.0
 10
18.745704
 20
61.254136
 30
0.0
 10
18.895173
 20
61.316048
 30
0.0
  0
SPLINE
  5
109
100
AcDbEntity
  8
0
 62
7
100
AcDbSpline
 70
8
 71
3
 72
8
 73
4
 74
0
 40
0
 40
0
 40
0
 40
0
 40
1
 40
1
 40
1
 40
1
 10
18.895173
 20
61.316048
 30
0.0
 10
19.044643
 20
61.377961
 30
0.0
 10
19.142100
 20
61.523815
 30
0.0
 10
19.142100
 20
61.685600
 30
0.0
  0
SPLINE
  5
10a
100
AcDbEntity
  8
0
 62
7
100
AcDbSpline
 70
8
 71
3
 72
8
 73
4
 74
0
 40
0
 40
0
 40
0
 40
0
 40
1
 40
1
 40
1
 40
1
 10
19.142100
 20
61.685600
 30
0.0
 10
19.142100
 20
61.791687
 30
0.0
 10
19.099957
 20
61.893428
 30
0.0
 10
19.024943
 20
61.968443
 30
0.0
  0
SPLINE
  5
10b
100
AcDbEntity
  8
0
 62
7
100
AcDbSpline
 70
8
 71
3
 72
8
 73
4
 74
0
 40
0
 40
0
 40
0
 40
0
 40
1
 40
1
 40
1
 40
1
 10
19.024943
 20
61.968443
 30
0.0
 10
18.949928
 20
62.043457
 30
0.0
 10
18.848187
 20
62.085600
 30
0.0
 10
18.742100
 20
62.085600
 30
0.0
  0
LWPOLYLINE
  5
10c
100
AcDbEntity
  8
0
 62
7
100
AcDbPolyline
 90
1
 70
1
 10
18.258800
 20
60.918900
 30
0.0
  0
SPLINE
  5
10d
100
AcDbEntity
  8
0
 62
7
100
AcDbSpline
 70
8
 71
3
 72
8
 73
4
 74
0
 40
0
 40
0
 40
0
 40
0
 40
1
 40
1
 40
1
 40
1
 10
18.742100
 20
59.752200
 30
0.0
 10
18.580315
 20
59.752200
 30
0.0
 10
18.434461
 20
59.654743
 30
0.0
 10
18.372548
 20
59.505273
 30
0.0
  0
SPLINE
  5
10e
100
AcDbEntity
  8
0
 62
7
100
AcDbSpline
 70
8
 71
3
 72
8
 73
4
 74
0
 40
0
 40
0
 40
0
 40
0
 40
1
 40
1
 40
1
 40
1
 10
18.372548
 20
59.505273
 30
0.0
 10
18.310636
 20
59.355804
 30
0.0
 10
18.344858
 20
59.183756
 30
0.0
 10
18.459257
 20
59.069357
 30
0.0
  0
SPLINE
  5
10f
100
AcDbEntity
  8
0
 62
7
100
AcDbSpline
 70
8
 71
3
 72
8
 73
4
 74
0
 40
0
 40
0
 40
0
 40
0
 40
1
 40
1
 40
1
 40
1
 10
18.459257
 20
59.069357
 30
0.0
 10
18.573656
 20
58.954958
 30
0.0
 10
18.745704
 20
58.920736
 30
0.0
 10
18.895173
 20
58.982648
 30
0.0
  0
SPLINE
  5
110
100
AcDbEntity
  8
0
 62
7
100
AcDbSpline
 70
8
 71
3
 72
8
 73
4
 74
0
 40
0
 40
0
 40
0
 40
0
 40
1
 40
1
 40
1
 40
1
 10
18.895173
 20
58.982648
 30
0.0
 10
19.044643
 20
59.044561
 30
0.0
 10
19.142100
 20
59.190415
 30
0.0
 10
19.142100
 20
59.352200
 30
0.0
  0
SPLINE
  5
111
100
AcDbEntity
  8
0
 62
7
100
AcDbSpline
 70
8
 71
3
 72
8
 73
4
 74
0
 40
0
 40
0
 40
0
 40
0
 40
1
 40
1
 40
1
 40
1
 10
19.142100
 20
59.352200
 30
0.0
 10
19.142100
 20
59.458287
 30
0.0
 10
19.099957
 20
59.560028
 30
0.0
 10
19.024943
 20
59.635043
 30
0.0
  0
SPLINE
  5
112
100
AcDbEntity
  8
0
 62
7
100
AcDbSpline
 70
8
 71
3
 72
8
 73
4
 74
0
 40
0
 40
0
 40
0
 40
0
 40
1
 40
1
 40
1
 40
1
 10
19.024943
 20
59.635043
 30
0.0
 10
18.949928
 20
59.710057
 30
0.0
 10
18.848187
 20
59.752200
 30
0.0
 10
18.742100
 20
59.752200
 30
0.0
  0
LWPOLYLINE
  5
113
100
AcDbEntity
  8
0
 62
7
100
AcDbPolyline
 90
1
 70
1
 10
18.742100
 20
62.085600
 30
0.0
  0
SPLINE
  5
114
100
AcDbEntity
  8
0
 62
7
100
AcDbSpline
 70
8
 71
3
 72
8
 73
4
 74
0
 40
0
 40
0
 40
0
 40
0
 40
1
 40
1
 40
1
 40
1
 10
19.908800
 20
62.568900
 30
0.0
 10
19.747015
 20
62.568900
 30
0.0
 10
19.601161
 20
62.471443
 30
0.0
 10
19.539248
 20
62.321973
 30
0.0
  0
SPLINE
  5
115
100
AcDbEntity
  8
0
 62
7
100
AcDbSpline
 70
8
 71
3
 72
8
 73
4
 74
0
 40
0
 40
0
 40
0
 40
0
 40
1
 40
1
 40
1
 40
1
 10
19.539248
 20
62.321973
 30
0.0
 10
19.477336
 20
62.172504
 30
0.0
 10
19.511558
 20
62.000456
 30
0.0
 10
19.625957
 20
61.886057
 30
0.0
  0
SPLINE
  5
116
100
AcDbEntity
  8
0
 62
7
100
AcDbSpline
 70
8
 71
3
 72
8
 73
4
 74
0
 40
0
 40
0
 40
0
 40
0
 40
1
 40
1
 40
1
 40
1
 10
19.625957
 20
61.886057
 30
0.0
 10
19.740356
 20
61.771658
 30
0.0
 10
19.912404
 20
61.737436
 30
0.0
 10
20.061873
 20
61.799348
 30
0.0
  0
SPLINE
  5
117
100
AcDbEntity
  8
0
 62
7
100
AcDbSpline
 70
8
 71
3
 72
8
 73
4
 74
0
 40
0
 40
0
 40
0
 40
0
 40
1
 40
1
 40
1
 40
1
 10
20.061873
 20
61.799348
 30
0.0
 10
20.211343
 20
61.861261
 30
0.0
 10
20.308800
 20
62.007115
 30
0.0
 10
20.308800
 20
62.168900
 30
0.0
  0
SPLINE
  5
118
100
AcDbEntity
  8
0
 62
7
100
AcDbSpline
 70
8
 71
3
 72
8
 73
4
 74
0
 40
0
 40
0
 40
0
 40
0
 40
1
 40
1
 40
1
 40
1
 10
20.308800
 20
62.168900
 30
0.0
 10
20.308800
 20
62.389814
 30
0.0
 10
20.129714
 20
62.568900
 30
0.0
 10
19.908800
 20
62.568900
 30
0.0
  0
LWPOLYLINE
  5
119
100
AcDbEntity
  8
0
 62
7
100
AcDbPolyline
 90
1
 70
1
 10
18.742100
 20
59.752200
 30
0.0
  0
SPLINE
  5
11a
100
AcDbEntity
  8
0
 62
7
100
AcDbSpline
 70
8
 71
3
 72
8
 73
4
 74
0
 40
0
 40
0
 40
0
 40
0
 40
1
 40
1
 40
1
 40
1
 10
19.908800
 20
62.768900
 30
0.0
 10
18.998760
 20
62.768900
 30
0.0
 10
18.178328
 20
62.220705
 30
0.0
 10
17.830071
 20
61.379938
 30
0.0
  0
SPLINE
  5
11b
100
AcDbEntity
  8
0
 62
7
100
AcDbSpline
 70
8
 71
3
 72
8
 73
4
 74
0
 40
0
 40
0
 40
0
 40
0
 40
1
 40
1
 40
1
 40
1
 10
17.830071
 20
61.379938
 30
0.0
 10
17.481814
 20
60.539170
 30
0.0
 10
17.674314
 20
59.571405
 30
0.0
 10
18.317810
 20
58.927910
 30
0.0
  0
SPLINE
  5
11c
100
AcDbEntity
  8
0
 62
7
100
AcDbSpline
 70
8
 71
3
 72
8
 73
4
 74
0
 40
0
 40
0
 40
0
 40
0
 40
1
 40
1
 40
1
 40
1
 10
18.317810
 20
58.927910
 30
0.0
 10
18.961305
 20
58.284414
 30
0.0
 10
19.929070
 20
58.091914
 30
0.0
 10
20.769838
 20
58.440171
 30
0.0
  0
SPLINE
  5
11d
100
AcDbEntity
  8
0
 62
7
100
AcDbSpline
 70
8
 71
3
 72
8
 73
4
 74
0
 40
0
 40
0
 40
0
 40
0
 40
1
 40
1
 40
1
 40
1
 10
20.769838
 20
58.440171
 30
0.0
 10
21.610605
 20
58.788428
 30
0.0
 10
22.158800
 20
59.608860
 30
0.0
 10
22.158800
 20
60.518900
 30
0.0
  0
SPLINE
  5
11e
100
AcDbEntity
  8
0
 62
7
100
AcDbSpline
 70
8
 71
3
 72
8
 73
4
 74
0
 40
0
 40
0
 40
0
 40
0
 40
1
 40
1
 40
1
 40
1
 10
22.158800
 20
60.518900
 30
0.0
 10
22.158800
 20
61.115637
 30
0.0
 10
21.921747
 20
61.687933
 30
0.0
 10
21.499790
 20
62.109890
 30
0.0
  0
SPLINE
  5
11f
100
AcDbEntity
  8
0
 62
7
100
AcDbSpline
 70
8
 71
3
 72
8
 73
4
 74
0
 40
0
 40
0
 40
0
 40
0
 40
1
 40
1
 40
1
 40
1
 10
21.499790
 20
62.109890
 30
0.0
 10
21.077833
 20
62.531847
 30
0.0
 10
20.505537
 20
62.768900
 30
0.0
 10
19.908800
 20
62.768900
 30
0.0
  0
LWPOLYLINE
  5
120
100
AcDbEntity
  8
0
 62
7
100
AcDbPolyline
 90
1
 70
1
 10
19.908800
 20
62.568900
 30
0.0
  0
SPLINE
  5
121
100
AcDbEntity
  8
0
 62
7
100
AcDbSpline
 70
8
 71
3
 72
8
 73
4
 74
0
 40
0
 40
0
 40
0
 40
0
 40
1
 40
1
 40
1
 40
1
 10
19.908800
 20
59.268900
 30
0.0
 10
19.747015
 20
59.268900
 30
0.0
 10
19.601161
 20
59.171443
 30
0.0
 10
19.539248
 20
59.021973
 30
0.0
  0
SPLINE
  5
122
100
AcDbEntity
  8
0
 62
7
100
AcDbSpline
 70
8
 71
3
 72
8
 73
4
 74
0
 40
0
 40
0
 40
0
 40
0
 40
1
 40
1
 40
1
 40
1
 10
19.539248
 20
59.021973
 30
0.0
 10
19.477336
 20
58.872504
 30
0.0
 10
19.511558
 20
58.700456
 30
0.0
 10
19.625957
 20
58.586057
 30
0.0
  0
SPLINE
  5
123
100
AcDbEntity
  8
0
 62
7
100
AcDbSpline
 70
8
 71
3
 72
8
 73
4
 74
0
 40
0
 40
0
 40
0
 40
0
 40
1
 40
1
 40
1
 40
1
 10
19.625957
 20
58.586057
 30
0.0
 10
19.740356
 20
58.471658
 30
0.0
 10
19.912404
 20
58.437436
 30
0.0
 10
20.061873
 20
58.499348
 30
0.0
  0
SPLINE
  5
124
100
AcDbEntity
  8
0
 62
7
100
AcDbSpline
 70
8
 71
3
 72
8
 73
4
 74
0
 40
0
 40
0
 40
0
 40
0
 40
1
 40
1
 40
1
 40
1
 10
20.061873
 20
58.499348
 30
0.0
 10
20.211343
 20
58.561261
 30
0.0
 10
20.308800
 20
58.707115
 30
0.0
 10
20.308800
 20
58.868900
 30
0.0
  0
SPLINE
  5
125
100
AcDbEntity
  8
0
 62
7
100
AcDbSpline
 70
8
 71
3
 72
8
 73
4
 74
0
 40
0
 40
0
 40
0
 40
0
 40
1
 40
1
 40
1
 40
1
 10
20.308800
 20
58.868900
 30
0.0
 10
20.308800
 20
59.089814
 30
0.0
 10
20.129714
 20
59.268900
 30
0.0
 10
19.908800
 20
59.268900
 30
0.0
  0
LWPOLYLINE
  5
126
100
AcDbEntity
  8
0
 62
7
100
AcDbPolyline
 90
1
 70
1
 10
19.908800
 20
62.768900
 30
0.0
  0
SPLINE
  5
127
100
AcDbEntity
  8
0
 62
7
100
AcDbSpline
 70
8
 71
3
 72
8
 73
4
 74
0
 40
0
 40
0
 40
0
 40
0
 40
1
 40
1
 40
1
 40
1
 10
21.075500
 20
62.085600
 30
0.0
 10
20.913715
 20
62.085600
 30
0.0
 10
20.767861
 20
61.988143
 30
0.0
 10
20.705948
 20
61.838673
 30
0.0
  0
SPLINE
  5
128
100
AcDbEntity
  8
0
 62
7
100
AcDbSpline
 70
8
 71
3
 72
8
 73
4
 74
0
 40
0
 40
0
 40
0
 40
0
 40
1
 40
1
 40
1
 40
1
 10
20.705948
 20
61.838673
 30
0.0
 10
20.644036
 20
61.689204
 30
0.0
 10
20.678258
 20
61.517156
 30
0.0
 10
20.792657
 20
61.402757
 30
0.0
  0
SPLINE
  5
129
100
AcDbEntity
  8
0
 62
7
100
AcDbSpline
 70
8
 71
3
 72
8
 73
4
 74
0
 40
0
 40
0
 40
0
 40
0
 40
1
 40
1
 40
1
 40
1
 10
20.792657
 20
61.402757
 30
0.0
 10
20.907056
 20
61.288358
 30
0.0
 10
21.079104
 20
61.254136
 30
0.0
 10
21.228573
 20
61.316048
 30
0.0
  0
SPLINE
  5
12a
100
AcDbEntity
  8
0
 62
7
100
AcDbSpline
 70
8
 71
3
 72
8
 73
4
 74
0
 40
0
 40
0
 40
0
 40
0
 40
1
 40
1
 40
1
 40
1
 10
21.228573
 20
61.316048
 30
0.0
 10
21.378043
 20
61.377961
 30
0.0
 10
21.475500
 20
61.523815
 30
0.0
 10
21.475500
 20
61.685600
 30
0.0
  0
SPLINE
  5
12b
100
AcDbEntity
  8
0
 62
7
100
AcDbSpline
 70
8
 71
3
 72
8
 73
4
 74
0
 40
0
 40
0
 40
0
 40
0
 40
1
 40
1
 40
1
 40
1
 10
21.475500
 20
61.685600
 30
0.0
 10
21.475500
 20
61.906514
 30
0.0
 10
21.296414
 20
62.085600
 30
0.0
 10
21.075500
 20
62.085600
 30
0.0
  0
LWPOLYLINE
  5
12c
100
AcDbEntity
  8
0
 62
7
100
AcDbPolyline
 90
1
 70
1
 10
19.908800
 20
59.268900
 30
0.0
  0
SPLINE
  5
12d
100
AcDbEntity
  8
0
 62
7
100
AcDbSpline
 70
8
 71
3
 72
8
 73
4
 74
0
 40
0
 40
0
 40
0
 40
0
 40
1
 40
1
 40
1
 40
1
 10
21.075500
 20
59.752200
 30
0.0
 10
20.913715
 20
59.752200
 30
0.0
 10
20.767861
 20
59.654743
 30
0.0
 10
20.705948
 20
59.505273
 30
0.0
  0
SPLINE
  5
12e
100
AcDbEntity
  8
0
 62
7
100
AcDbSpline
 70
8
 71
3
 72
8
 73
4
 74
0
 40
0
 40
0
 40
0
 40
0
 40
1
 40
1
 40
1
 40
1
 10
20.705948
 20
59.505273
 30
0.0
 10
20.644036
 20
59.355804
 30
0.0
 10
20.678258
 20
59.183756
 30
0.0
 10
20.792657
 20
59.069357
 30
0.0
  0
SPLINE
  5
12f
100
AcDbEntity
  8
0
 62
7
100
AcDbSpline
 70
8
 71
3
 72
8
 73
4
 74
0
 40
0
 40
0
 40
0
 40
0
 40
1
 40
1
 40
1
 40
1
 10
20.792657
 20
59.069357
 30
0.0
 10
20.907056
 20
58.954958
 30
0.0
 10
21.079104
 20
58.920736
 30
0.0
 10
21.228573
 20
58.982648
 30
0.0
  0
SPLINE
  5
130
100
AcDbEntity
  8
0
 62
7
100
AcDbSpline
 70
8
 71
3
 72
8
 73
4
 74
0
 40
0
 40
0
 40
0
 40
0
 40
1
 40
1
 40
1
 40
1
 10
21.228573
 20
58.982648
 30
0.0
 10
21.378043
 20
59.044561
 30
0.0
 10
21.475500
 20
59.190415
 30
0.0
 10
21.475500
 20
59.352200
 30
0.0
  0
SPLINE
  5
131
100
AcDbEntity
  8
0
 62
7
100
AcDbSpline
 70
8
 71
3
 72
8
 73
4
 74
0
 40
0
 40
0
 40
0
 40
0
 40
1
 40
1
 40
1
 40
1
 10
21.475500
 20
59.352200
 30
0.0
 10
21.475500
 20
59.573114
 30
0.0
 10
21.296414
 20
59.752200
 30
0.0
 10
21.075500
 20
59.752200
 30
0.0
  0
LWPOLYLINE
  5
132
100
AcDbEntity
  8
0
 62
7
100
AcDbPolyline
 90
1
 70
1
 10
21.075500
 20
62.085600
 30
0.0
  0
SPLINE
  5
133
100
AcDbEntity
  8
0
 62
7
100
AcDbSpline
 70
8
 71
3
 72
8
 73
4
 74
0
 40
0
 40
0
 40
0
 40
0
 40
1
 40
1
 40
1
 40
1
 10
18.258800
 20
22.918900
 30
0.0
 10
18.097015
 20
22.918900
 30
0.0
 10
17.951161
 20
22.821443
 30
0.0
 10
17.889248
 20
22.671973
 30
0.0
  0
SPLINE
  5
134
100
AcDbEntity
  8
0
 62
7
100
AcDbSpline
 70
8
 71
3
 72
8
 73
4
 74
0
 40
0
 40
0
 40
0
 40
0
 40
1
 40
1
 40
1
 40
1
 10
17.889248
 20
22.671973
 30
0.0
 10
17.827336
 20
22.522504
 30
0.0
 10
17.861558
 20
22.350456
 30
0.0
 10
17.975957
 20
22.236057
 30
0.0
  0
SPLINE
  5
135
100
AcDbEntity
  8
0
 62
7
100
AcDbSpline
 70
8
 71
3
 72
8
 73
4
 74
0
 40
0
 40
0
 40
0
 40
0
 40
1
 40
1
 40
1
 40
1
 10
17.975957
 20
22.236057
 30
0.0
 10
18.090356
 20
22.121658
 30
0.0
 10
18.262404
 20
22.087436
 30
0.0
 10
18.411873
 20
22.149348
 30
0.0
  0
SPLINE
  5
136
100
AcDbEntity
  8
0
 62
7
100
AcDbSpline
 70
8
 71
3
 72
8
 73
4
 74
0
 40
0
 40
0
 40
0
 40
0
 40
1
 40
1
 40
1
 40
1
 10
18.411873
 20
22.149348
 30
0.0
 10
18.561343
 20
22.211261
 30
0.0
 10
18.658800
 20
22.357115
 30
0.0
 10
18.658800
 20
22.518900
 30
0.0
  0
SPLINE
  5
137
100
AcDbEntity
  8
0
 62
7
100
AcDbSpline
 70
8
 71
3
 72
8
 73
4
 74
0
 40
0
 40
0
 40
0
 40
0
 40
1
 40
1
 40
1
 40
1
 10
18.658800
 20
22.518900
 30
0.0
 10
18.658800
 20
22.624987
 30
0.0
 10
18.616657
 20
22.726728
 30
0.0
 10
18.541643
 20
22.801743
 30
0.0
  0
SPLINE
  5
138
100
AcDbEntity
  8
0
 62
7
100
AcDbSpline
 70
8
 71
3
 72
8
 73
4
 74
0
 40
0
 40
0
 40
0
 40
0
 40
1
 40
1
 40
1
 40
1
 10
18.541643
 20
22.801743
 30
0.0
 10
18.466628
 20
22.876757
 30
0.0
 10
18.364887
 20
22.918900
 30
0.0
 10
18.258800
 20
22.918900
 30
0.0
  0
LWPOLYLINE
  5
139
100
AcDbEntity
  8
0
 62
7
100
AcDbPolyline
 90
1
 70
1
 10
21.075500
 20
59.752200
 30
0.0
  0
SPLINE
  5
13a
100
AcDbEntity
  8
0
 62
7
100
AcDbSpline
 70
8
 71
3
 72
8
 73
4
 74
0
 40
0
 40
0
 40
0
 40
0
 40
1
 40
1
 40
1
 40
1
 10
18.742100
 20
24.085600
 30
0.0
 10
18.580315
 20
24.085600
 30
0.0
 10
18.434461
 20
23.988143
 30
0.0
 10
18.372548
 20
23.838673
 30
0.0
  0
SPLINE
  5
13b
100
AcDbEntity
  8
0
 62
7
100
AcDbSpline
 70
8
 71
3
 72
8
 73
4
 74
0
 40
0
 40
0
 40
0
 40
0
 40
1
 40
1
 40
1
 40
1
 10
18.372548
 20
23.838673
 30
0.0
 10
18.310636
 20
23.689204
 30
0.0
 10
18.344858
 20
23.517156
 30
0.0
 10
18.459257
 20
23.402757
 30
0.0
  0
SPLINE
  5
13c
100
AcDbEntity
  8
0
 62
7
100
AcDbSpline
 70
8
 71
3
 72
8
 73
4
 74
0
 40
0
 40
0
 40
0
 40
0
 40
1
 40
1
 40
1
 40
1
 10
18.459257
 20
23.402757
 30
0.0
 10
18.573656
 20
23.288358
 30
0.0
 10
18.745704
 20
23.254136
 30
0.0
 10
18.895173
 20
23.316048
 30
0.0
  0
SPLINE
  5
13d
100
AcDbEntity
  8
0
 62
7
100
AcDbSpline
 70
8
 71
3
 72
8
 73
4
 74
0
 40
0
 40
0
 40
0
 40
0
 40
1
 40
1
 40
1
 40
1
 10
18.895173
 20
23.316048
 30
0.0
 10
19.044643
 20
23.377961
 30
0.0
 10
19.142100
 20
23.523815
 30
0.0
 10
19.142100
 20
23.685600
 30
0.0
  0
SPLINE
  5
13e
100
AcDbEntity
  8
0
 62
7
100
AcDbSpline
 70
8
 71
3
 72
8
 73
4
 74
0
 40
0
 40
0
 40
0
 40
0
 40
1
 40
1
 40
1
 40
1
 10
19.142100
 20
23.685600
 30
0.0
 10
19.142100
 20
23.791687
 30
0.0
 10
19.099957
 20
23.893428
 30
0.0
 10
19.024943
 20
23.968443
 30
0.0
  0
SPLINE
  5
13f
100
AcDbEntity
  8
0
 62
7
100
AcDbSpline
 70
8
 71
3
 72
8
 73
4
 74
0
 40
0
 40
0
 40
0
 40
0
 40
1
 40
1
 40
1
 40
1
 10
19.024943
 20
23.968443
 30
0.0
 10
18.949928
 20
24.043457
 30
0.0
 10
18.848187
 20
24.085600
 30
0.0
 10
18.742100
 20
24.085600
 30
0.0
  0
LWPOLYLINE
  5
140
100
AcDbEntity
  8
0
 62
7
100
AcDbPolyline
 90
1
 70
1
 10
18.258800
 20
22.918900
 30
0.0
  0
SPLINE
  5
141
100
AcDbEntity
  8
0
 62
7
100
AcDbSpline
 70
8
 71
3
 72
8
 73
4
 74
0
 40
0
 40
0
 40
0
 40
0
 40
1
 40
1
 40
1
 40
1
 10
18.742100
 20
21.752200
 30
0.0
 10
18.580315
 20
21.752200
 30
0.0
 10
18.434461
 20
21.654743
 30
0.0
 10
18.372548
 20
21.505273
 30
0.0
  0
SPLINE
  5
142
100
AcDbEntity
  8
0
 62
7
100
AcDbSpline
 70
8
 71
3
 72
8
 73
4
 74
0
 40
0
 40
0
 40
0
 40
0
 40
1
 40
1
 40
1
 40
1
 10
18.372548
 20
21.505273
 30
0.0
 10
18.310636
 20
21.355804
 30
0.0
 10
18.344858
 20
21.183756
 30
0.0
 10
18.459257
 20
21.069357
 30
0.0
  0
SPLINE
  5
143
100
AcDbEntity
  8
0
 62
7
100
AcDbSpline
 70
8
 71
3
 72
8
 73
4
 74
0
 40
0
 40
0
 40
0
 40
0
 40
1
 40
1
 40
1
 40
1
 10
18.459257
 20
21.069357
 30
0.0
 10
18.573656
 20
20.954958
 30
0.0
 10
18.745704
 20
20.920736
 30
0.0
 10
18.895173
 20
20.982648
 30
0.0
  0
SPLINE
  5
144
100
AcDbEntity
  8
0
 62
7
100
AcDbSpline
 70
8
 71
3
 72
8
 73
4
 74
0
 40
0
 40
0
 40
0
 40
0
 40
1
 40
1
 40
1
 40
1
 10
18.895173
 20
20.982648
 30
0.0
 10
19.044643
 20
21.044561
 30
0.0
 10
19.142100
 20
21.190415
 30
0.0
 10
19.142100
 20
21.352200
 30
0.0
  0
SPLINE
  5
145
100
AcDbEntity
  8
0
 62
7
100
AcDbSpline
 70
8
 71
3
 72
8
 73
4
 74
0
 40
0
 40
0
 40
0
 40
0
 40
1
 40
1
 40
1
 40
1
 10
19.142100
 20
21.352200
 30
0.0
 10
19.142100
 20
21.458287
 30
0.0
 10
19.099957
 20
21.560028
 30
0.0
 10
19.024943
 20
21.635043
 30
0.0
  0
SPLINE
  5
146
100
AcDbEntity
  8
0
 62
7
100
AcDbSpline
 70
8
 71
3
 72
8
 73
4
 74
0
 40
0
 40
0
 40
0
 40
0
 40
1
 40
1
 40
1
 40
1
 10
19.024943
 20
21.635043
 30
0.0
 10
18.949928
 20
21.710057
 30
0.0
 10
18.848187
 20
21.752200
 30
0.0
 10
18.742100
 20
21.752200
 30
0.0
  0
LWPOLYLINE
  5
147
100
AcDbEntity
  8
0
 62
7
100
AcDbPolyline
 90
1
 70
1
 10
18.742100
 20
24.085600
 30
0.0
  0
SPLINE
  5
148
100
AcDbEntity
  8
0
 62
7
100
AcDbSpline
 70
8
 71
3
 72
8
 73
4
 74
0
 40
0
 40
0
 40
0
 40
0
 40
1
 40
1
 40
1
 40
1
 10
19.908800
 20
24.568900
 30
0.0
 10
19.747015
 20
24.568900
 30
0.0
 10
19.601161
 20
24.471443
 30
0.0
 10
19.539248
 20
24.321973
 30
0.0
  0
SPLINE
  5
149
100
AcDbEntity
  8
0
 62
7
100
AcDbSpline
 70
8
 71
3
 72
8
 73
4
 74
0
 40
0
 40
0
 40
0
 40
0
 40
1
 40
1
 40
1
 40
1
 10
19.539248
 20
24.321973
 30
0.0
 10
19.477336
 20
24.172504
 30
0.0
 10
19.511558
 20
24.000456
 30
0.0
 10
19.625957
 20
23.886057
 30
0.0
  0
SPLINE
  5
14a
100
AcDbEntity
  8
0
 62
7
100
AcDbSpline
 70
8
 71
3
 72
8
 73
4
 74
0
 40
0
 40
0
 40
0
 40
0
 40
1
 40
1
 40
1
 40
1
 10
19.625957
 20
23.886057
 30
0.0
 10
19.740356
 20
23.771658
 30
0.0
 10
19.912404
 20
23.737436
 30
0.0
 10
20.061873
 20
23.799348
 30
0.0
  0
SPLINE
  5
14b
100
AcDbEntity
  8
0
 62
7
100
AcDbSpline
 70
8
 71
3
 72
8
 73
4
 74
0
 40
0
 40
0
 40
0
 40
0
 40
1
 40
1
 40
1
 40
1
 10
20.061873
 20
23.799348
 30
0.0
 10
20.211343
 20
23.861261
 30
0.0
 10
20.308800
 20
24.007115
 30
0.0
 10
20.308800
 20
24.168900
 30
0.0
  0
SPLINE
  5
14c
100
AcDbEntity
  8
0
 62
7
100
AcDbSpline
 70
8
 71
3
 72
8
 73
4
 74
0
 40
0
 40
0
 40
0
 40
0
 40
1
 40
1
 40
1
 40
1
 10
20.308800
 20
24.168900
 30
0.0
 10
20.308800
 20
24.389814
 30
0.0
 10
20.129714
 20
24.568900
 30
0.0
 10
19.908800
 20
24.568900
 30
0.0
  0
LWPOLYLINE
  5
14d
100
AcDbEntity
  8
0
 62
7
100
AcDbPolyline
 90
1
 70
1
 10
18.742100
 20
21.752200
 30
0.0
  0
SPLINE
  5
14e
100
AcDbEntity
  8
0
 62
7
100
AcDbSpline
 70
8
 71
3
 72
8
 73
4
 74
0
 40
0
 40
0
 40
0
 40
0
 40
1
 40
1
 40
1
 40
1
 10
19.908800
 20
24.768900
 30
0.0
 10
18.998760
 20
24.768900
 30
0.0
 10
18.178328
 20
24.220705
 30
0.0
 10
17.830071
 20
23.379938
 30
0.0
  0
SPLINE
  5
14f
100
AcDbEntity
  8
0
 62
7
100
AcDbSpline
 70
8
 71
3
 72
8
 73
4
 74
0
 40
0
 40
0
 40
0
 40
0
 40
1
 40
1
 40
1
 40
1
 10
17.830071
 20
23.379938
 30
0.0
 10
17.481814
 20
22.539170
 30
0.0
 10
17.674314
 20
21.571405
 30
0.0
 10
18.317810
 20
20.927910
 30
0.0
  0
SPLINE
  5
150
100
AcDbEntity
  8
0
 62
7
100
AcDbSpline
 70
8
 71
3
 72
8
 73
4
 74
0
 40
0
 40
0
 40
0
 40
0
 40
1
 40
1
 40
1
 40
1
 10
18.317810
 20
20.927910
 30
0.0
 10
18.961305
 20
20.284414
 30
0.0
 10
19.929070
 20
20.091914
 30
0.0
 10
20.769838
 20
20.440171
 30
0.0
  0
SPLINE
  5
151
100
AcDbEntity
  8
0
 62
7
100
AcDbSpline
 70
8
 71
3
 72
8
 73
4
 74
0
 40
0
 40
0
 40
0
 40
0
 40
1
 40
1
 40
1
 40
1
 10
20.769838
 20
20.440171
 30
0.0
 10
21.610605
 20
20.788428
 30
0.0
 10
22.158800
 20
21.608860
 30
0.0
 10
22.158800
 20
22.518900
 30
0.0
  0
SPLINE
  5
152
100
AcDbEntity
  8
0
 62
7
100
AcDbSpline
 70
8
 71
3
 72
8
 73
4
 74
0
 40
0
 40
0
 40
0
 40
0
 40
1
 40
1
 40
1
 40
1
 10
22.158800
 20
22.518900
 30
0.0
 10
22.158800
 20
23.115637
 30
0.0
 10
21.921747
 20
23.687933
 30
0.0
 10
21.499790
 20
24.109890
 30
0.0
  0
SPLINE
  5
153
100
AcDbEntity
  8
0
 62
7
100
AcDbSpline
 70
8
 71
3
 72
8
 73
4
 74
0
 40
0
 40
0
 40
0
 40
0
 40
1
 40
1
 40
1
 40
1
 10
21.499790
 20
24.109890
 30
0.0
 10
21.077833
 20
24.531847
 30
0.0
 10
20.505537
 20
24.768900
 30
0.0
 10
19.908800
 20
24.768900
 30
0.0
  0
LWPOLYLINE
  5
154
100
AcDbEntity
  8
0
 62
7
100
AcDbPolyline
 90
1
 70
1
 10
19.908800
 20
24.568900
 30
0.0
  0
SPLINE
  5
155
100
AcDbEntity
  8
0
 62
7
100
AcDbSpline
 70
8
 71
3
 72
8
 73
4
 74
0
 40
0
 40
0
 40
0
 40
0
 40
1
 40
1
 40
1
 40
1
 10
19.908800
 20
21.268900
 30
0.0
 10
19.747015
 20
21.268900
 30
0.0
 10
19.601161
 20
21.171443
 30
0.0
 10
19.539248
 20
21.021973
 30
0.0
  0
SPLINE
  5
156
100
AcDbEntity
  8
0
 62
7
100
AcDbSpline
 70
8
 71
3
 72
8
 73
4
 74
0
 40
0
 40
0
 40
0
 40
0
 40
1
 40
1
 40
1
 40
1
 10
19.539248
 20
21.021973
 30
0.0
 10
19.477336
 20
20.872504
 30
0.0
 10
19.511558
 20
20.700456
 30
0.0
 10
19.625957
 20
20.586057
 30
0.0
  0
SPLINE
  5
157
100
AcDbEntity
  8
0
 62
7
100
AcDbSpline
 70
8
 71
3
 72
8
 73
4
 74
0
 40
0
 40
0
 40
0
 40
0
 40
1
 40
1
 40
1
 40
1
 10
19.625957
 20
20.586057
 30
0.0
 10
19.740356
 20
20.471658
 30
0.0
 10
19.912404
 20
20.437436
 30
0.0
 10
20.061873
 20
20.499348
 30
0.0
  0
SPLINE
  5
158
100
AcDbEntity
  8
0
 62
7
100
AcDbSpline
 70
8
 71
3
 72
8
 73
4
 74
0
 40
0
 40
0
 40
0
 40
0
 40
1
 40
1
 40
1
 40
1
 10
20.061873
 20
20.499348
 30
0.0
 10
20.211343
 20
20.561261
 30
0.0
 10
20.308800
 20
20.707115
 30
0.0
 10
20.308800
 20
20.868900
 30
0.0
  0
SPLINE
  5
159
100
AcDbEntity
  8
0
 62
7
100
AcDbSpline
 70
8
 71
3
 72
8
 73
4
 74
0
 40
0
 40
0
 40
0
 40
0
 40
1
 40
1
 40
1
 40
1
 10
20.308800
 20
20.868900
 30
0.0
 10
20.308800
 20
21.089814
 30
0.0
 10
20.129714
 20
21.268900
 30
0.0
 10
19.908800
 20
21.268900
 30
0.0
  0
LWPOLYLINE
  5
15a
100
AcDbEntity
  8
0
 62
7
100
AcDbPolyline
 90
1
 70
1
 10
19.908800
 20
24.768900
 30
0.0
  0
SPLINE
  5
15b
100
AcDbEntity
  8
0
 62
7
100
AcDbSpline
 70
8
 71
3
 72
8
 73
4
 74
0
 40
0
 40
0
 40
0
 40
0
 40
1
 40
1
 40
1
 40
1
 10
21.075500
 20
24.085600
 30
0.0
 10
20.913715
 20
24.085600
 30
0.0
 10
20.767861
 20
23.988143
 30
0.0
 10
20.705948
 20
23.838673
 30
0.0
  0
SPLINE
  5
15c
100
AcDbEntity
  8
0
 62
7
100
AcDbSpline
 70
8
 71
3
 72
8
 73
4
 74
0
 40
0
 40
0
 40
0
 40
0
 40
1
 40
1
 40
1
 40
1
 10
20.705948
 20
23.838673
 30
0.0
 10
20.644036
 20
23.689204
 30
0.0
 10
20.678258
 20
23.517156
 30
0.0
 10
20.792657
 20
23.402757
 30
0.0
  0
SPLINE
  5
15d
100
AcDbEntity
  8
0
 62
7
100
AcDbSpline
 70
8
 71
3
 72
8
 73
4
 74
0
 40
0
 40
0
 40
0
 40
0
 40
1
 40
1
 40
1
 40
1
 10
20.792657
 20
23.402757
 30
0.0
 10
20.907056
 20
23.288358
 30
0.0
 10
21.079104
 20
23.254136
 30
0.0
 10
21.228573
 20
23.316048
 30
0.0
  0
SPLINE
  5
15e
100
AcDbEntity
  8
0
 62
7
100
AcDbSpline
 70
8
 71
3
 72
8
 73
4
 74
0
 40
0
 40
0
 40
0
 40
0
 40
1
 40
1
 40
1
 40
1
 10
21.228573
 20
23.316048
 30
0.0
 10
21.378043
 20
23.377961
 30
0.0
 10
21.475500
 20
23.523815
 30
0.0
 10
21.475500
 20
23.685600
 30
0.0
  0
SPLINE
  5
15f
100
AcDbEntity
  8
0
 62
7
100
AcDbSpline
 70
8
 71
3
 72
8
 73
4
 74
0
 40
0
 40
0
 40
0
 40
0
 40
1
 40
1
 40
1
 40
1
 10
21.475500
 20
23.685600
 30
0.0
 10
21.475500
 20
23.906514
 30
0.0
 10
21.296414
 20
24.085600
 30
0.0
 10
21.075500
 20
24.085600
 30
0.0
  0
LWPOLYLINE
  5
160
100
AcDbEntity
  8
0
 62
7
100
AcDbPolyline
 90
1
 70
1
 10
19.908800
 20
21.268900
 30
0.0
  0
SPLINE
  5
161
100
AcDbEntity
  8
0
 62
7
100
AcDbSpline
 70
8
 71
3
 72
8
 73
4
 74
0
 40
0
 40
0
 40
0
 40
0
 40
1
 40
1
 40
1
 40
1
 10
21.075500
 20
21.752200
 30
0.0
 10
20.913715
 20
21.752200
 30
0.0
 10
20.767861
 20
21.654743
 30
0.0
 10
20.705948
 20
21.505273
 30
0.0
  0
SPLINE
  5
162
100
AcDbEntity
  8
0
 62
7
100
AcDbSpline
 70
8
 71
3
 72
8
 73
4
 74
0
 40
0
 40
0
 40
0
 40
0
 40
1
 40
1
 40
1
 40
1
 10
20.705948
 20
21.505273
 30
0.0
 10
20.644036
 20
21.355804
 30
0.0
 10
20.678258
 20
21.183756
 30
0.0
 10
20.792657
 20
21.069357
 30
0.0
  0
SPLINE
  5
163
100
AcDbEntity
  8
0
 62
7
100
AcDbSpline
 70
8
 71
3
 72
8
 73
4
 74
0
 40
0
 40
0
 40
0
 40
0
 40
1
 40
1
 40
1
 40
1
 10
20.792657
 20
21.069357
 30
0.0
 10
20.907056
 20
20.954958
 30
0.0
 10
21.079104
 20
20.920736
 30
0.0
 10
21.228573
 20
20.982648
 30
0.0
  0
SPLINE
  5
164
100
AcDbEntity
  8
0
 62
7
100
AcDbSpline
 70
8
 71
3
 72
8
 73
4
 74
0
 40
0
 40
0
 40
0
 40
0
 40
1
 40
1
 40
1
 40
1
 10
21.228573
 20
20.982648
 30
0.0
 10
21.378043
 20
21.044561
 30
0.0
 10
21.475500
 20
21.190415
 30
0.0
 10
21.475500
 20
21.352200
 30
0.0
  0
SPLINE
  5
165
100
AcDbEntity
  8
0
 62
7
100
AcDbSpline
 70
8
 71
3
 72
8
 73
4
 74
0
 40
0
 40
0
 40
0
 40
0
 40
1
 40
1
 40
1
 40
1
 10
21.475500
 20
21.352200
 30
0.0
 10
21.475500
 20
21.573114
 30
0.0
 10
21.296414
 20
21.752200
 30
0.0
 10
21.075500
 20
21.752200
 30
0.0
  0
LWPOLYLINE
  5
166
100
AcDbEntity
  8
0
 62
7
100
AcDbPolyline
 90
1
 70
1
 10
21.075500
 20
24.085600
 30
0.0
  0
SPLINE
  5
167
100
AcDbEntity
  8
0
 62
7
100
AcDbSpline
 70
8
 71
3
 72
8
 73
4
 74
0
 40
0
 40
0
 40
0
 40
0
 40
1
 40
1
 40
1
 40
1
 10
75.742100
 20
62.085600
 30
0.0
 10
75.521186
 20
62.085600
 30
0.0
 10
75.342100
 20
61.906514
 30
0.0
 10
75.342100
 20
61.685600
 30
0.0
  0
SPLINE
  5
168
100
AcDbEntity
  8
0
 62
7
100
AcDbSpline
 70
8
 71
3
 72
8
 73
4
 74
0
 40
0
 40
0
 40
0
 40
0
 40
1
 40
1
 40
1
 40
1
 10
75.342100
 20
61.685600
 30
0.0
 10
75.342100
 20
61.464686
 30
0.0
 10
75.521186
 20
61.285600
 30
0.0
 10
75.742100
 20
61.285600
 30
0.0
  0
SPLINE
  5
169
100
AcDbEntity
  8
0
 62
7
100
AcDbSpline
 70
8
 71
3
 72
8
 73
4
 74
0
 40
0
 40
0
 40
0
 40
0
 40
1
 40
1
 40
1
 40
1
 10
75.742100
 20
61.285600
 30
0.0
 10
75.963014
 20
61.285600
 30
0.0
 10
76.142100
 20
61.464686
 30
0.0
 10
76.142100
 20
61.685600
 30
0.0
  0
SPLINE
  5
16a
100
AcDbEntity
  8
0
 62
7
100
AcDbSpline
 70
8
 71
3
 72
8
 73
4
 74
0
 40
0
 40
0
 40
0
 40
0
 40
1
 40
1
 40
1
 40
1
 10
76.142100
 20
61.685600
 30
0.0
 10
76.142100
 20
61.791687
 30
0.0
 10
76.099957
 20
61.893428
 30
0.0
 10
76.024943
 20
61.968443
 30
0.0
  0
SPLINE
  5
16b
100
AcDbEntity
  8
0
 62
7
100
AcDbSpline
 70
8
 71
3
 72
8
 73
4
 74
0
 40
0
 40
0
 40
0
 40
0
 40
1
 40
1
 40
1
 40
1
 10
76.024943
 20
61.968443
 30
0.0
 10
75.949928
 20
62.043457
 30
0.0
 10
75.848187
 20
62.085600
 30
0.0
 10
75.742100
 20
62.085600
 30
0.0
  0
LWPOLYLINE
  5
16c
100
AcDbEntity
  8
0
 62
7
100
AcDbPolyline
 90
1
 70
1
 10
21.075500
 20
21.752200
 30
0.0
  0
SPLINE
  5
16d
100
AcDbEntity
  8
0
 62
7
100
AcDbSpline
 70
8
 71
3
 72
8
 73
4
 74
0
 40
0
 40
0
 40
0
 40
0
 40
1
 40
1
 40
1
 40
1
 10
75.742100
 20
59.752200
 30
0.0
 10
75.521186
 20
59.752200
 30
0.0
 10
75.342100
 20
59.573114
 30
0.0
 10
75.342100
 20
59.352200
 30
0.0
  0
SPLINE
  5
16e
100
AcDbEntity
  8
0
 62
7
100
AcDbSpline
 70
8
 71
3
 72
8
 73
4
 74
0
 40
0
 40
0
 40
0
 40
0
 40
1
 40
1
 40
1
 40
1
 10
75.342100
 20
59.352200
 30
0.0
 10
75.342100
 20
59.131286
 30
0.0
 10
75.521186
 20
58.952200
 30
0.0
 10
75.742100
 20
58.952200
 30
0.0
  0
SPLINE
  5
16f
100
AcDbEntity
  8
0
 62
7
100
AcDbSpline
 70
8
 71
3
 72
8
 73
4
 74
0
 40
0
 40
0
 40
0
 40
0
 40
1
 40
1
 40
1
 40
1
 10
75.742100
 20
58.952200
 30
0.0
 10
75.963014
 20
58.952200
 30
0.0
 10
76.142100
 20
59.131286
 30
0.0
 10
76.142100
 20
59.352200
 30
0.0
  0
SPLINE
  5
170
100
AcDbEntity
  8
0
 62
7
100
AcDbSpline
 70
8
 71
3
 72
8
 73
4
 74
0
 40
0
 40
0
 40
0
 40
0
 40
1
 40
1
 40
1
 40
1
 10
76.142100
 20
59.352200
 30
0.0
 10
76.142100
 20
59.458287
 30
0.0
 10
76.099957
 20
59.560028
 30
0.0
 10
76.024943
 20
59.635043
 30
0.0
  0
SPLINE
  5
171
100
AcDbEntity
  8
0
 62
7
100
AcDbSpline
 70
8
 71
3
 72
8
 73
4
 74
0
 40
0
 40
0
 40
0
 40
0
 40
1
 40
1
 40
1
 40
1
 10
76.024943
 20
59.635043
 30
0.0
 10
75.949928
 20
59.710057
 30
0.0
 10
75.848187
 20
59.752200
 30
0.0
 10
75.742100
 20
59.752200
 30
0.0
  0
LWPOLYLINE
  5
172
100
AcDbEntity
  8
0
 62
7
100
AcDbPolyline
 90
1
 70
1
 10
75.742100
 20
62.085600
 30
0.0
  0
SPLINE
  5
173
100
AcDbEntity
  8
0
 62
7
100
AcDbSpline
 70
8
 71
3
 72
8
 73
4
 74
0
 40
0
 40
0
 40
0
 40
0
 40
1
 40
1
 40
1
 40
1
 10
76.908800
 20
62.568900
 30
0.0
 10
76.747015
 20
62.568900
 30
0.0
 10
76.601161
 20
62.471443
 30
0.0
 10
76.539248
 20
62.321973
 30
0.0
  0
SPLINE
  5
174
100
AcDbEntity
  8
0
 62
7
100
AcDbSpline
 70
8
 71
3
 72
8
 73
4
 74
0
 40
0
 40
0
 40
0
 40
0
 40
1
 40
1
 40
1
 40
1
 10
76.539248
 20
62.321973
 30
0.0
 10
76.477336
 20
62.172504
 30
0.0
 10
76.511558
 20
62.000456
 30
0.0
 10
76.625957
 20
61.886057
 30
0.0
  0
SPLINE
  5
175
100
AcDbEntity
  8
0
 62
7
100
AcDbSpline
 70
8
 71
3
 72
8
 73
4
 74
0
 40
0
 40
0
 40
0
 40
0
 40
1
 40
1
 40
1
 40
1
 10
76.625957
 20
61.886057
 30
0.0
 10
76.740356
 20
61.771658
 30
0.0
 10
76.912404
 20
61.737436
 30
0.0
 10
77.061873
 20
61.799348
 30
0.0
  0
SPLINE
  5
176
100
AcDbEntity
  8
0
 62
7
100
AcDbSpline
 70
8
 71
3
 72
8
 73
4
 74
0
 40
0
 40
0
 40
0
 40
0
 40
1
 40
1
 40
1
 40
1
 10
77.061873
 20
61.799348
 30
0.0
 10
77.211343
 20
61.861261
 30
0.0
 10
77.308800
 20
62.007115
 30
0.0
 10
77.308800
 20
62.168900
 30
0.0
  0
SPLINE
  5
177
100
AcDbEntity
  8
0
 62
7
100
AcDbSpline
 70
8
 71
3
 72
8
 73
4
 74
0
 40
0
 40
0
 40
0
 40
0
 40
1
 40
1
 40
1
 40
1
 10
77.308800
 20
62.168900
 30
0.0
 10
77.308800
 20
62.274987
 30
0.0
 10
77.266657
 20
62.376728
 30
0.0
 10
77.191643
 20
62.451743
 30
0.0
  0
SPLINE
  5
178
100
AcDbEntity
  8
0
 62
7
100
AcDbSpline
 70
8
 71
3
 72
8
 73
4
 74
0
 40
0
 40
0
 40
0
 40
0
 40
1
 40
1
 40
1
 40
1
 10
77.191643
 20
62.451743
 30
0.0
 10
77.116628
 20
62.526757
 30
0.0
 10
77.014887
 20
62.568900
 30
0.0
 10
76.908800
 20
62.568900
 30
0.0
  0
LWPOLYLINE
  5
179
100
AcDbEntity
  8
0
 62
7
100
AcDbPolyline
 90
1
 70
1
 10
75.742100
 20
59.752200
 30
0.0
  0
SPLINE
  5
17a
100
AcDbEntity
  8
0
 62
7
100
AcDbSpline
 70
8
 71
3
 72
8
 73
4
 74
0
 40
0
 40
0
 40
0
 40
0
 40
1
 40
1
 40
1
 40
1
 10
76.908800
 20
62.768900
 30
0.0
 10
75.998760
 20
62.768900
 30
0.0
 10
75.178328
 20
62.220705
 30
0.0
 10
74.830071
 20
61.379938
 30
0.0
  0
SPLINE
  5
17b
100
AcDbEntity
  8
0
 62
7
100
AcDbSpline
 70
8
 71
3
 72
8
 73
4
 74
0
 40
0
 40
0
 40
0
 40
0
 40
1
 40
1
 40
1
 40
1
 10
74.830071
 20
61.379938
 30
0.0
 10
74.481814
 20
60.539170
 30
0.0
 10
74.674314
 20
59.571405
 30
0.0
 10
75.317810
 20
58.927910
 30
0.0
  0
SPLINE
  5
17c
100
AcDbEntity
  8
0
 62
7
100
AcDbSpline
 70
8
 71
3
 72
8
 73
4
 74
0
 40
0
 40
0
 40
0
 40
0
 40
1
 40
1
 40
1
 40
1
 10
75.317810
 20
58.927910
 30
0.0
 10
75.961305
 20
58.284414
 30
0.0
 10
76.929070
 20
58.091914
 30
0.0
 10
77.769838
 20
58.440171
 30
0.0
  0
SPLINE
  5
17d
100
AcDbEntity
  8
0
 62
7
100
AcDbSpline
 70
8
 71
3
 72
8
 73
4
 74
0
 40
0
 40
0
 40
0
 40
0
 40
1
 40
1
 40
1
 40
1
 10
77.769838
 20
58.440171
 30
0.0
 10
78.610605
 20
58.788428
 30
0.0
 10
79.158800
 20
59.608860
 30
0.0
 10
79.158800
 20
60.518900
 30
0.0
  0
SPLINE
  5
17e
100
AcDbEntity
  8
0
 62
7
100
AcDbSpline
 70
8
 71
3
 72
8
 73
4
 74
0
 40
0
 40
0
 40
0
 40
0
 40
1
 40
1
 40
1
 40
1
 10
79.158800
 20
60.518900
 30
0.0
 10
79.158800
 20
61.115637
 30
0.0
 10
78.921747
 20
61.687933
 30
0.0
 10
78.499790
 20
62.109890
 30
0.0
  0
SPLINE
  5
17f
100
AcDbEntity
  8
0
 62
7
100
AcDbSpline
 70
8
 71
3
 72
8
 73
4
 74
0
 40
0
 40
0
 40
0
 40
0
 40
1
 40
1
 40
1
 40
1
 10
78.499790
 20
62.109890
 30
0.0
 10
78.077833
 20
62.531847
 30
0.0
 10
77.505537
 20
62.768900
 30
0.0
 10
76.908800
 20
62.768900
 30
0.0
  0
LWPOLYLINE
  5
180
100
AcDbEntity
  8
0
 62
7
100
AcDbPolyline
 90
1
 70
1
 10
76.908800
 20
62.568900
 30
0.0
  0
SPLINE
  5
181
100
AcDbEntity
  8
0
 62
7
100
AcDbSpline
 70
8
 71
3
 72
8
 73
4
 74
0
 40
0
 40
0
 40
0
 40
0
 40
1
 40
1
 40
1
 40
1
 10
76.908800
 20
59.268900
 30
0.0
 10
76.747015
 20
59.268900
 30
0.0
 10
76.601161
 20
59.171443
 30
0.0
 10
76.539248
 20
59.021973
 30
0.0
  0
SPLINE
  5
182
100
AcDbEntity
  8
0
 62
7
100
AcDbSpline
 70
8
 71
3
 72
8
 73
4
 74
0
 40
0
 40
0
 40
0
 40
0
 40
1
 40
1
 40
1
 40
1
 10
76.539248
 20
59.021973
 30
0.0
 10
76.477336
 20
58.872504
 30
0.0
 10
76.511558
 20
58.700456
 30
0.0
 10
76.625957
 20
58.586057
 30
0.0
  0
SPLINE
  5
183
100
AcDbEntity
  8
0
 62
7
100
AcDbSpline
 70
8
 71
3
 72
8
 73
4
 74
0
 40
0
 40
0
 40
0
 40
0
 40
1
 40
1
 40
1
 40
1
 10
76.625957
 20
58.586057
 30
0.0
 10
76.740356
 20
58.471658
 30
0.0
 10
76.912404
 20
58.437436
 30
0.0
 10
77.061873
 20
58.499348
 30
0.0
  0
SPLINE
  5
184
100
AcDbEntity
  8
0
 62
7
100
AcDbSpline
 70
8
 71
3
 72
8
 73
4
 74
0
 40
0
 40
0
 40
0
 40
0
 40
1
 40
1
 40
1
 40
1
 10
77.061873
 20
58.499348
 30
0.0
 10
77.211343
 20
58.561261
 30
0.0
 10
77.308800
 20
58.707115
 30
0.0
 10
77.308800
 20
58.868900
 30
0.0
  0
SPLINE
  5
185
100
AcDbEntity
  8
0
 62
7
100
AcDbSpline
 70
8
 71
3
 72
8
 73
4
 74
0
 40
0
 40
0
 40
0
 40
0
 40
1
 40
1
 40
1
 40
1
 10
77.308800
 20
58.868900
 30
0.0
 10
77.308800
 20
58.974987
 30
0.0
 10
77.266657
 20
59.076728
 30
0.0
 10
77.191643
 20
59.151743
 30
0.0
  0
SPLINE
  5
186
100
AcDbEntity
  8
0
 62
7
100
AcDbSpline
 70
8
 71
3
 72
8
 73
4
 74
0
 40
0
 40
0
 40
0
 40
0
 40
1
 40
1
 40
1
 40
1
 10
77.191643
 20
59.151743
 30
0.0
 10
77.116628
 20
59.226757
 30
0.0
 10
77.014887
 20
59.268900
 30
0.0
 10
76.908800
 20
59.268900
 30
0.0
  0
LWPOLYLINE
  5
187
100
AcDbEntity
  8
0
 62
7
100
AcDbPolyline
 90
1
 70
1
 10
76.908800
 20
62.768900
 30
0.0
  0
SPLINE
  5
188
100
AcDbEntity
  8
0
 62
7
100
AcDbSpline
 70
8
 71
3
 72
8
 73
4
 74
0
 40
0
 40
0
 40
0
 40
0
 40
1
 40
1
 40
1
 40
1
 10
78.075500
 20
62.085600
 30
0.0
 10
77.913715
 20
62.085600
 30
0.0
 10
77.767861
 20
61.988143
 30
0.0
 10
77.705948
 20
61.838673
 30
0.0
  0
SPLINE
  5
189
100
AcDbEntity
  8
0
 62
7
100
AcDbSpline
 70
8
 71
3
 72
8
 73
4
 74
0
 40
0
 40
0
 40
0
 40
0
 40
1
 40
1
 40
1
 40
1
 10
77.705948
 20
61.838673
 30
0.0
 10
77.644036
 20
61.689204
 30
0.0
 10
77.678258
 20
61.517156
 30
0.0
 10
77.792657
 20
61.402757
 30
0.0
  0
SPLINE
  5
18a
100
AcDbEntity
  8
0
 62
7
100
AcDbSpline
 70
8
 71
3
 72
8
 73
4
 74
0
 40
0
 40
0
 40
0
 40
0
 40
1
 40
1
 40
1
 40
1
 10
77.792657
 20
61.402757
 30
0.0
 10
77.907056
 20
61.288358
 30
0.0
 10
78.079104
 20
61.254136
 30
0.0
 10
78.228573
 20
61.316048
 30
0.0
  0
SPLINE
  5
18b
100
AcDbEntity
  8
0
 62
7
100
AcDbSpline
 70
8
 71
3
 72
8
 73
4
 74
0
 40
0
 40
0
 40
0
 40
0
 40
1
 40
1
 40
1
 40
1
 10
78.228573
 20
61.316048
 30
0.0
 10
78.378043
 20
61.377961
 30
0.0
 10
78.475500
 20
61.523815
 30
0.0
 10
78.475500
 20
61.685600
 30
0.0
  0
SPLINE
  5
18c
100
AcDbEntity
  8
0
 62
7
100
AcDbSpline
 70
8
 71
3
 72
8
 73
4
 74
0
 40
0
 40
0
 40
0
 40
0
 40
1
 40
1
 40
1
 40
1
 10
78.475500
 20
61.685600
 30
0.0
 10
78.475500
 20
61.791687
 30
0.0
 10
78.433357
 20
61.893428
 30
0.0
 10
78.358343
 20
61.968443
 30
0.0
  0
SPLINE
  5
18d
100
AcDbEntity
  8
0
 62
7
100
AcDbSpline
 70
8
 71
3
 72
8
 73
4
 74
0
 40
0
 40
0
 40
0
 40
0
 40
1
 40
1
 40
1
 40
1
 10
78.358343
 20
61.968443
 30
0.0
 10
78.283328
 20
62.043457
 30
0.0
 10
78.181587
 20
62.085600
 30
0.0
 10
78.075500
 20
62.085600
 30
0.0
  0
LWPOLYLINE
  5
18e
100
AcDbEntity
  8
0
 62
7
100
AcDbPolyline
 90
1
 70
1
 10
76.908800
 20
59.268900
 30
0.0
  0
SPLINE
  5
18f
100
AcDbEntity
  8
0
 62
7
100
AcDbSpline
 70
8
 71
3
 72
8
 73
4
 74
0
 40
0
 40
0
 40
0
 40
0
 40
1
 40
1
 40
1
 40
1
 10
78.075500
 20
59.752200
 30
0.0
 10
77.913715
 20
59.752200
 30
0.0
 10
77.767861
 20
59.654743
 30
0.0
 10
77.705948
 20
59.505273
 30
0.0
  0
SPLINE
  5
190
100
AcDbEntity
  8
0
 62
7
100
AcDbSpline
 70
8
 71
3
 72
8
 73
4
 74
0
 40
0
 40
0
 40
0
 40
0
 40
1
 40
1
 40
1
 40
1
 10
77.705948
 20
59.505273
 30
0.0
 10
77.644036
 20
59.355804
 30
0.0
 10
77.678258
 20
59.183756
 30
0.0
 10
77.792657
 20
59.069357
 30
0.0
  0
SPLINE
  5
191
100
AcDbEntity
  8
0
 62
7
100
AcDbSpline
 70
8
 71
3
 72
8
 73
4
 74
0
 40
0
 40
0
 40
0
 40
0
 40
1
 40
1
 40
1
 40
1
 10
77.792657
 20
59.069357
 30
0.0
 10
77.907056
 20
58.954958
 30
0.0
 10
78.079104
 20
58.920736
 30
0.0
 10
78.228573
 20
58.982648
 30
0.0
  0
SPLINE
  5
192
100
AcDbEntity
  8
0
 62
7
100
AcDbSpline
 70
8
 71
3
 72
8
 73
4
 74
0
 40
0
 40
0
 40
0
 40
0
 40
1
 40
1
 40
1
 40
1
 10
78.228573
 20
58.982648
 30
0.0
 10
78.378043
 20
59.044561
 30
0.0
 10
78.475500
 20
59.190415
 30
0.0
 10
78.475500
 20
59.352200
 30
0.0
  0
SPLINE
  5
193
100
AcDbEntity
  8
0
 62
7
100
AcDbSpline
 70
8
 71
3
 72
8
 73
4
 74
0
 40
0
 40
0
 40
0
 40
0
 40
1
 40
1
 40
1
 40
1
 10
78.475500
 20
59.352200
 30
0.0
 10
78.475500
 20
59.458287
 30
0.0
 10
78.433357
 20
59.560028
 30
0.0
 10
78.358343
 20
59.635043
 30
0.0
  0
SPLINE
  5
194
100
AcDbEntity
  8
0
 62
7
100
AcDbSpline
 70
8
 71
3
 72
8
 73
4
 74
0
 40
0
 40
0
 40
0
 40
0
 40
1
 40
1
 40
1
 40
1
 10
78.358343
 20
59.635043
 30
0.0
 10
78.283328
 20
59.710057
 30
0.0
 10
78.181587
 20
59.752200
 30
0.0
 10
78.075500
 20
59.752200
 30
0.0
  0
LWPOLYLINE
  5
195
100
AcDbEntity
  8
0
 62
7
100
AcDbPolyline
 90
1
 70
1
 10
78.075500
 20
62.085600
 30
0.0
  0
SPLINE
  5
196
100
AcDbEntity
  8
0
 62
7
100
AcDbSpline
 70
8
 71
3
 72
8
 73
4
 74
0
 40
0
 40
0
 40
0
 40
0
 40
1
 40
1
 40
1
 40
1
 10
78.558800
 20
60.918900
 30
0.0
 10
78.397015
 20
60.918900
 30
0.0
 10
78.251161
 20
60.821443
 30
0.0
 10
78.189248
 20
60.671973
 30
0.0
  0
SPLINE
  5
197
100
AcDbEntity
  8
0
 62
7
100
AcDbSpline
 70
8
 71
3
 72
8
 73
4
 74
0
 40
0
 40
0
 40
0
 40
0
 40
1
 40
1
 40
1
 40
1
 10
78.189248
 20
60.671973
 30
0.0
 10
78.127336
 20
60.522504
 30
0.0
 10
78.161558
 20
60.350456
 30
0.0
 10
78.275957
 20
60.236057
 30
0.0
  0
SPLINE
  5
198
100
AcDbEntity
  8
0
 62
7
100
AcDbSpline
 70
8
 71
3
 72
8
 73
4
 74
0
 40
0
 40
0
 40
0
 40
0
 40
1
 40
1
 40
1
 40
1
 10
78.275957
 20
60.236057
 30
0.0
 10
78.390356
 20
60.121658
 30
0.0
 10
78.562404
 20
60.087436
 30
0.0
 10
78.711873
 20
60.149348
 30
0.0
  0
SPLINE
  5
199
100
AcDbEntity
  8
0
 62
7
100
AcDbSpline
 70
8
 71
3
 72
8
 73
4
 74
0
 40
0
 40
0
 40
0
 40
0
 40
1
 40
1
 40
1
 40
1
 10
78.711873
 20
60.149348
 30
0.0
 10
78.861343
 20
60.211261
 30
0.0
 10
78.958800
 20
60.357115
 30
0.0
 10
78.958800
 20
60.518900
 30
0.0
  0
SPLINE
  5
19a
100
AcDbEntity
  8
0
 62
7
100
AcDbSpline
 70
8
 71
3
 72
8
 73
4
 74
0
 40
0
 40
0
 40
0
 40
0
 40
1
 40
1
 40
1
 40
1
 10
78.958800
 20
60.518900
 30
0.0
 10
78.958800
 20
60.624987
 30
0.0
 10
78.916657
 20
60.726728
 30
0.0
 10
78.841643
 20
60.801743
 30
0.0
  0
SPLINE
  5
19b
100
AcDbEntity
  8
0
 62
7
100
AcDbSpline
 70
8
 71
3
 72
8
 73
4
 74
0
 40
0
 40
0
 40
0
 40
0
 40
1
 40
1
 40
1
 40
1
 10
78.841643
 20
60.801743
 30
0.0
 10
78.766628
 20
60.876757
 30
0.0
 10
78.664887
 20
60.918900
 30
0.0
 10
78.558800
 20
60.918900
 30
0.0
  0
LWPOLYLINE
  5
19c
100
AcDbEntity
  8
0
 62
7
100
AcDbPolyline
 90
1
 70
1
 10
78.075500
 20
59.752200
 30
0.0
  0
SPLINE
  5
19d
100
AcDbEntity
  8
0
 62
7
100
AcDbSpline
 70
8
 71
3
 72
8
 73
4
 74
0
 40
0
 40
0
 40
0
 40
0
 40
1
 40
1
 40
1
 40
1
 10
116.375000
 20
35.407600
 30
0.0
 10
116.213215
 20
35.407600
 30
0.0
 10
116.067361
 20
35.310143
 30
0.0
 10
116.005448
 20
35.160673
 30
0.0
  0
SPLINE
  5
19e
100
AcDbEntity
  8
0
 62
7
100
AcDbSpline
 70
8
 71
3
 72
8
 73
4
 74
0
 40
0
 40
0
 40
0
 40
0
 40
1
 40
1
 40
1
 40
1
 10
116.005448
 20
35.160673
 30
0.0
 10
115.943536
 20
35.011204
 30
0.0
 10
115.977758
 20
34.839156
 30
0.0
 10
116.092157
 20
34.724757
 30
0.0
  0
SPLINE
  5
19f
100
AcDbEntity
  8
0
 62
7
100
AcDbSpline
 70
8
 71
3
 72
8
 73
4
 74
0
 40
0
 40
0
 40
0
 40
0
 40
1
 40
1
 40
1
 40
1
 10
116.092157
 20
34.724757
 30
0.0
 10
116.206556
 20
34.610358
 30
0.0
 10
116.378604
 20
34.576136
 30
0.0
 10
116.528073
 20
34.638048
 30
0.0
  0
SPLINE
  5
1a0
100
AcDbEntity
  8
0
 62
7
100
AcDbSpline
 70
8
 71
3
 72
8
 73
4
 74
0
 40
0
 40
0
 40
0
 40
0
 40
1
 40
1
 40
1
 40
1
 10
116.528073
 20
34.638048
 30
0.0
 10
116.677543
 20
34.699961
 30
0.0
 10
116.775000
 20
34.845815
 30
0.0
 10
116.775000
 20
35.007600
 30
0.0
  0
SPLINE
  5
1a1
100
AcDbEntity
  8
0
 62
7
100
AcDbSpline
 70
8
 71
3
 72
8
 73
4
 74
0
 40
0
 40
0
 40
0
 40
0
 40
1
 40
1
 40
1
 40
1
 10
116.775000
 20
35.007600
 30
0.0
 10
116.775000
 20
35.113687
 30
0.0
 10
116.732857
 20
35.215428
 30
0.0
 10
116.657843
 20
35.290443
 30
0.0
  0
SPLINE
  5
1a2
100
AcDbEntity
  8
0
 62
7
100
AcDbSpline
 70
8
 71
3
 72
8
 73
4
 74
0
 40
0
 40
0
 40
0
 40
0
 40
1
 40
1
 40
1
 40
1
 10
116.657843
 20
35.290443
 30
0.0
 10
116.582828
 20
35.365457
 30
0.0
 10
116.481087
 20
35.407600
 30
0.0
 10
116.375000
 20
35.407600
 30
0.0
  0
LWPOLYLINE
  5
1a3
100
AcDbEntity
  8
0
 62
7
100
AcDbPolyline
 90
1
 70
1
 10
78.558800
 20
60.918900
 30
0.0
  0
SPLINE
  5
1a4
100
AcDbEntity
  8
0
 62
7
100
AcDbSpline
 70
8
 71
3
 72
8
 73
4
 74
0
 40
0
 40
0
 40
0
 40
0
 40
1
 40
1
 40
1
 40
1
 10
116.858300
 20
36.574300
 30
0.0
 10
116.696515
 20
36.574300
 30
0.0
 10
116.550661
 20
36.476843
 30
0.0
 10
116.488748
 20
36.327373
 30
0.0
  0
SPLINE
  5
1a5
100
AcDbEntity
  8
0
 62
7
100
AcDbSpline
 70
8
 71
3
 72
8
 73
4
 74
0
 40
0
 40
0
 40
0
 40
0
 40
1
 40
1
 40
1
 40
1
 10
116.488748
 20
36.327373
 30
0.0
 10
116.426836
 20
36.177904
 30
0.0
 10
116.461058
 20
36.005856
 30
0.0
 10
116.575457
 20
35.891457
 30
0.0
  0
SPLINE
  5
1a6
100
AcDbEntity
  8
0
 62
7
100
AcDbSpline
 70
8
 71
3
 72
8
 73
4
 74
0
 40
0
 40
0
 40
0
 40
0
 40
1
 40
1
 40
1
 40
1
 10
116.575457
 20
35.891457
 30
0.0
 10
116.689856
 20
35.777058
 30
0.0
 10
116.861904
 20
35.742836
 30
0.0
 10
117.011373
 20
35.804748
 30
0.0
  0
SPLINE
  5
1a7
100
AcDbEntity
  8
0
 62
7
100
AcDbSpline
 70
8
 71
3
 72
8
 73
4
 74
0
 40
0
 40
0
 40
0
 40
0
 40
1
 40
1
 40
1
 40
1
 10
117.011373
 20
35.804748
 30
0.0
 10
117.160843
 20
35.866661
 30
0.0
 10
117.258300
 20
36.012515
 30
0.0
 10
117.258300
 20
36.174300
 30
0.0
  0
SPLINE
  5
1a8
100
AcDbEntity
  8
0
 62
7
100
AcDbSpline
 70
8
 71
3
 72
8
 73
4
 74
0
 40
0
 40
0
 40
0
 40
0
 40
1
 40
1
 40
1
 40
1
 10
117.258300
 20
36.174300
 30
0.0
 10
117.258300
 20
36.280387
 30
0.0
 10
117.216157
 20
36.382128
 30
0.0
 10
117.141143
 20
36.457143
 30
0.0
  0
SPLINE
  5
1a9
100
AcDbEntity
  8
0
 62
7
100
AcDbSpline
 70
8
 71
3
 72
8
 73
4
 74
0
 40
0
 40
0
 40
0
 40
0
 40
1
 40
1
 40
1
 40
1
 10
117.141143
 20
36.457143
 30
0.0
 10
117.066128
 20
36.532157
 30
0.0
 10
116.964387
 20
36.574300
 30
0.0
 10
116.858300
 20
36.574300
 30
0.0
  0
LWPOLYLINE
  5
1aa
100
AcDbEntity
  8
0
 62
7
100
AcDbPolyline
 90
1
 70
1
 10
116.375000
 20
35.407600
 30
0.0
  0
SPLINE
  5
1ab
100
AcDbEntity
  8
0
 62
7
100
AcDbSpline
 70
8
 71
3
 72
8
 73
4
 74
0
 40
0
 40
0
 40
0
 40
0
 40
1
 40
1
 40
1
 40
1
 10
116.858300
 20
34.240900
 30
0.0
 10
116.696515
 20
34.240900
 30
0.0
 10
116.550661
 20
34.143443
 30
0.0
 10
116.488748
 20
33.993973
 30
0.0
  0
SPLINE
  5
1ac
100
AcDbEntity
  8
0
 62
7
100
AcDbSpline
 70
8
 71
3
 72
8
 73
4
 74
0
 40
0
 40
0
 40
0
 40
0
 40
1
 40
1
 40
1
 40
1
 10
116.488748
 20
33.993973
 30
0.0
 10
116.426836
 20
33.844504
 30
0.0
 10
116.461058
 20
33.672456
 30
0.0
 10
116.575457
 20
33.558057
 30
0.0
  0
SPLINE
  5
1ad
100
AcDbEntity
  8
0
 62
7
100
AcDbSpline
 70
8
 71
3
 72
8
 73
4
 74
0
 40
0
 40
0
 40
0
 40
0
 40
1
 40
1
 40
1
 40
1
 10
116.575457
 20
33.558057
 30
0.0
 10
116.689856
 20
33.443658
 30
0.0
 10
116.861904
 20
33.409436
 30
0.0
 10
117.011373
 20
33.471348
 30
0.0
  0
SPLINE
  5
1ae
100
AcDbEntity
  8
0
 62
7
100
AcDbSpline
 70
8
 71
3
 72
8
 73
4
 74
0
 40
0
 40
0
 40
0
 40
0
 40
1
 40
1
 40
1
 40
1
 10
117.011373
 20
33.471348
 30
0.0
 10
117.160843
 20
33.533261
 30
0.0
 10
117.258300
 20
33.679115
 30
0.0
 10
117.258300
 20
33.840900
 30
0.0
  0
SPLINE
  5
1af
100
AcDbEntity
  8
0
 62
7
100
AcDbSpline
 70
8
 71
3
 72
8
 73
4
 74
0
 40
0
 40
0
 40
0
 40
0
 40
1
 40
1
 40
1
 40
1
 10
117.258300
 20
33.840900
 30
0.0
 10
117.258300
 20
33.946987
 30
0.0
 10
117.216157
 20
34.048728
 30
0.0
 10
117.141143
 20
34.123743
 30
0.0
  0
SPLINE
  5
1b0
100
AcDbEntity
  8
0
 62
7
100
AcDbSpline
 70
8
 71
3
 72
8
 73
4
 74
0
 40
0
 40
0
 40
0
 40
0
 40
1
 40
1
 40
1
 40
1
 10
117.141143
 20
34.123743
 30
0.0
 10
117.066128
 20
34.198757
 30
0.0
 10
116.964387
 20
34.240900
 30
0.0
 10
116.858300
 20
34.240900
 30
0.0
  0
LWPOLYLINE
  5
1b1
100
AcDbEntity
  8
0
 62
7
100
AcDbPolyline
 90
1
 70
1
 10
116.858300
 20
36.574300
 30
0.0
  0
SPLINE
  5
1b2
100
AcDbEntity
  8
0
 62
7
100
AcDbSpline
 70
8
 71
3
 72
8
 73
4
 74
0
 40
0
 40
0
 40
0
 40
0
 40
1
 40
1
 40
1
 40
1
 10
118.025000
 20
37.057600
 30
0.0
 10
117.863215
 20
37.057600
 30
0.0
 10
117.717361
 20
36.960143
 30
0.0
 10
117.655448
 20
36.810673
 30
0.0
  0
SPLINE
  5
1b3
100
AcDbEntity
  8
0
 62
7
100
AcDbSpline
 70
8
 71
3
 72
8
 73
4
 74
0
 40
0
 40
0
 40
0
 40
0
 40
1
 40
1
 40
1
 40
1
 10
117.655448
 20
36.810673
 30
0.0
 10
117.593536
 20
36.661204
 30
0.0
 10
117.627758
 20
36.489156
 30
0.0
 10
117.742157
 20
36.374757
 30
0.0
  0
SPLINE
  5
1b4
100
AcDbEntity
  8
0
 62
7
100
AcDbSpline
 70
8
 71
3
 72
8
 73
4
 74
0
 40
0
 40
0
 40
0
 40
0
 40
1
 40
1
 40
1
 40
1
 10
117.742157
 20
36.374757
 30
0.0
 10
117.856556
 20
36.260358
 30
0.0
 10
118.028604
 20
36.226136
 30
0.0
 10
118.178073
 20
36.288048
 30
0.0
  0
SPLINE
  5
1b5
100
AcDbEntity
  8
0
 62
7
100
AcDbSpline
 70
8
 71
3
 72
8
 73
4
 74
0
 40
0
 40
0
 40
0
 40
0
 40
1
 40
1
 40
1
 40
1
 10
118.178073
 20
36.288048
 30
0.0
 10
118.327543
 20
36.349961
 30
0.0
 10
118.425000
 20
36.495815
 30
0.0
 10
118.425000
 20
36.657600
 30
0.0
  0
SPLINE
  5
1b6
100
AcDbEntity
  8
0
 62
7
100
AcDbSpline
 70
8
 71
3
 72
8
 73
4
 74
0
 40
0
 40
0
 40
0
 40
0
 40
1
 40
1
 40
1
 40
1
 10
118.425000
 20
36.657600
 30
0.0
 10
118.425000
 20
36.763687
 30
0.0
 10
118.382857
 20
36.865428
 30
0.0
 10
118.307843
 20
36.940443
 30
0.0
  0
SPLINE
  5
1b7
100
AcDbEntity
  8
0
 62
7
100
AcDbSpline
 70
8
 71
3
 72
8
 73
4
 74
0
 40
0
 40
0
 40
0
 40
0
 40
1
 40
1
 40
1
 40
1
 10
118.307843
 20
36.940443
 30
0.0
 10
118.232828
 20
37.015457
 30
0.0
 10
118.131087
 20
37.057600
 30
0.0
 10
118.025000
 20
37.057600
 30
0.0
  0
LWPOLYLINE
  5
1b8
100
AcDbEntity
  8
0
 62
7
100
AcDbPolyline
 90
1
 70
1
 10
116.858300
 20
34.240900
 30
0.0
  0
SPLINE
  5
1b9
100
AcDbEntity
  8
0
 62
7
100
AcDbSpline
 70
8
 71
3
 72
8
 73
4
 74
0
 40
0
 40
0
 40
0
 40
0
 40
1
 40
1
 40
1
 40
1
 10
118.025000
 20
37.257600
 30
0.0
 10
117.114960
 20
37.257600
 30
0.0
 10
116.294528
 20
36.709405
 30
0.0
 10
115.946271
 20
35.868638
 30
0.0
  0
SPLINE
  5
1ba
100
AcDbEntity
  8
0
 62
7
100
AcDbSpline
 70
8
 71
3
 72
8
 73
4
 74
0
 40
0
 40
0
 40
0
 40
0
 40
1
 40
1
 40
1
 40
1
 10
115.946271
 20
35.868638
 30
0.0
 10
115.598014
 20
35.027870
 30
0.0
 10
115.790514
 20
34.060105
 30
0.0
 10
116.434010
 20
33.416610
 30
0.0
  0
SPLINE
  5
1bb
100
AcDbEntity
  8
0
 62
7
100
AcDbSpline
 70
8
 71
3
 72
8
 73
4
 74
0
 40
0
 40
0
 40
0
 40
0
 40
1
 40
1
 40
1
 40
1
 10
116.434010
 20
33.416610
 30
0.0
 10
117.077505
 20
32.773114
 30
0.0
 10
118.045270
 20
32.580614
 30
0.0
 10
118.886038
 20
32.928871
 30
0.0
  0
SPLINE
  5
1bc
100
AcDbEntity
  8
0
 62
7
100
AcDbSpline
 70
8
 71
3
 72
8
 73
4
 74
0
 40
0
 40
0
 40
0
 40
0
 40
1
 40
1
 40
1
 40
1
 10
118.886038
 20
32.928871
 30
0.0
 10
119.726805
 20
33.277128
 30
0.0
 10
120.275000
 20
34.097560
 30
0.0
 10
120.275000
 20
35.007600
 30
0.0
  0
SPLINE
  5
1bd
100
AcDbEntity
  8
0
 62
7
100
AcDbSpline
 70
8
 71
3
 72
8
 73
4
 74
0
 40
0
 40
0
 40
0
 40
0
 40
1
 40
1
 40
1
 40
1
 10
120.275000
 20
35.007600
 30
0.0
 10
120.275000
 20
35.604337
 30
0.0
 10
120.037947
 20
36.176633
 30
0.0
 10
119.615990
 20
36.598590
 30
0.0
  0
SPLINE
  5
1be
100
AcDbEntity
  8
0
 62
7
100
AcDbSpline
 70
8
 71
3
 72
8
 73
4
 74
0
 40
0
 40
0
 40
0
 40
0
 40
1
 40
1
 40
1
 40
1
 10
119.615990
 20
36.598590
 30
0.0
 10
119.194033
 20
37.020547
 30
0.0
 10
118.621737
 20
37.257600
 30
0.0
 10
118.025000
 20
37.257600
 30
0.0
  0
LWPOLYLINE
  5
1bf
100
AcDbEntity
  8
0
 62
7
100
AcDbPolyline
 90
1
 70
1
 10
118.025000
 20
37.057600
 30
0.0
  0
SPLINE
  5
1c0
100
AcDbEntity
  8
0
 62
7
100
AcDbSpline
 70
8
 71
3
 72
8
 73
4
 74
0
 40
0
 40
0
 40
0
 40
0
 40
1
 40
1
 40
1
 40
1
 10
118.025000
 20
33.757600
 30
0.0
 10
117.863215
 20
33.757600
 30
0.0
 10
117.717361
 20
33.660143
 30
0.0
 10
117.655448
 20
33.510673
 30
0.0
  0
SPLINE
  5
1c1
100
AcDbEntity
  8
0
 62
7
100
AcDbSpline
 70
8
 71
3
 72
8
 73
4
 74
0
 40
0
 40
0
 40
0
 40
0
 40
1
 40
1
 40
1
 40
1
 10
117.655448
 20
33.510673
 30
0.0
 10
117.593536
 20
33.361204
 30
0.0
 10
117.627758
 20
33.189156
 30
0.0
 10
117.742157
 20
33.074757
 30
0.0
  0
SPLINE
  5
1c2
100
AcDbEntity
  8
0
 62
7
100
AcDbSpline
 70
8
 71
3
 72
8
 73
4
 74
0
 40
0
 40
0
 40
0
 40
0
 40
1
 40
1
 40
1
 40
1
 10
117.742157
 20
33.074757
 30
0.0
 10
117.856556
 20
32.960358
 30
0.0
 10
118.028604
 20
32.926136
 30
0.0
 10
118.178073
 20
32.988048
 30
0.0
  0
SPLINE
  5
1c3
100
AcDbEntity
  8
0
 62
7
100
AcDbSpline
 70
8
 71
3
 72
8
 73
4
 74
0
 40
0
 40
0
 40
0
 40
0
 40
1
 40
1
 40
1
 40
1
 10
118.178073
 20
32.988048
 30
0.0
 10
118.327543
 20
33.049961
 30
0.0
 10
118.425000
 20
33.195815
 30
0.0
 10
118.425000
 20
33.357600
 30
0.0
  0
SPLINE
  5
1c4
100
AcDbEntity
  8
0
 62
7
100
AcDbSpline
 70
8
 71
3
 72
8
 73
4
 74
0
 40
0
 40
0
 40
0
 40
0
 40
1
 40
1
 40
1
 40
1
 10
118.425000
 20
33.357600
 30
0.0
 10
118.425000
 20
33.463687
 30
0.0
 10
118.382857
 20
33.565428
 30
0.0
 10
118.307843
 20
33.640443
 30
0.0
  0
SPLINE
  5
1c5
100
AcDbEntity
  8
0
 62
7
100
AcDbSpline
 70
8
 71
3
 72
8
 73
4
 74
0
 40
0
 40
0
 40
0
 40
0
 40
1
 40
1
 40
1
 40
1
 10
118.307843
 20
33.640443
 30
0.0
 10
118.232828
 20
33.715457
 30
0.0
 10
118.131087
 20
33.757600
 30
0.0
 10
118.025000
 20
33.757600
 30
0.0
  0
LWPOLYLINE
  5
1c6
100
AcDbEntity
  8
0
 62
7
100
AcDbPolyline
 90
1
 70
1
 10
118.025000
 20
37.257600
 30
0.0
  0
SPLINE
  5
1c7
100
AcDbEntity
  8
0
 62
7
100
AcDbSpline
 70
8
 71
3
 72
8
 73
4
 74
0
 40
0
 40
0
 40
0
 40
0
 40
1
 40
1
 40
1
 40
1
 10
119.191700
 20
36.574300
 30
0.0
 10
119.029915
 20
36.574300
 30
0.0
 10
118.884061
 20
36.476843
 30
0.0
 10
118.822148
 20
36.327373
 30
0.0
  0
SPLINE
  5
1c8
100
AcDbEntity
  8
0
 62
7
100
AcDbSpline
 70
8
 71
3
 72
8
 73
4
 74
0
 40
0
 40
0
 40
0
 40
0
 40
1
 40
1
 40
1
 40
1
 10
118.822148
 20
36.327373
 30
0.0
 10
118.760236
 20
36.177904
 30
0.0
 10
118.794458
 20
36.005856
 30
0.0
 10
118.908857
 20
35.891457
 30
0.0
  0
SPLINE
  5
1c9
100
AcDbEntity
  8
0
 62
7
100
AcDbSpline
 70
8
 71
3
 72
8
 73
4
 74
0
 40
0
 40
0
 40
0
 40
0
 40
1
 40
1
 40
1
 40
1
 10
118.908857
 20
35.891457
 30
0.0
 10
119.023256
 20
35.777058
 30
0.0
 10
119.195304
 20
35.742836
 30
0.0
 10
119.344773
 20
35.804748
 30
0.0
  0
SPLINE
  5
1ca
100
AcDbEntity
  8
0
 62
7
100
AcDbSpline
 70
8
 71
3
 72
8
 73
4
 74
0
 40
0
 40
0
 40
0
 40
0
 40
1
 40
1
 40
1
 40
1
 10
119.344773
 20
35.804748
 30
0.0
 10
119.494243
 20
35.866661
 30
0.0
 10
119.591700
 20
36.012515
 30
0.0
 10
119.591700
 20
36.174300
 30
0.0
  0
SPLINE
  5
1cb
100
AcDbEntity
  8
0
 62
7
100
AcDbSpline
 70
8
 71
3
 72
8
 73
4
 74
0
 40
0
 40
0
 40
0
 40
0
 40
1
 40
1
 40
1
 40
1
 10
119.591700
 20
36.174300
 30
0.0
 10
119.591700
 20
36.280387
 30
0.0
 10
119.549557
 20
36.382128
 30
0.0
 10
119.474543
 20
36.457143
 30
0.0
  0
SPLINE
  5
1cc
100
AcDbEntity
  8
0
 62
7
100
AcDbSpline
 70
8
 71
3
 72
8
 73
4
 74
0
 40
0
 40
0
 40
0
 40
0
 40
1
 40
1
 40
1
 40
1
 10
119.474543
 20
36.457143
 30
0.0
 10
119.399528
 20
36.532157
 30
0.0
 10
119.297787
 20
36.574300
 30
0.0
 10
119.191700
 20
36.574300
 30
0.0
  0
LWPOLYLINE
  5
1cd
100
AcDbEntity
  8
0
 62
7
100
AcDbPolyline
 90
1
 70
1
 10
118.025000
 20
33.757600
 30
0.0
  0
SPLINE
  5
1ce
100
AcDbEntity
  8
0
 62
7
100
AcDbSpline
 70
8
 71
3
 72
8
 73
4
 74
0
 40
0
 40
0
 40
0
 40
0
 40
1
 40
1
 40
1
 40
1
 10
119.191700
 20
34.240900
 30
0.0
 10
119.029915
 20
34.240900
 30
0.0
 10
118.884061
 20
34.143443
 30
0.0
 10
118.822148
 20
33.993973
 30
0.0
  0
SPLINE
  5
1cf
100
AcDbEntity
  8
0
 62
7
100
AcDbSpline
 70
8
 71
3
 72
8
 73
4
 74
0
 40
0
 40
0
 40
0
 40
0
 40
1
 40
1
 40
1
 40
1
 10
118.822148
 20
33.993973
 30
0.0
 10
118.760236
 20
33.844504
 30
0.0
 10
118.794458
 20
33.672456
 30
0.0
 10
118.908857
 20
33.558057
 30
0.0
  0
SPLINE
  5
1d0
100
AcDbEntity
  8
0
 62
7
100
AcDbSpline
 70
8
 71
3
 72
8
 73
4
 74
0
 40
0
 40
0
 40
0
 40
0
 40
1
 40
1
 40
1
 40
1
 10
118.908857
 20
33.558057
 30
0.0
 10
119.023256
 20
33.443658
 30
0.0
 10
119.195304
 20
33.409436
 30
0.0
 10
119.344773
 20
33.471348
 30
0.0
  0
SPLINE
  5
1d1
100
AcDbEntity
  8
0
 62
7
100
AcDbSpline
 70
8
 71
3
 72
8
 73
4
 74
0
 40
0
 40
0
 40
0
 40
0
 40
1
 40
1
 40
1
 40
1
 10
119.344773
 20
33.471348
 30
0.0
 10
119.494243
 20
33.533261
 30
0.0
 10
119.591700
 20
33.679115
 30
0.0
 10
119.591700
 20
33.840900
 30
0.0
  0
SPLINE
  5
1d2
100
AcDbEntity
  8
0
 62
7
100
AcDbSpline
 70
8
 71
3
 72
8
 73
4
 74
0
 40
0
 40
0
 40
0
 40
0
 40
1
 40
1
 40
1
 40
1
 10
119.591700
 20
33.840900
 30
0.0
 10
119.591700
 20
33.946987
 30
0.0
 10
119.549557
 20
34.048728
 30
0.0
 10
119.474543
 20
34.123743
 30
0.0
  0
SPLINE
  5
1d3
100
AcDbEntity
  8
0
 62
7
100
AcDbSpline
 70
8
 71
3
 72
8
 73
4
 74
0
 40
0
 40
0
 40
0
 40
0
 40
1
 40
1
 40
1
 40
1
 10
119.474543
 20
34.123743
 30
0.0
 10
119.399528
 20
34.198757
 30
0.0
 10
119.297787
 20
34.240900
 30
0.0
 10
119.191700
 20
34.240900
 30
0.0
  0
LWPOLYLINE
  5
1d4
100
AcDbEntity
  8
0
 62
7
100
AcDbPolyline
 90
1
 70
1
 10
119.191700
 20
36.574300
 30
0.0
  0
SPLINE
  5
1d5
100
AcDbEntity
  8
0
 62
7
100
AcDbSpline
 70
8
 71
3
 72
8
 73
4
 74
0
 40
0
 40
0
 40
0
 40
0
 40
1
 40
1
 40
1
 40
1
 10
119.675000
 20
35.407600
 30
0.0
 10
119.513215
 20
35.407600
 30
0.0
 10
119.367361
 20
35.310143
 30
0.0
 10
119.305448
 20
35.160673
 30
0.0
  0
SPLINE
  5
1d6
100
AcDbEntity
  8
0
 62
7
100
AcDbSpline
 70
8
 71
3
 72
8
 73
4
 74
0
 40
0
 40
0
 40
0
 40
0
 40
1
 40
1
 40
1
 40
1
 10
119.305448
 20
35.160673
 30
0.0
 10
119.243536
 20
35.011204
 30
0.0
 10
119.277758
 20
34.839156
 30
0.0
 10
119.392157
 20
34.724757
 30
0.0
  0
SPLINE
  5
1d7
100
AcDbEntity
  8
0
 62
7
100
AcDbSpline
 70
8
 71
3
 72
8
 73
4
 74
0
 40
0
 40
0
 40
0
 40
0
 40
1
 40
1
 40
1
 40
1
 10
119.392157
 20
34.724757
 30
0.0
 10
119.506556
 20
34.610358
 30
0.0
 10
119.678604
 20
34.576136
 30
0.0
 10
119.828073
 20
34.638048
 30
0.0
  0
SPLINE
  5
1d8
100
AcDbEntity
  8
0
 62
7
100
AcDbSpline
 70
8
 71
3
 72
8
 73
4
 74
0
 40
0
 40
0
 40
0
 40
0
 40
1
 40
1
 40
1
 40
1
 10
119.828073
 20
34.638048
 30
0.0
 10
119.977543
 20
34.699961
 30
0.0
 10
120.075000
 20
34.845815
 30
0.0
 10
120.075000
 20
35.007600
 30
0.0
  0
SPLINE
  5
1d9
100
AcDbEntity
  8
0
 62
7
100
AcDbSpline
 70
8
 71
3
 72
8
 73
4
 74
0
 40
0
 40
0
 40
0
 40
0
 40
1
 40
1
 40
1
 40
1
 10
120.075000
 20
35.007600
 30
0.0
 10
120.075000
 20
35.113687
 30
0.0
 10
120.032857
 20
35.215428
 30
0.0
 10
119.957843
 20
35.290443
 30
0.0
  0
SPLINE
  5
1da
100
AcDbEntity
  8
0
 62
7
100
AcDbSpline
 70
8
 71
3
 72
8
 73
4
 74
0
 40
0
 40
0
 40
0
 40
0
 40
1
 40
1
 40
1
 40
1
 10
119.957843
 20
35.290443
 30
0.0
 10
119.882828
 20
35.365457
 30
0.0
 10
119.781087
 20
35.407600
 30
0.0
 10
119.675000
 20
35.407600
 30
0.0
  0
LWPOLYLINE
  5
1db
100
AcDbEntity
  8
0
 62
7
100
AcDbPolyline
 90
1
 70
1
 10
119.191700
 20
34.240900
 30
0.0
  0
SPLINE
  5
1dc
100
AcDbEntity
  8
0
 62
7
100
AcDbSpline
 70
8
 71
3
 72
8
 73
4
 74
0
 40
0
 40
0
 40
0
 40
0
 40
1
 40
1
 40
1
 40
1
 10
94.258800
 20
22.918900
 30
0.0
 10
94.097015
 20
22.918900
 30
0.0
 10
93.951161
 20
22.821443
 30
0.0
 10
93.889248
 20
22.671973
 30
0.0
  0
SPLINE
  5
1dd
100
AcDbEntity
  8
0
 62
7
100
AcDbSpline
 70
8
 71
3
 72
8
 73
4
 74
0
 40
0
 40
0
 40
0
 40
0
 40
1
 40
1
 40
1
 40
1
 10
93.889248
 20
22.671973
 30
0.0
 10
93.827336
 20
22.522504
 30
0.0
 10
93.861558
 20
22.350456
 30
0.0
 10
93.975957
 20
22.236057
 30
0.0
  0
SPLINE
  5
1de
100
AcDbEntity
  8
0
 62
7
100
AcDbSpline
 70
8
 71
3
 72
8
 73
4
 74
0
 40
0
 40
0
 40
0
 40
0
 40
1
 40
1
 40
1
 40
1
 10
93.975957
 20
22.236057
 30
0.0
 10
94.090356
 20
22.121658
 30
0.0
 10
94.262404
 20
22.087436
 30
0.0
 10
94.411873
 20
22.149348
 30
0.0
  0
SPLINE
  5
1df
100
AcDbEntity
  8
0
 62
7
100
AcDbSpline
 70
8
 71
3
 72
8
 73
4
 74
0
 40
0
 40
0
 40
0
 40
0
 40
1
 40
1
 40
1
 40
1
 10
94.411873
 20
22.149348
 30
0.0
 10
94.561343
 20
22.211261
 30
0.0
 10
94.658800
 20
22.357115
 30
0.0
 10
94.658800
 20
22.518900
 30
0.0
  0
SPLINE
  5
1e0
100
AcDbEntity
  8
0
 62
7
100
AcDbSpline
 70
8
 71
3
 72
8
 73
4
 74
0
 40
0
 40
0
 40
0
 40
0
 40
1
 40
1
 40
1
 40
1
 10
94.658800
 20
22.518900
 30
0.0
 10
94.658800
 20
22.624987
 30
0.0
 10
94.616657
 20
22.726728
 30
0.0
 10
94.541643
 20
22.801743
 30
0.0
  0
SPLINE
  5
1e1
100
AcDbEntity
  8
0
 62
7
100
AcDbSpline
 70
8
 71
3
 72
8
 73
4
 74
0
 40
0
 40
0
 40
0
 40
0
 40
1
 40
1
 40
1
 40
1
 10
94.541643
 20
22.801743
 30
0.0
 10
94.466628
 20
22.876757
 30
0.0
 10
94.364887
 20
22.918900
 30
0.0
 10
94.258800
 20
22.918900
 30
0.0
  0
LWPOLYLINE
  5
1e2
100
AcDbEntity
  8
0
 62
7
100
AcDbPolyline
 90
1
 70
1
 10
119.675000
 20
35.407600
 30
0.0
  0
SPLINE
  5
1e3
100
AcDbEntity
  8
0
 62
7
100
AcDbSpline
 70
8
 71
3
 72
8
 73
4
 74
0
 40
0
 40
0
 40
0
 40
0
 40
1
 40
1
 40
1
 40
1
 10
94.742100
 20
24.085600
 30
0.0
 10
94.521186
 20
24.085600
 30
0.0
 10
94.342100
 20
23.906514
 30
0.0
 10
94.342100
 20
23.685600
 30
0.0
  0
SPLINE
  5
1e4
100
AcDbEntity
  8
0
 62
7
100
AcDbSpline
 70
8
 71
3
 72
8
 73
4
 74
0
 40
0
 40
0
 40
0
 40
0
 40
1
 40
1
 40
1
 40
1
 10
94.342100
 20
23.685600
 30
0.0
 10
94.342100
 20
23.464686
 30
0.0
 10
94.521186
 20
23.285600
 30
0.0
 10
94.742100
 20
23.285600
 30
0.0
  0
SPLINE
  5
1e5
100
AcDbEntity
  8
0
 62
7
100
AcDbSpline
 70
8
 71
3
 72
8
 73
4
 74
0
 40
0
 40
0
 40
0
 40
0
 40
1
 40
1
 40
1
 40
1
 10
94.742100
 20
23.285600
 30
0.0
 10
94.963014
 20
23.285600
 30
0.0
 10
95.142100
 20
23.464686
 30
0.0
 10
95.142100
 20
23.685600
 30
0.0
  0
SPLINE
  5
1e6
100
AcDbEntity
  8
0
 62
7
100
AcDbSpline
 70
8
 71
3
 72
8
 73
4
 74
0
 40
0
 40
0
 40
0
 40
0
 40
1
 40
1
 40
1
 40
1
 10
95.142100
 20
23.685600
 30
0.0
 10
95.142100
 20
23.791687
 30
0.0
 10
95.099957
 20
23.893428
 30
0.0
 10
95.024943
 20
23.968443
 30
0.0
  0
SPLINE
  5
1e7
100
AcDbEntity
  8
0
 62
7
100
AcDbSpline
 70
8
 71
3
 72
8
 73
4
 74
0
 40
0
 40
0
 40
0
 40
0
 40
1
 40
1
 40
1
 40
1
 10
95.024943
 20
23.968443
 30
0.0
 10
94.949928
 20
24.043457
 30
0.0
 10
94.848187
 20
24.085600
 30
0.0
 10
94.742100
 20
24.085600
 30
0.0
  0
LWPOLYLINE
  5
1e8
100
AcDbEntity
  8
0
 62
7
100
AcDbPolyline
 90
1
 70
1
 10
94.258800
 20
22.918900
 30
0.0
  0
SPLINE
  5
1e9
100
AcDbEntity
  8
0
 62
7
100
AcDbSpline
 70
8
 71
3
 72
8
 73
4
 74
0
 40
0
 40
0
 40
0
 40
0
 40
1
 40
1
 40
1
 40
1
 10
94.742100
 20
21.752200
 30
0.0
 10
94.521186
 20
21.752200
 30
0.0
 10
94.342100
 20
21.573114
 30
0.0
 10
94.342100
 20
21.352200
 30
0.0
  0
SPLINE
  5
1ea
100
AcDbEntity
  8
0
 62
7
100
AcDbSpline
 70
8
 71
3
 72
8
 73
4
 74
0
 40
0
 40
0
 40
0
 40
0
 40
1
 40
1
 40
1
 40
1
 10
94.342100
 20
21.352200
 30
0.0
 10
94.342100
 20
21.131286
 30
0.0
 10
94.521186
 20
20.952200
 30
0.0
 10
94.742100
 20
20.952200
 30
0.0
  0
SPLINE
  5
1eb
100
AcDbEntity
  8
0
 62
7
100
AcDbSpline
 70
8
 71
3
 72
8
 73
4
 74
0
 40
0
 40
0
 40
0
 40
0
 40
1
 40
1
 40
1
 40
1
 10
94.742100
 20
20.952200
 30
0.0
 10
94.963014
 20
20.952200
 30
0.0
 10
95.142100
 20
21.131286
 30
0.0
 10
95.142100
 20
21.352200
 30
0.0
  0
SPLINE
  5
1ec
100
AcDbEntity
  8
0
 62
7
100
AcDbSpline
 70
8
 71
3
 72
8
 73
4
 74
0
 40
0
 40
0
 40
0
 40
0
 40
1
 40
1
 40
1
 40
1
 10
95.142100
 20
21.352200
 30
0.0
 10
95.142100
 20
21.458287
 30
0.0
 10
95.099957
 20
21.560028
 30
0.0
 10
95.024943
 20
21.635043
 30
0.0
  0
SPLINE
  5
1ed
100
AcDbEntity
  8
0
 62
7
100
AcDbSpline
 70
8
 71
3
 72
8
 73
4
 74
0
 40
0
 40
0
 40
0
 40
0
 40
1
 40
1
 40
1
 40
1
 10
95.024943
 20
21.635043
 30
0.0
 10
94.949928
 20
21.710057
 30
0.0
 10
94.848187
 20
21.752200
 30
0.0
 10
94.742100
 20
21.752200
 30
0.0
  0
LWPOLYLINE
  5
1ee
100
AcDbEntity
  8
0
 62
7
100
AcDbPolyline
 90
1
 70
1
 10
94.742100
 20
24.085600
 30
0.0
  0
SPLINE
  5
1ef
100
AcDbEntity
  8
0
 62
7
100
AcDbSpline
 70
8
 71
3
 72
8
 73
4
 74
0
 40
0
 40
0
 40
0
 40
0
 40
1
 40
1
 40
1
 40
1
 10
95.908800
 20
24.568900
 30
0.0
 10
95.747015
 20
24.568900
 30
0.0
 10
95.601161
 20
24.471443
 30
0.0
 10
95.539248
 20
24.321973
 30
0.0
  0
SPLINE
  5
1f0
100
AcDbEntity
  8
0
 62
7
100
AcDbSpline
 70
8
 71
3
 72
8
 73
4
 74
0
 40
0
 40
0
 40
0
 40
0
 40
1
 40
1
 40
1
 40
1
 10
95.539248
 20
24.321973
 30
0.0
 10
95.477336
 20
24.172504
 30
0.0
 10
95.511558
 20
24.000456
 30
0.0
 10
95.625957
 20
23.886057
 30
0.0
  0
SPLINE
  5
1f1
100
AcDbEntity
  8
0
 62
7
100
AcDbSpline
 70
8
 71
3
 72
8
 73
4
 74
0
 40
0
 40
0
 40
0
 40
0
 40
1
 40
1
 40
1
 40
1
 10
95.625957
 20
23.886057
 30
0.0
 10
95.740356
 20
23.771658
 30
0.0
 10
95.912404
 20
23.737436
 30
0.0
 10
96.061873
 20
23.799348
 30
0.0
  0
SPLINE
  5
1f2
100
AcDbEntity
  8
0
 62
7
100
AcDbSpline
 70
8
 71
3
 72
8
 73
4
 74
0
 40
0
 40
0
 40
0
 40
0
 40
1
 40
1
 40
1
 40
1
 10
96.061873
 20
23.799348
 30
0.0
 10
96.211343
 20
23.861261
 30
0.0
 10
96.308800
 20
24.007115
 30
0.0
 10
96.308800
 20
24.168900
 30
0.0
  0
SPLINE
  5
1f3
100
AcDbEntity
  8
0
 62
7
100
AcDbSpline
 70
8
 71
3
 72
8
 73
4
 74
0
 40
0
 40
0
 40
0
 40
0
 40
1
 40
1
 40
1
 40
1
 10
96.308800
 20
24.168900
 30
0.0
 10
96.308800
 20
24.274987
 30
0.0
 10
96.266657
 20
24.376728
 30
0.0
 10
96.191643
 20
24.451743
 30
0.0
  0
SPLINE
  5
1f4
100
AcDbEntity
  8
0
 62
7
100
AcDbSpline
 70
8
 71
3
 72
8
 73
4
 74
0
 40
0
 40
0
 40
0
 40
0
 40
1
 40
1
 40
1
 40
1
 10
96.191643
 20
24.451743
 30
0.0
 10
96.116628
 20
24.526757
 30
0.0
 10
96.014887
 20
24.568900
 30
0.0
 10
95.908800
 20
24.568900
 30
0.0
  0
LWPOLYLINE
  5
1f5
100
AcDbEntity
  8
0
 62
7
100
AcDbPolyline
 90
1
 70
1
 10
94.742100
 20
21.752200
 30
0.0
  0
SPLINE
  5
1f6
100
AcDbEntity
  8
0
 62
7
100
AcDbSpline
 70
8
 71
3
 72
8
 73
4
 74
0
 40
0
 40
0
 40
0
 40
0
 40
1
 40
1
 40
1
 40
1
 10
95.908800
 20
24.768900
 30
0.0
 10
94.998760
 20
24.768900
 30
0.0
 10
94.178328
 20
24.220705
 30
0.0
 10
93.830071
 20
23.379938
 30
0.0
  0
SPLINE
  5
1f7
100
AcDbEntity
  8
0
 62
7
100
AcDbSpline
 70
8
 71
3
 72
8
 73
4
 74
0
 40
0
 40
0
 40
0
 40
0
 40
1
 40
1
 40
1
 40
1
 10
93.830071
 20
23.379938
 30
0.0
 10
93.481814
 20
22.539170
 30
0.0
 10
93.674314
 20
21.571405
 30
0.0
 10
94.317810
 20
20.927910
 30
0.0
  0
SPLINE
  5
1f8
100
AcDbEntity
  8
0
 62
7
100
AcDbSpline
 70
8
 71
3
 72
8
 73
4
 74
0
 40
0
 40
0
 40
0
 40
0
 40
1
 40
1
 40
1
 40
1
 10
94.317810
 20
20.927910
 30
0.0
 10
94.961305
 20
20.284414
 30
0.0
 10
95.929070
 20
20.091914
 30
0.0
 10
96.769838
 20
20.440171
 30
0.0
  0
SPLINE
  5
1f9
100
AcDbEntity
  8
0
 62
7
100
AcDbSpline
 70
8
 71
3
 72
8
 73
4
 74
0
 40
0
 40
0
 40
0
 40
0
 40
1
 40
1
 40
1
 40
1
 10
96.769838
 20
20.440171
 30
0.0
 10
97.610605
 20
20.788428
 30
0.0
 10
98.158800
 20
21.608860
 30
0.0
 10
98.158800
 20
22.518900
 30
0.0
  0
SPLINE
  5
1fa
100
AcDbEntity
  8
0
 62
7
100
AcDbSpline
 70
8
 71
3
 72
8
 73
4
 74
0
 40
0
 40
0
 40
0
 40
0
 40
1
 40
1
 40
1
 40
1
 10
98.158800
 20
22.518900
 30
0.0
 10
98.158800
 20
23.115637
 30
0.0
 10
97.921747
 20
23.687933
 30
0.0
 10
97.499790
 20
24.109890
 30
0.0
  0
SPLINE
  5
1fb
100
AcDbEntity
  8
0
 62
7
100
AcDbSpline
 70
8
 71
3
 72
8
 73
4
 74
0
 40
0
 40
0
 40
0
 40
0
 40
1
 40
1
 40
1
 40
1
 10
97.499790
 20
24.109890
 30
0.0
 10
97.077833
 20
24.531847
 30
0.0
 10
96.505537
 20
24.768900
 30
0.0
 10
95.908800
 20
24.768900
 30
0.0
  0
LWPOLYLINE
  5
1fc
100
AcDbEntity
  8
0
 62
7
100
AcDbPolyline
 90
1
 70
1
 10
95.908800
 20
24.568900
 30
0.0
  0
SPLINE
  5
1fd
100
AcDbEntity
  8
0
 62
7
100
AcDbSpline
 70
8
 71
3
 72
8
 73
4
 74
0
 40
0
 40
0
 40
0
 40
0
 40
1
 40
1
 40
1
 40
1
 10
95.908800
 20
21.268900
 30
0.0
 10
95.747015
 20
21.268900
 30
0.0
 10
95.601161
 20
21.171443
 30
0.0
 10
95.539248
 20
21.021973
 30
0.0
  0
SPLINE
  5
1fe
100
AcDbEntity
  8
0
 62
7
100
AcDbSpline
 70
8
 71
3
 72
8
 73
4
 74
0
 40
0
 40
0
 40
0
 40
0
 40
1
 40
1
 40
1
 40
1
 10
95.539248
 20
21.021973
 30
0.0
 10
95.477336
 20
20.872504
 30
0.0
 10
95.511558
 20
20.700456
 30
0.0
 10
95.625957
 20
20.586057
 30
0.0
  0
SPLINE
  5
1ff
100
AcDbEntity
  8
0
 62
7
100
AcDbSpline
 70
8
 71
3
 72
8
 73
4
 74
0
 40
0
 40
0
 40
0
 40
0
 40
1
 40
1
 40
1
 40
1
 10
95.625957
 20
20.586057
 30
0.0
 10
95.740356
 20
20.471658
 30
0.0
 10
95.912404
 20
20.437436
 30
0.0
 10
96.061873
 20
20.499348
 30
0.0
  0
SPLINE
  5
200
100
AcDbEntity
  8
0
 62
7
100
AcDbSpline
 70
8
 71
3
 72
8
 73
4
 74
0
 40
0
 40
0
 40
0
 40
0
 40
1
 40
1
 40
1
 40
1
 10
96.061873
 20
20.499348
 30
0.0
 10
96.211343
 20
20.561261
 30
0.0
 10
96.308800
 20
20.707115
 30
0.0
 10
96.308800
 20
20.868900
 30
0.0
  0
SPLINE
  5
201
100
AcDbEntity
  8
0
 62
7
100
AcDbSpline
 70
8
 71
3
 72
8
 73
4
 74
0
 40
0
 40
0
 40
0
 40
0
 40
1
 40
1
 40
1
 40
1
 10
96.308800
 20
20.868900
 30
0.0
 10
96.308800
 20
20.974987
 30
0.0
 10
96.266657
 20
21.076728
 30
0.0
 10
96.191643
 20
21.151743
 30
0.0
  0
SPLINE
  5
202
100
AcDbEntity
  8
0
 62
7
100
AcDbSpline
 70
8
 71
3
 72
8
 73
4
 74
0
 40
0
 40
0
 40
0
 40
0
 40
1
 40
1
 40
1
 40
1
 10
96.191643
 20
21.151743
 30
0.0
 10
96.116628
 20
21.226757
 30
0.0
 10
96.014887
 20
21.268900
 30
0.0
 10
95.908800
 20
21.268900
 30
0.0
  0
LWPOLYLINE
  5
203
100
AcDbEntity
  8
0
 62
7
100
AcDbPolyline
 90
1
 70
1
 10
95.908800
 20
24.768900
 30
0.0
  0
SPLINE
  5
204
100
AcDbEntity
  8
0
 62
7
100
AcDbSpline
 70
8
 71
3
 72
8
 73
4
 74
0
 40
0
 40
0
 40
0
 40
0
 40
1
 40
1
 40
1
 40
1
 10
97.075500
 20
24.085600
 30
0.0
 10
96.913715
 20
24.085600
 30
0.0
 10
96.767861
 20
23.988143
 30
0.0
 10
96.705948
 20
23.838673
 30
0.0
  0
SPLINE
  5
205
100
AcDbEntity
  8
0
 62
7
100
AcDbSpline
 70
8
 71
3
 72
8
 73
4
 74
0
 40
0
 40
0
 40
0
 40
0
 40
1
 40
1
 40
1
 40
1
 10
96.705948
 20
23.838673
 30
0.0
 10
96.644036
 20
23.689204
 30
0.0
 10
96.678258
 20
23.517156
 30
0.0
 10
96.792657
 20
23.402757
 30
0.0
  0
SPLINE
  5
206
100
AcDbEntity
  8
0
 62
7
100
AcDbSpline
 70
8
 71
3
 72
8
 73
4
 74
0
 40
0
 40
0
 40
0
 40
0
 40
1
 40
1
 40
1
 40
1
 10
96.792657
 20
23.402757
 30
0.0
 10
96.907056
 20
23.288358
 30
0.0
 10
97.079104
 20
23.254136
 30
0.0
 10
97.228573
 20
23.316048
 30
0.0
  0
SPLINE
  5
207
100
AcDbEntity
  8
0
 62
7
100
AcDbSpline
 70
8
 71
3
 72
8
 73
4
 74
0
 40
0
 40
0
 40
0
 40
0
 40
1
 40
1
 40
1
 40
1
 10
97.228573
 20
23.316048
 30
0.0
 10
97.378043
 20
23.377961
 30
0.0
 10
97.475500
 20
23.523815
 30
0.0
 10
97.475500
 20
23.685600
 30
0.0
  0
SPLINE
  5
208
100
AcDbEntity
  8
0
 62
7
100
AcDbSpline
 70
8
 71
3
 72
8
 73
4
 74
0
 40
0
 40
0
 40
0
 40
0
 40
1
 40
1
 40
1
 40
1
 10
97.475500
 20
23.685600
 30
0.0
 10
97.475500
 20
23.791687
 30
0.0
 10
97.433357
 20
23.893428
 30
0.0
 10
97.358343
 20
23.968443
 30
0.0
  0
SPLINE
  5
209
100
AcDbEntity
  8
0
 62
7
100
AcDbSpline
 70
8
 71
3
 72
8
 73
4
 74
0
 40
0
 40
0
 40
0
 40
0
 40
1
 40
1
 40
1
 40
1
 10
97.358343
 20
23.968443
 30
0.0
 10
97.283328
 20
24.043457
 30
0.0
 10
97.181587
 20
24.085600
 30
0.0
 10
97.075500
 20
24.085600
 30
0.0
  0
LWPOLYLINE
  5
20a
100
AcDbEntity
  8
0
 62
7
100
AcDbPolyline
 90
1
 70
1
 10
95.908800
 20
21.268900
 30
0.0
  0
SPLINE
  5
20b
100
AcDbEntity
  8
0
 62
7
100
AcDbSpline
 70
8
 71
3
 72
8
 73
4
 74
0
 40
0
 40
0
 40
0
 40
0
 40
1
 40
1
 40
1
 40
1
 10
97.075500
 20
21.752200
 30
0.0
 10
96.913715
 20
21.752200
 30
0.0
 10
96.767861
 20
21.654743
 30
0.0
 10
96.705948
 20
21.505273
 30
0.0
  0
SPLINE
  5
20c
100
AcDbEntity
  8
0
 62
7
100
AcDbSpline
 70
8
 71
3
 72
8
 73
4
 74
0
 40
0
 40
0
 40
0
 40
0
 40
1
 40
1
 40
1
 40
1
 10
96.705948
 20
21.505273
 30
0.0
 10
96.644036
 20
21.355804
 30
0.0
 10
96.678258
 20
21.183756
 30
0.0
 10
96.792657
 20
21.069357
 30
0.0
  0
SPLINE
  5
20d
100
AcDbEntity
  8
0
 62
7
100
AcDbSpline
 70
8
 71
3
 72
8
 73
4
 74
0
 40
0
 40
0
 40
0
 40
0
 40
1
 40
1
 40
1
 40
1
 10
96.792657
 20
21.069357
 30
0.0
 10
96.907056
 20
20.954958
 30
0.0
 10
97.079104
 20
20.920736
 30
0.0
 10
97.228573
 20
20.982648
 30
0.0
  0
SPLINE
  5
20e
100
AcDbEntity
  8
0
 62
7
100
AcDbSpline
 70
8
 71
3
 72
8
 73
4
 74
0
 40
0
 40
0
 40
0
 40
0
 40
1
 40
1
 40
1
 40
1
 10
97.228573
 20
20.982648
 30
0.0
 10
97.378043
 20
21.044561
 30
0.0
 10
97.475500
 20
21.190415
 30
0.0
 10
97.475500
 20
21.352200
 30
0.0
  0
SPLINE
  5
20f
100
AcDbEntity
  8
0
 62
7
100
AcDbSpline
 70
8
 71
3
 72
8
 73
4
 74
0
 40
0
 40
0
 40
0
 40
0
 40
1
 40
1
 40
1
 40
1
 10
97.475500
 20
21.352200
 30
0.0
 10
97.475500
 20
21.458287
 30
0.0
 10
97.433357
 20
21.560028
 30
0.0
 10
97.358343
 20
21.635043
 30
0.0
  0
SPLINE
  5
210
100
AcDbEntity
  8
0
 62
7
100
AcDbSpline
 70
8
 71
3
 72
8
 73
4
 74
0
 40
0
 40
0
 40
0
 40
0
 40
1
 40
1
 40
1
 40
1
 10
97.358343
 20
21.635043
 30
0.0
 10
97.283328
 20
21.710057
 30
0.0
 10
97.181587
 20
21.752200
 30
0.0
 10
97.075500
 20
21.752200
 30
0.0
  0
LWPOLYLINE
  5
211
100
AcDbEntity
  8
0
 62
7
100
AcDbPolyline
 90
1
 70
1
 10
97.075500
 20
24.085600
 30
0.0
  0
SPLINE
  5
212
100
AcDbEntity
  8
0
 62
7
100
AcDbSpline
 70
8
 71
3
 72
8
 73
4
 74
0
 40
0
 40
0
 40
0
 40
0
 40
1
 40
1
 40
1
 40
1
 10
97.558800
 20
22.918900
 30
0.0
 10
97.397015
 20
22.918900
 30
0.0
 10
97.251161
 20
22.821443
 30
0.0
 10
97.189248
 20
22.671973
 30
0.0
  0
SPLINE
  5
213
100
AcDbEntity
  8
0
 62
7
100
AcDbSpline
 70
8
 71
3
 72
8
 73
4
 74
0
 40
0
 40
0
 40
0
 40
0
 40
1
 40
1
 40
1
 40
1
 10
97.189248
 20
22.671973
 30
0.0
 10
97.127336
 20
22.522504
 30
0.0
 10
97.161558
 20
22.350456
 30
0.0
 10
97.275957
 20
22.236057
 30
0.0
  0
SPLINE
  5
214
100
AcDbEntity
  8
0
 62
7
100
AcDbSpline
 70
8
 71
3
 72
8
 73
4
 74
0
 40
0
 40
0
 40
0
 40
0
 40
1
 40
1
 40
1
 40
1
 10
97.275957
 20
22.236057
 30
0.0
 10
97.390356
 20
22.121658
 30
0.0
 10
97.562404
 20
22.087436
 30
0.0
 10
97.711873
 20
22.149348
 30
0.0
  0
SPLINE
  5
215
100
AcDbEntity
  8
0
 62
7
100
AcDbSpline
 70
8
 71
3
 72
8
 73
4
 74
0
 40
0
 40
0
 40
0
 40
0
 40
1
 40
1
 40
1
 40
1
 10
97.711873
 20
22.149348
 30
0.0
 10
97.861343
 20
22.211261
 30
0.0
 10
97.958800
 20
22.357115
 30
0.0
 10
97.958800
 20
22.518900
 30
0.0
  0
SPLINE
  5
216
100
AcDbEntity
  8
0
 62
7
100
AcDbSpline
 70
8
 71
3
 72
8
 73
4
 74
0
 40
0
 40
0
 40
0
 40
0
 40
1
 40
1
 40
1
 40
1
 10
97.958800
 20
22.518900
 30
0.0
 10
97.958800
 20
22.624987
 30
0.0
 10
97.916657
 20
22.726728
 30
0.0
 10
97.841643
 20
22.801743
 30
0.0
  0
SPLINE
  5
217
100
AcDbEntity
  8
0
 62
7
100
AcDbSpline
 70
8
 71
3
 72
8
 73
4
 74
0
 40
0
 40
0
 40
0
 40
0
 40
1
 40
1
 40
1
 40
1
 10
97.841643
 20
22.801743
 30
0.0
 10
97.766628
 20
22.876757
 30
0.0
 10
97.664887
 20
22.918900
 30
0.0
 10
97.558800
 20
22.918900
 30
0.0
  0
LWPOLYLINE
  5
218
100
AcDbEntity
  8
0
 62
7
100
AcDbPolyline
 90
1
 70
1
 10
97.075500
 20
21.752200
 30
0.0
  0
LWPOLYLINE
  5
219
100
AcDbEntity
  8
0
 62
7
100
AcDbPolyline
 90
1
 70
1
 10
97.558800
 20
22.918900
 30
0.0
  0
LWPOLYLINE
  5
21a
100
AcDbEntity
  8
0
 62
7
100
AcDbPolyline
 90
2
 70
0
 10
78.025000
 20
81.007600
 30
0.0
 10
78.025000
 20
79.007600
 30
0.0
  0
LWPOLYLINE
  5
21b
100
AcDbEntity
  8
0
 62
7
100
AcDbPolyline
 90
2
 70
0
 10
19.025000
 20
79.007600
 30
0.0
 10
19.025000
 20
81.007600
 30
0.0
  0
LWPOLYLINE
  5
21c
100
AcDbEntity
  8
0
 62
7
100
AcDbPolyline
 90
2
 70
0
 10
59.025000
 20
83.007600
 30
0.0
 10
59.025000
 20
81.007600
 30
0.0
  0
LWPOLYLINE
  5
21d
100
AcDbEntity
  8
0
 62
7
100
AcDbPolyline
 90
2
 70
0
 10
128.025000
 20
79.007600
 30
0.0
 10
128.025000
 20
20.007600
 30
0.0
  0
LWPOLYLINE
  5
21e
100
AcDbEntity
  8
0
 62
7
100
AcDbPolyline
 90
2
 70
0
 10
114.025000
 20
0.007600
 30
0.0
 10
76.025000
 20
0.007600
 30
0.0
  0
LWPOLYLINE
  5
21f
100
AcDbEntity
  8
0
 62
7
100
AcDbPolyline
 90
2
 70
0
 10
19.025000
 20
81.007600
 30
0.0
 10
38.025000
 20
81.007600
 30
0.0
  0
LWPOLYLINE
  5
220
100
AcDbEntity
  8
0
 62
7
100
AcDbPolyline
 90
2
 70
0
 10
76.025000
 20
0.007600
 30
0.0
 10
76.025000
 20
2.007600
 30
0.0
  0
LWPOLYLINE
  5
221
100
AcDbEntity
  8
0
 62
7
100
AcDbPolyline
 90
3
 70
0
 10
38.025000
 20
2.007600
 30
0.0
 10
0.025000
 20
20.007600
 30
0.0
 10
0.025000
 20
79.007600
 30
0.0
  0
LWPOLYLINE
  5
222
100
AcDbEntity
  8
0
 62
7
100
AcDbPolyline
 90
2
 70
0
 10
78.025000
 20
79.007600
 30
0.0
 10
128.025000
 20
79.007600
 30
0.0
  0
LWPOLYLINE
  5
223
100
AcDbEntity
  8
0
 62
7
100
AcDbPolyline
 90
3
 70
0
 10
38.025000
 20
81.007600
 30
0.0
 10
38.025000
 20
83.007600
 30
0.0
 10
59.025000
 20
83.007600
 30
0.0
  0
LWPOLYLINE
  5
224
100
AcDbEntity
  8
0
 62
7
100
AcDbPolyline
 90
2
 70
0
 10
128.025000
 20
20.007600
 30
0.0
 10
115.025000
 20
0.007600
 30
0.0
  0
LWPOLYLINE
  5
225
100
AcDbEntity
  8
0
 62
7
100
AcDbPolyline
 90
2
 70
0
 10
114.025000
 20
0.007600
 30
0.0
 10
115.025000
 20
0.007600
 30
0.0
  0
LWPOLYLINE
  5
226
100
AcDbEntity
  8
0
 62
7
100
AcDbPolyline
 90
2
 70
0
 10
0.025000
 20
79.007600
 30
0.0
 10
19.025000
 20
79.007600
 30
0.0
  0
LWPOLYLINE
  5
227
100
AcDbEntity
  8
0
 62
7
100
AcDbPolyline
 90
2
 70
0
 10
59.025000
 20
81.007600
 30
0.0
 10
78.025000
 20
81.007600
 30
0.0
  0
LWPOLYLINE
  5
228
100
AcDbEntity
  8
0
 62
7
100
AcDbPolyline
 90
2
 70
0
 10
76.025000
 20
2.007600
 30
0.0
 10
38.025000
 20
2.007600
 30
0.0
  0
ENDSEC
  0
SECTION
  2
OBJECTS
  0
DICTIONARY
  5
C
330
0
100
AcDbDictionary
  3
ACAD_GROUP
350
D
  3
ACAD_MLINESTYLE
350
17
  0
DICTIONARY
  5
D
330
C
100
AcDbDictionary
  0
DICTIONARY
  5
1A
330
C
100
AcDbDictionary
  0
DICTIONARY
  5
17
330
C
100
AcDbDictionary
  3
STANDARD
350
18
  0
DICTIONARY
  5
19
330
C
100
AcDbDictionary
  0
ENDSEC
  0
EOF
