<?xml version="1.0" standalone="no"?>
 <!DOCTYPE svg PUBLIC "-//W3C//DTD SVG 1.1//EN" 
 "http://www.w3.org/Graphics/SVG/1.1/DTD/svg11.dtd"> 
<svg
  xmlns:svg="http://www.w3.org/2000/svg"
  xmlns="http://www.w3.org/2000/svg"
  xmlns:xlink="http://www.w3.org/1999/xlink"
  version="1.1"
  width="128.0414mm" height="83.0326mm" viewBox="0.0000 0.0000 128.0414 83.0326">
<title>SVG Image created as Glide38_ready_for_manufuncturer-F_Fab.svg date 2024/04/29 22:32:38 </title>
  <desc>Image generated by PCBNEW </desc>
<g style="fill:#000000; fill-opacity:1.0000;stroke:#000000; stroke-opacity:1.0000;
stroke-linecap:round; stroke-linejoin:round;"
 transform="translate(0 0) scale(1 1)">
</g>
<g style="fill:none; 
stroke:#000000; stroke-width:0.1500; stroke-opacity:1; 
stroke-linecap:round; stroke-linejoin:round;">
<text x="121.3063" y="42.0637"
textLength="4.0119" font-size="1.3333" lengthAdjust="spacingAndGlyphs"
text-anchor="middle" opacity="0">OLED</text>
<g class="stroked-text"><desc>OLED</desc>
<path d="M119.8539 41.0185
L120.0444 41.0185
" />
<path d="M120.0444 41.0185
L120.1396 41.0661
" />
<path d="M120.1396 41.0661
L120.2349 41.1614
" />
<path d="M120.2349 41.1614
L120.2825 41.3519
" />
<path d="M120.2825 41.3519
L120.2825 41.6852
" />
<path d="M120.2825 41.6852
L120.2349 41.8757
" />
<path d="M120.2349 41.8757
L120.1396 41.9709
" />
<path d="M120.1396 41.9709
L120.0444 42.0185
" />
<path d="M120.0444 42.0185
L119.8539 42.0185
" />
<path d="M119.8539 42.0185
L119.7587 41.9709
" />
<path d="M119.7587 41.9709
L119.6634 41.8757
" />
<path d="M119.6634 41.8757
L119.6158 41.6852
" />
<path d="M119.6158 41.6852
L119.6158 41.3519
" />
<path d="M119.6158 41.3519
L119.6634 41.1614
" />
<path d="M119.6634 41.1614
L119.7587 41.0661
" />
<path d="M119.7587 41.0661
L119.8539 41.0185
" />
<path d="M121.1873 42.0185
L120.7111 42.0185
" />
<path d="M120.7111 42.0185
L120.7111 41.0185
" />
<path d="M121.5206 41.4947
L121.8539 41.4947
" />
<path d="M121.9968 42.0185
L121.5206 42.0185
" />
<path d="M121.5206 42.0185
L121.5206 41.0185
" />
<path d="M121.5206 41.0185
L121.9968 41.0185
" />
<path d="M122.4253 42.0185
L122.4253 41.0185
" />
<path d="M122.4253 41.0185
L122.6634 41.0185
" />
<path d="M122.6634 41.0185
L122.8063 41.0661
" />
<path d="M122.8063 41.0661
L122.9015 41.1614
" />
<path d="M122.9015 41.1614
L122.9492 41.2566
" />
<path d="M122.9492 41.2566
L122.9968 41.4471
" />
<path d="M122.9968 41.4471
L122.9968 41.5899
" />
<path d="M122.9968 41.5899
L122.9492 41.7804
" />
<path d="M122.9492 41.7804
L122.9015 41.8757
" />
<path d="M122.9015 41.8757
L122.8063 41.9709
" />
<path d="M122.8063 41.9709
L122.6634 42.0185
" />
<path d="M122.6634 42.0185
L122.4253 42.0185
" />
</g><text x="123.6813" y="2.1737"
textLength="16.3929" font-size="1.3333" lengthAdjust="spacingAndGlyphs"
text-anchor="middle" opacity="0">TRRS-PJ-320A-dual</text>
<g class="stroked-text"><desc>TRRS-PJ-320A-dual</desc>
<path d="M115.7051 1.1285
L116.2765 1.1285
" />
<path d="M115.9908 2.1285
L115.9908 1.1285
" />
<path d="M117.1813 2.1285
L116.8480 1.6523
" />
<path d="M116.6099 2.1285
L116.6099 1.1285
" />
<path d="M116.6099 1.1285
L116.9908 1.1285
" />
<path d="M116.9908 1.1285
L117.0861 1.1761
" />
<path d="M117.0861 1.1761
L117.1337 1.2238
" />
<path d="M117.1337 1.2238
L117.1813 1.3190
" />
<path d="M117.1813 1.3190
L117.1813 1.4619
" />
<path d="M117.1813 1.4619
L117.1337 1.5571
" />
<path d="M117.1337 1.5571
L117.0861 1.6047
" />
<path d="M117.0861 1.6047
L116.9908 1.6523
" />
<path d="M116.9908 1.6523
L116.6099 1.6523
" />
<path d="M118.1813 2.1285
L117.8480 1.6523
" />
<path d="M117.6099 2.1285
L117.6099 1.1285
" />
<path d="M117.6099 1.1285
L117.9908 1.1285
" />
<path d="M117.9908 1.1285
L118.0861 1.1761
" />
<path d="M118.0861 1.1761
L118.1337 1.2238
" />
<path d="M118.1337 1.2238
L118.1813 1.3190
" />
<path d="M118.1813 1.3190
L118.1813 1.4619
" />
<path d="M118.1813 1.4619
L118.1337 1.5571
" />
<path d="M118.1337 1.5571
L118.0861 1.6047
" />
<path d="M118.0861 1.6047
L117.9908 1.6523
" />
<path d="M117.9908 1.6523
L117.6099 1.6523
" />
<path d="M118.5623 2.0809
L118.7051 2.1285
" />
<path d="M118.7051 2.1285
L118.9432 2.1285
" />
<path d="M118.9432 2.1285
L119.0384 2.0809
" />
<path d="M119.0384 2.0809
L119.0861 2.0333
" />
<path d="M119.0861 2.0333
L119.1337 1.9380
" />
<path d="M119.1337 1.9380
L119.1337 1.8428
" />
<path d="M119.1337 1.8428
L119.0861 1.7476
" />
<path d="M119.0861 1.7476
L119.0384 1.6999
" />
<path d="M119.0384 1.6999
L118.9432 1.6523
" />
<path d="M118.9432 1.6523
L118.7527 1.6047
" />
<path d="M118.7527 1.6047
L118.6575 1.5571
" />
<path d="M118.6575 1.5571
L118.6099 1.5095
" />
<path d="M118.6099 1.5095
L118.5623 1.4142
" />
<path d="M118.5623 1.4142
L118.5623 1.3190
" />
<path d="M118.5623 1.3190
L118.6099 1.2238
" />
<path d="M118.6099 1.2238
L118.6575 1.1761
" />
<path d="M118.6575 1.1761
L118.7527 1.1285
" />
<path d="M118.7527 1.1285
L118.9908 1.1285
" />
<path d="M118.9908 1.1285
L119.1337 1.1761
" />
<path d="M119.5623 1.7476
L120.3242 1.7476
" />
<path d="M120.8003 2.1285
L120.8003 1.1285
" />
<path d="M120.8003 1.1285
L121.1813 1.1285
" />
<path d="M121.1813 1.1285
L121.2765 1.1761
" />
<path d="M121.2765 1.1761
L121.3242 1.2238
" />
<path d="M121.3242 1.2238
L121.3718 1.3190
" />
<path d="M121.3718 1.3190
L121.3718 1.4619
" />
<path d="M121.3718 1.4619
L121.3242 1.5571
" />
<path d="M121.3242 1.5571
L121.2765 1.6047
" />
<path d="M121.2765 1.6047
L121.1813 1.6523
" />
<path d="M121.1813 1.6523
L120.8003 1.6523
" />
<path d="M122.0861 1.1285
L122.0861 1.8428
" />
<path d="M122.0861 1.8428
L122.0384 1.9857
" />
<path d="M122.0384 1.9857
L121.9432 2.0809
" />
<path d="M121.9432 2.0809
L121.8003 2.1285
" />
<path d="M121.8003 2.1285
L121.7051 2.1285
" />
<path d="M122.5623 1.7476
L123.3242 1.7476
" />
<path d="M123.7051 1.1285
L124.3242 1.1285
" />
<path d="M124.3242 1.1285
L123.9908 1.5095
" />
<path d="M123.9908 1.5095
L124.1337 1.5095
" />
<path d="M124.1337 1.5095
L124.2289 1.5571
" />
<path d="M124.2289 1.5571
L124.2765 1.6047
" />
<path d="M124.2765 1.6047
L124.3242 1.6999
" />
<path d="M124.3242 1.6999
L124.3242 1.9380
" />
<path d="M124.3242 1.9380
L124.2765 2.0333
" />
<path d="M124.2765 2.0333
L124.2289 2.0809
" />
<path d="M124.2289 2.0809
L124.1337 2.1285
" />
<path d="M124.1337 2.1285
L123.8480 2.1285
" />
<path d="M123.8480 2.1285
L123.7527 2.0809
" />
<path d="M123.7527 2.0809
L123.7051 2.0333
" />
<path d="M124.7051 1.2238
L124.7527 1.1761
" />
<path d="M124.7527 1.1761
L124.8480 1.1285
" />
<path d="M124.8480 1.1285
L125.0861 1.1285
" />
<path d="M125.0861 1.1285
L125.1813 1.1761
" />
<path d="M125.1813 1.1761
L125.2289 1.2238
" />
<path d="M125.2289 1.2238
L125.2765 1.3190
" />
<path d="M125.2765 1.3190
L125.2765 1.4142
" />
<path d="M125.2765 1.4142
L125.2289 1.5571
" />
<path d="M125.2289 1.5571
L124.6575 2.1285
" />
<path d="M124.6575 2.1285
L125.2765 2.1285
" />
<path d="M125.8956 1.1285
L125.9908 1.1285
" />
<path d="M125.9908 1.1285
L126.0861 1.1761
" />
<path d="M126.0861 1.1761
L126.1337 1.2238
" />
<path d="M126.1337 1.2238
L126.1813 1.3190
" />
<path d="M126.1813 1.3190
L126.2289 1.5095
" />
<path d="M126.2289 1.5095
L126.2289 1.7476
" />
<path d="M126.2289 1.7476
L126.1813 1.9380
" />
<path d="M126.1813 1.9380
L126.1337 2.0333
" />
<path d="M126.1337 2.0333
L126.0861 2.0809
" />
<path d="M126.0861 2.0809
L125.9908 2.1285
" />
<path d="M125.9908 2.1285
L125.8956 2.1285
" />
<path d="M125.8956 2.1285
L125.8003 2.0809
" />
<path d="M125.8003 2.0809
L125.7527 2.0333
" />
<path d="M125.7527 2.0333
L125.7051 1.9380
" />
<path d="M125.7051 1.9380
L125.6575 1.7476
" />
<path d="M125.6575 1.7476
L125.6575 1.5095
" />
<path d="M125.6575 1.5095
L125.7051 1.3190
" />
<path d="M125.7051 1.3190
L125.7527 1.2238
" />
<path d="M125.7527 1.2238
L125.8003 1.1761
" />
<path d="M125.8003 1.1761
L125.8956 1.1285
" />
<path d="M126.6099 1.8428
L127.0861 1.8428
" />
<path d="M126.5146 2.1285
L126.8480 1.1285
" />
<path d="M126.8480 1.1285
L127.1813 2.1285
" />
<path d="M127.5146 1.7476
L128.2765 1.7476
" />
<path d="M129.1813 2.1285
L129.1813 1.1285
" />
<path d="M129.1813 2.0809
L129.0861 2.1285
" />
<path d="M129.0861 2.1285
L128.8956 2.1285
" />
<path d="M128.8956 2.1285
L128.8003 2.0809
" />
<path d="M128.8003 2.0809
L128.7527 2.0333
" />
<path d="M128.7527 2.0333
L128.7051 1.9380
" />
<path d="M128.7051 1.9380
L128.7051 1.6523
" />
<path d="M128.7051 1.6523
L128.7527 1.5571
" />
<path d="M128.7527 1.5571
L128.8003 1.5095
" />
<path d="M128.8003 1.5095
L128.8956 1.4619
" />
<path d="M128.8956 1.4619
L129.0861 1.4619
" />
<path d="M129.0861 1.4619
L129.1813 1.5095
" />
<path d="M130.0861 1.4619
L130.0861 2.1285
" />
<path d="M129.6575 1.4619
L129.6575 1.9857
" />
<path d="M129.6575 1.9857
L129.7051 2.0809
" />
<path d="M129.7051 2.0809
L129.8003 2.1285
" />
<path d="M129.8003 2.1285
L129.9432 2.1285
" />
<path d="M129.9432 2.1285
L130.0384 2.0809
" />
<path d="M130.0384 2.0809
L130.0861 2.0333
" />
<path d="M130.9908 2.1285
L130.9908 1.6047
" />
<path d="M130.9908 1.6047
L130.9432 1.5095
" />
<path d="M130.9432 1.5095
L130.8480 1.4619
" />
<path d="M130.8480 1.4619
L130.6575 1.4619
" />
<path d="M130.6575 1.4619
L130.5623 1.5095
" />
<path d="M130.9908 2.0809
L130.8956 2.1285
" />
<path d="M130.8956 2.1285
L130.6575 2.1285
" />
<path d="M130.6575 2.1285
L130.5623 2.0809
" />
<path d="M130.5623 2.0809
L130.5146 1.9857
" />
<path d="M130.5146 1.9857
L130.5146 1.8904
" />
<path d="M130.5146 1.8904
L130.5623 1.7952
" />
<path d="M130.5623 1.7952
L130.6575 1.7476
" />
<path d="M130.6575 1.7476
L130.8956 1.7476
" />
<path d="M130.8956 1.7476
L130.9908 1.6999
" />
<path d="M131.6099 2.1285
L131.5146 2.0809
" />
<path d="M131.5146 2.0809
L131.4670 1.9857
" />
<path d="M131.4670 1.9857
L131.4670 1.1285
" />
</g></g>
<g style="fill:none; 
stroke:#000000; stroke-width:0.0500; stroke-opacity:1; 
stroke-linecap:round; stroke-linejoin:round;">
<path d="M78.0250 2.0250
L78.0250 4.0250
" />
<path d="M19.0250 4.0250
L19.0250 2.0250
" />
<path d="M59.0250 0.0250
L59.0250 2.0250
" />
<path d="M128.0250 4.0250
L128.0250 63.0250
" />
<path d="M114.0250 83.0250
L76.0250 83.0250
" />
<path d="M19.0250 2.0250
L38.0250 2.0250
" />
<path d="M76.0250 83.0250
L76.0250 81.0250
" />
<path d="M38.0250 81.0250
L0.0250 63.0250
" />
<path d="M0.0250 63.0250
L0.0250 4.0250
" />
<path d="M78.0250 4.0250
L128.0250 4.0250
" />
<path d="M38.0250 2.0250
L38.0250 0.0250
" />
<path d="M38.0250 0.0250
L59.0250 0.0250
" />
<path d="M128.0250 63.0250
L115.0250 83.0250
" />
<path d="M114.0250 83.0250
L115.0250 83.0250
" />
<path d="M0.0250 4.0250
L19.0250 4.0250
" />
<path d="M59.0250 2.0250
L78.0250 2.0250
" />
<path d="M76.0250 81.0250
L38.0250 81.0250
" />
</g> 
</svg>
