<?xml version="1.0" standalone="no"?>
 <!DOCTYPE svg PUBLIC "-//W3C//DTD SVG 1.1//EN" 
 "http://www.w3.org/Graphics/SVG/1.1/DTD/svg11.dtd"> 
<svg
  xmlns:svg="http://www.w3.org/2000/svg"
  xmlns="http://www.w3.org/2000/svg"
  xmlns:xlink="http://www.w3.org/1999/xlink"
  version="1.1"
  width="128.0414mm" height="83.0326mm" viewBox="0.0000 0.0000 128.0414 83.0326">
<title>SVG Image created as Glide38_ready_for_manufuncturer-F_Silkscreen.svg date 2024/04/29 22:32:38 </title>
  <desc>Image generated by PCBNEW </desc>
<g style="fill:#000000; fill-opacity:1.0000;stroke:#000000; stroke-opacity:1.0000;
stroke-linecap:round; stroke-linejoin:round;"
 transform="translate(0 0) scale(1 1)">
</g>
<g style="fill:none; 
stroke:#000000; stroke-width:0.1500; stroke-opacity:1; 
stroke-linecap:round; stroke-linejoin:round;">
<text x="112.1388" y="33.7087"
textLength="2.6138" font-size="1.0667" lengthAdjust="spacingAndGlyphs"
text-anchor="middle" opacity="0">P07</text>
<g class="stroked-text"><desc>P07</desc>
<path d="M111.1674 33.6710
L111.1674 32.8710
" />
<path d="M111.1674 32.8710
L111.4721 32.8710
" />
<path d="M111.4721 32.8710
L111.5483 32.9091
" />
<path d="M111.5483 32.9091
L111.5864 32.9472
" />
<path d="M111.5864 32.9472
L111.6245 33.0234
" />
<path d="M111.6245 33.0234
L111.6245 33.1377
" />
<path d="M111.6245 33.1377
L111.5864 33.2139
" />
<path d="M111.5864 33.2139
L111.5483 33.2519
" />
<path d="M111.5483 33.2519
L111.4721 33.2900
" />
<path d="M111.4721 33.2900
L111.1674 33.2900
" />
<path d="M112.1198 32.8710
L112.1959 32.8710
" />
<path d="M112.1959 32.8710
L112.2721 32.9091
" />
<path d="M112.2721 32.9091
L112.3102 32.9472
" />
<path d="M112.3102 32.9472
L112.3483 33.0234
" />
<path d="M112.3483 33.0234
L112.3864 33.1758
" />
<path d="M112.3864 33.1758
L112.3864 33.3662
" />
<path d="M112.3864 33.3662
L112.3483 33.5186
" />
<path d="M112.3483 33.5186
L112.3102 33.5948
" />
<path d="M112.3102 33.5948
L112.2721 33.6329
" />
<path d="M112.2721 33.6329
L112.1959 33.6710
" />
<path d="M112.1959 33.6710
L112.1198 33.6710
" />
<path d="M112.1198 33.6710
L112.0436 33.6329
" />
<path d="M112.0436 33.6329
L112.0055 33.5948
" />
<path d="M112.0055 33.5948
L111.9674 33.5186
" />
<path d="M111.9674 33.5186
L111.9293 33.3662
" />
<path d="M111.9293 33.3662
L111.9293 33.1758
" />
<path d="M111.9293 33.1758
L111.9674 33.0234
" />
<path d="M111.9674 33.0234
L112.0055 32.9472
" />
<path d="M112.0055 32.9472
L112.0436 32.9091
" />
<path d="M112.0436 32.9091
L112.1198 32.8710
" />
<path d="M112.6531 32.8710
L113.1864 32.8710
" />
<path d="M113.1864 32.8710
L112.8436 33.6710
" />
</g><text x="112.1388" y="28.6287"
textLength="2.6138" font-size="1.0667" lengthAdjust="spacingAndGlyphs"
text-anchor="middle" opacity="0">P05</text>
<g class="stroked-text"><desc>P05</desc>
<path d="M111.1674 28.5910
L111.1674 27.7910
" />
<path d="M111.1674 27.7910
L111.4721 27.7910
" />
<path d="M111.4721 27.7910
L111.5483 27.8291
" />
<path d="M111.5483 27.8291
L111.5864 27.8672
" />
<path d="M111.5864 27.8672
L111.6245 27.9434
" />
<path d="M111.6245 27.9434
L111.6245 28.0577
" />
<path d="M111.6245 28.0577
L111.5864 28.1339
" />
<path d="M111.5864 28.1339
L111.5483 28.1719
" />
<path d="M111.5483 28.1719
L111.4721 28.2100
" />
<path d="M111.4721 28.2100
L111.1674 28.2100
" />
<path d="M112.1198 27.7910
L112.1959 27.7910
" />
<path d="M112.1959 27.7910
L112.2721 27.8291
" />
<path d="M112.2721 27.8291
L112.3102 27.8672
" />
<path d="M112.3102 27.8672
L112.3483 27.9434
" />
<path d="M112.3483 27.9434
L112.3864 28.0958
" />
<path d="M112.3864 28.0958
L112.3864 28.2862
" />
<path d="M112.3864 28.2862
L112.3483 28.4386
" />
<path d="M112.3483 28.4386
L112.3102 28.5148
" />
<path d="M112.3102 28.5148
L112.2721 28.5529
" />
<path d="M112.2721 28.5529
L112.1959 28.5910
" />
<path d="M112.1959 28.5910
L112.1198 28.5910
" />
<path d="M112.1198 28.5910
L112.0436 28.5529
" />
<path d="M112.0436 28.5529
L112.0055 28.5148
" />
<path d="M112.0055 28.5148
L111.9674 28.4386
" />
<path d="M111.9674 28.4386
L111.9293 28.2862
" />
<path d="M111.9293 28.2862
L111.9293 28.0958
" />
<path d="M111.9293 28.0958
L111.9674 27.9434
" />
<path d="M111.9674 27.9434
L112.0055 27.8672
" />
<path d="M112.0055 27.8672
L112.0436 27.8291
" />
<path d="M112.0436 27.8291
L112.1198 27.7910
" />
<path d="M113.1102 27.7910
L112.7293 27.7910
" />
<path d="M112.7293 27.7910
L112.6912 28.1719
" />
<path d="M112.6912 28.1719
L112.7293 28.1339
" />
<path d="M112.7293 28.1339
L112.8055 28.0958
" />
<path d="M112.8055 28.0958
L112.9959 28.0958
" />
<path d="M112.9959 28.0958
L113.0721 28.1339
" />
<path d="M113.0721 28.1339
L113.1102 28.1719
" />
<path d="M113.1102 28.1719
L113.1483 28.2481
" />
<path d="M113.1483 28.2481
L113.1483 28.4386
" />
<path d="M113.1483 28.4386
L113.1102 28.5148
" />
<path d="M113.1102 28.5148
L113.0721 28.5529
" />
<path d="M113.0721 28.5529
L112.9959 28.5910
" />
<path d="M112.9959 28.5910
L112.8055 28.5910
" />
<path d="M112.8055 28.5910
L112.7293 28.5529
" />
<path d="M112.7293 28.5529
L112.6912 28.5148
" />
</g><text x="112.1388" y="15.9287"
textLength="2.7281" font-size="1.0667" lengthAdjust="spacingAndGlyphs"
text-anchor="middle" opacity="0">GND</text>
<g class="stroked-text"><desc>GND</desc>
<path d="M111.5293 15.1291
L111.4531 15.0910
" />
<path d="M111.4531 15.0910
L111.3388 15.0910
" />
<path d="M111.3388 15.0910
L111.2245 15.1291
" />
<path d="M111.2245 15.1291
L111.1483 15.2053
" />
<path d="M111.1483 15.2053
L111.1102 15.2815
" />
<path d="M111.1102 15.2815
L111.0721 15.4339
" />
<path d="M111.0721 15.4339
L111.0721 15.5481
" />
<path d="M111.0721 15.5481
L111.1102 15.7005
" />
<path d="M111.1102 15.7005
L111.1483 15.7767
" />
<path d="M111.1483 15.7767
L111.2245 15.8529
" />
<path d="M111.2245 15.8529
L111.3388 15.8910
" />
<path d="M111.3388 15.8910
L111.4150 15.8910
" />
<path d="M111.4150 15.8910
L111.5293 15.8529
" />
<path d="M111.5293 15.8529
L111.5674 15.8148
" />
<path d="M111.5674 15.8148
L111.5674 15.5481
" />
<path d="M111.5674 15.5481
L111.4150 15.5481
" />
<path d="M111.9102 15.8910
L111.9102 15.0910
" />
<path d="M111.9102 15.0910
L112.3674 15.8910
" />
<path d="M112.3674 15.8910
L112.3674 15.0910
" />
<path d="M112.7483 15.8910
L112.7483 15.0910
" />
<path d="M112.7483 15.0910
L112.9388 15.0910
" />
<path d="M112.9388 15.0910
L113.0531 15.1291
" />
<path d="M113.0531 15.1291
L113.1293 15.2053
" />
<path d="M113.1293 15.2053
L113.1674 15.2815
" />
<path d="M113.1674 15.2815
L113.2055 15.4339
" />
<path d="M113.2055 15.4339
L113.2055 15.5481
" />
<path d="M113.2055 15.5481
L113.1674 15.7005
" />
<path d="M113.1674 15.7005
L113.1293 15.7767
" />
<path d="M113.1293 15.7767
L113.0531 15.8529
" />
<path d="M113.0531 15.8529
L112.9388 15.8910
" />
<path d="M112.9388 15.8910
L112.7483 15.8910
" />
</g><text x="112.1388" y="10.8487"
textLength="2.6138" font-size="1.0667" lengthAdjust="spacingAndGlyphs"
text-anchor="middle" opacity="0">P01</text>
<g class="stroked-text"><desc>P01</desc>
<path d="M111.1674 10.8110
L111.1674 10.0110
" />
<path d="M111.1674 10.0110
L111.4721 10.0110
" />
<path d="M111.4721 10.0110
L111.5483 10.0491
" />
<path d="M111.5483 10.0491
L111.5864 10.0872
" />
<path d="M111.5864 10.0872
L111.6245 10.1634
" />
<path d="M111.6245 10.1634
L111.6245 10.2777
" />
<path d="M111.6245 10.2777
L111.5864 10.3539
" />
<path d="M111.5864 10.3539
L111.5483 10.3919
" />
<path d="M111.5483 10.3919
L111.4721 10.4300
" />
<path d="M111.4721 10.4300
L111.1674 10.4300
" />
<path d="M112.1198 10.0110
L112.1959 10.0110
" />
<path d="M112.1959 10.0110
L112.2721 10.0491
" />
<path d="M112.2721 10.0491
L112.3102 10.0872
" />
<path d="M112.3102 10.0872
L112.3483 10.1634
" />
<path d="M112.3483 10.1634
L112.3864 10.3158
" />
<path d="M112.3864 10.3158
L112.3864 10.5062
" />
<path d="M112.3864 10.5062
L112.3483 10.6586
" />
<path d="M112.3483 10.6586
L112.3102 10.7348
" />
<path d="M112.3102 10.7348
L112.2721 10.7729
" />
<path d="M112.2721 10.7729
L112.1959 10.8110
" />
<path d="M112.1959 10.8110
L112.1198 10.8110
" />
<path d="M112.1198 10.8110
L112.0436 10.7729
" />
<path d="M112.0436 10.7729
L112.0055 10.7348
" />
<path d="M112.0055 10.7348
L111.9674 10.6586
" />
<path d="M111.9674 10.6586
L111.9293 10.5062
" />
<path d="M111.9293 10.5062
L111.9293 10.3158
" />
<path d="M111.9293 10.3158
L111.9674 10.1634
" />
<path d="M111.9674 10.1634
L112.0055 10.0872
" />
<path d="M112.0055 10.0872
L112.0436 10.0491
" />
<path d="M112.0436 10.0491
L112.1198 10.0110
" />
<path d="M113.1483 10.8110
L112.6912 10.8110
" />
<path d="M112.9198 10.8110
L112.9198 10.0110
" />
<path d="M112.9198 10.0110
L112.8436 10.1253
" />
<path d="M112.8436 10.1253
L112.7674 10.2015
" />
<path d="M112.7674 10.2015
L112.6912 10.2396
" />
</g><text x="102.5388" y="28.6287"
textLength="2.6138" font-size="1.0667" lengthAdjust="spacingAndGlyphs"
text-anchor="middle" opacity="0">P18</text>
<g class="stroked-text"><desc>P18</desc>
<path d="M101.5674 28.5910
L101.5674 27.7910
" />
<path d="M101.5674 27.7910
L101.8721 27.7910
" />
<path d="M101.8721 27.7910
L101.9483 27.8291
" />
<path d="M101.9483 27.8291
L101.9864 27.8672
" />
<path d="M101.9864 27.8672
L102.0245 27.9434
" />
<path d="M102.0245 27.9434
L102.0245 28.0577
" />
<path d="M102.0245 28.0577
L101.9864 28.1339
" />
<path d="M101.9864 28.1339
L101.9483 28.1719
" />
<path d="M101.9483 28.1719
L101.8721 28.2100
" />
<path d="M101.8721 28.2100
L101.5674 28.2100
" />
<path d="M102.7864 28.5910
L102.3293 28.5910
" />
<path d="M102.5578 28.5910
L102.5578 27.7910
" />
<path d="M102.5578 27.7910
L102.4817 27.9053
" />
<path d="M102.4817 27.9053
L102.4055 27.9815
" />
<path d="M102.4055 27.9815
L102.3293 28.0196
" />
<path d="M103.2436 28.1339
L103.1674 28.0958
" />
<path d="M103.1674 28.0958
L103.1293 28.0577
" />
<path d="M103.1293 28.0577
L103.0912 27.9815
" />
<path d="M103.0912 27.9815
L103.0912 27.9434
" />
<path d="M103.0912 27.9434
L103.1293 27.8672
" />
<path d="M103.1293 27.8672
L103.1674 27.8291
" />
<path d="M103.1674 27.8291
L103.2436 27.7910
" />
<path d="M103.2436 27.7910
L103.3959 27.7910
" />
<path d="M103.3959 27.7910
L103.4721 27.8291
" />
<path d="M103.4721 27.8291
L103.5102 27.8672
" />
<path d="M103.5102 27.8672
L103.5483 27.9434
" />
<path d="M103.5483 27.9434
L103.5483 27.9815
" />
<path d="M103.5483 27.9815
L103.5102 28.0577
" />
<path d="M103.5102 28.0577
L103.4721 28.0958
" />
<path d="M103.4721 28.0958
L103.3959 28.1339
" />
<path d="M103.3959 28.1339
L103.2436 28.1339
" />
<path d="M103.2436 28.1339
L103.1674 28.1719
" />
<path d="M103.1674 28.1719
L103.1293 28.2100
" />
<path d="M103.1293 28.2100
L103.0912 28.2862
" />
<path d="M103.0912 28.2862
L103.0912 28.4386
" />
<path d="M103.0912 28.4386
L103.1293 28.5148
" />
<path d="M103.1293 28.5148
L103.1674 28.5529
" />
<path d="M103.1674 28.5529
L103.2436 28.5910
" />
<path d="M103.2436 28.5910
L103.3959 28.5910
" />
<path d="M103.3959 28.5910
L103.4721 28.5529
" />
<path d="M103.4721 28.5529
L103.5102 28.5148
" />
<path d="M103.5102 28.5148
L103.5483 28.4386
" />
<path d="M103.5483 28.4386
L103.5483 28.2862
" />
<path d="M103.5483 28.2862
L103.5102 28.2100
" />
<path d="M103.5102 28.2100
L103.4721 28.1719
" />
<path d="M103.4721 28.1719
L103.3959 28.1339
" />
</g><text x="102.5388" y="23.5487"
textLength="2.6138" font-size="1.0667" lengthAdjust="spacingAndGlyphs"
text-anchor="middle" opacity="0">P20</text>
<g class="stroked-text"><desc>P20</desc>
<path d="M101.5674 23.5110
L101.5674 22.7110
" />
<path d="M101.5674 22.7110
L101.8721 22.7110
" />
<path d="M101.8721 22.7110
L101.9483 22.7491
" />
<path d="M101.9483 22.7491
L101.9864 22.7872
" />
<path d="M101.9864 22.7872
L102.0245 22.8634
" />
<path d="M102.0245 22.8634
L102.0245 22.9777
" />
<path d="M102.0245 22.9777
L101.9864 23.0539
" />
<path d="M101.9864 23.0539
L101.9483 23.0919
" />
<path d="M101.9483 23.0919
L101.8721 23.1300
" />
<path d="M101.8721 23.1300
L101.5674 23.1300
" />
<path d="M102.3293 22.7872
L102.3674 22.7491
" />
<path d="M102.3674 22.7491
L102.4436 22.7110
" />
<path d="M102.4436 22.7110
L102.6340 22.7110
" />
<path d="M102.6340 22.7110
L102.7102 22.7491
" />
<path d="M102.7102 22.7491
L102.7483 22.7872
" />
<path d="M102.7483 22.7872
L102.7864 22.8634
" />
<path d="M102.7864 22.8634
L102.7864 22.9396
" />
<path d="M102.7864 22.9396
L102.7483 23.0539
" />
<path d="M102.7483 23.0539
L102.2912 23.5110
" />
<path d="M102.2912 23.5110
L102.7864 23.5110
" />
<path d="M103.2817 22.7110
L103.3578 22.7110
" />
<path d="M103.3578 22.7110
L103.4340 22.7491
" />
<path d="M103.4340 22.7491
L103.4721 22.7872
" />
<path d="M103.4721 22.7872
L103.5102 22.8634
" />
<path d="M103.5102 22.8634
L103.5483 23.0158
" />
<path d="M103.5483 23.0158
L103.5483 23.2062
" />
<path d="M103.5483 23.2062
L103.5102 23.3586
" />
<path d="M103.5102 23.3586
L103.4721 23.4348
" />
<path d="M103.4721 23.4348
L103.4340 23.4729
" />
<path d="M103.4340 23.4729
L103.3578 23.5110
" />
<path d="M103.3578 23.5110
L103.2817 23.5110
" />
<path d="M103.2817 23.5110
L103.2055 23.4729
" />
<path d="M103.2055 23.4729
L103.1674 23.4348
" />
<path d="M103.1674 23.4348
L103.1293 23.3586
" />
<path d="M103.1293 23.3586
L103.0912 23.2062
" />
<path d="M103.0912 23.2062
L103.0912 23.0158
" />
<path d="M103.0912 23.0158
L103.1293 22.8634
" />
<path d="M103.1293 22.8634
L103.1674 22.7872
" />
<path d="M103.1674 22.7872
L103.2055 22.7491
" />
<path d="M103.2055 22.7491
L103.2817 22.7110
" />
</g><text x="102.5388" y="36.2487"
textLength="2.6138" font-size="1.0667" lengthAdjust="spacingAndGlyphs"
text-anchor="middle" opacity="0">P16</text>
<g class="stroked-text"><desc>P16</desc>
<path d="M101.5674 36.2110
L101.5674 35.4110
" />
<path d="M101.5674 35.4110
L101.8721 35.4110
" />
<path d="M101.8721 35.4110
L101.9483 35.4491
" />
<path d="M101.9483 35.4491
L101.9864 35.4872
" />
<path d="M101.9864 35.4872
L102.0245 35.5634
" />
<path d="M102.0245 35.5634
L102.0245 35.6777
" />
<path d="M102.0245 35.6777
L101.9864 35.7539
" />
<path d="M101.9864 35.7539
L101.9483 35.7919
" />
<path d="M101.9483 35.7919
L101.8721 35.8300
" />
<path d="M101.8721 35.8300
L101.5674 35.8300
" />
<path d="M102.7864 36.2110
L102.3293 36.2110
" />
<path d="M102.5578 36.2110
L102.5578 35.4110
" />
<path d="M102.5578 35.4110
L102.4817 35.5253
" />
<path d="M102.4817 35.5253
L102.4055 35.6015
" />
<path d="M102.4055 35.6015
L102.3293 35.6396
" />
<path d="M103.4721 35.4110
L103.3198 35.4110
" />
<path d="M103.3198 35.4110
L103.2436 35.4491
" />
<path d="M103.2436 35.4491
L103.2055 35.4872
" />
<path d="M103.2055 35.4872
L103.1293 35.6015
" />
<path d="M103.1293 35.6015
L103.0912 35.7539
" />
<path d="M103.0912 35.7539
L103.0912 36.0586
" />
<path d="M103.0912 36.0586
L103.1293 36.1348
" />
<path d="M103.1293 36.1348
L103.1674 36.1729
" />
<path d="M103.1674 36.1729
L103.2436 36.2110
" />
<path d="M103.2436 36.2110
L103.3959 36.2110
" />
<path d="M103.3959 36.2110
L103.4721 36.1729
" />
<path d="M103.4721 36.1729
L103.5102 36.1348
" />
<path d="M103.5102 36.1348
L103.5483 36.0586
" />
<path d="M103.5483 36.0586
L103.5483 35.8681
" />
<path d="M103.5483 35.8681
L103.5102 35.7919
" />
<path d="M103.5102 35.7919
L103.4721 35.7539
" />
<path d="M103.4721 35.7539
L103.3959 35.7158
" />
<path d="M103.3959 35.7158
L103.2436 35.7158
" />
<path d="M103.2436 35.7158
L103.1674 35.7539
" />
<path d="M103.1674 35.7539
L103.1293 35.7919
" />
<path d="M103.1293 35.7919
L103.0912 35.8681
" />
</g><text x="102.5388" y="33.7087"
textLength="2.6138" font-size="1.0667" lengthAdjust="spacingAndGlyphs"
text-anchor="middle" opacity="0">P14</text>
<g class="stroked-text"><desc>P14</desc>
<path d="M101.5674 33.6710
L101.5674 32.8710
" />
<path d="M101.5674 32.8710
L101.8721 32.8710
" />
<path d="M101.8721 32.8710
L101.9483 32.9091
" />
<path d="M101.9483 32.9091
L101.9864 32.9472
" />
<path d="M101.9864 32.9472
L102.0245 33.0234
" />
<path d="M102.0245 33.0234
L102.0245 33.1377
" />
<path d="M102.0245 33.1377
L101.9864 33.2139
" />
<path d="M101.9864 33.2139
L101.9483 33.2519
" />
<path d="M101.9483 33.2519
L101.8721 33.2900
" />
<path d="M101.8721 33.2900
L101.5674 33.2900
" />
<path d="M102.7864 33.6710
L102.3293 33.6710
" />
<path d="M102.5578 33.6710
L102.5578 32.8710
" />
<path d="M102.5578 32.8710
L102.4817 32.9853
" />
<path d="M102.4817 32.9853
L102.4055 33.0615
" />
<path d="M102.4055 33.0615
L102.3293 33.0996
" />
<path d="M103.4721 33.1377
L103.4721 33.6710
" />
<path d="M103.2817 32.8329
L103.0912 33.4043
" />
<path d="M103.0912 33.4043
L103.5864 33.4043
" />
</g><text x="112.1388" y="18.4687"
textLength="2.7281" font-size="1.0667" lengthAdjust="spacingAndGlyphs"
text-anchor="middle" opacity="0">GND</text>
<g class="stroked-text"><desc>GND</desc>
<path d="M111.5293 17.6691
L111.4531 17.6310
" />
<path d="M111.4531 17.6310
L111.3388 17.6310
" />
<path d="M111.3388 17.6310
L111.2245 17.6691
" />
<path d="M111.2245 17.6691
L111.1483 17.7453
" />
<path d="M111.1483 17.7453
L111.1102 17.8215
" />
<path d="M111.1102 17.8215
L111.0721 17.9739
" />
<path d="M111.0721 17.9739
L111.0721 18.0881
" />
<path d="M111.0721 18.0881
L111.1102 18.2405
" />
<path d="M111.1102 18.2405
L111.1483 18.3167
" />
<path d="M111.1483 18.3167
L111.2245 18.3929
" />
<path d="M111.2245 18.3929
L111.3388 18.4310
" />
<path d="M111.3388 18.4310
L111.4150 18.4310
" />
<path d="M111.4150 18.4310
L111.5293 18.3929
" />
<path d="M111.5293 18.3929
L111.5674 18.3548
" />
<path d="M111.5674 18.3548
L111.5674 18.0881
" />
<path d="M111.5674 18.0881
L111.4150 18.0881
" />
<path d="M111.9102 18.4310
L111.9102 17.6310
" />
<path d="M111.9102 17.6310
L112.3674 18.4310
" />
<path d="M112.3674 18.4310
L112.3674 17.6310
" />
<path d="M112.7483 18.4310
L112.7483 17.6310
" />
<path d="M112.7483 17.6310
L112.9388 17.6310
" />
<path d="M112.9388 17.6310
L113.0531 17.6691
" />
<path d="M113.0531 17.6691
L113.1293 17.7453
" />
<path d="M113.1293 17.7453
L113.1674 17.8215
" />
<path d="M113.1674 17.8215
L113.2055 17.9739
" />
<path d="M113.2055 17.9739
L113.2055 18.0881
" />
<path d="M113.2055 18.0881
L113.1674 18.2405
" />
<path d="M113.1674 18.2405
L113.1293 18.3167
" />
<path d="M113.1293 18.3167
L113.0531 18.3929
" />
<path d="M113.0531 18.3929
L112.9388 18.4310
" />
<path d="M112.9388 18.4310
L112.7483 18.4310
" />
</g><text x="112.1388" y="38.7887"
textLength="2.6138" font-size="1.0667" lengthAdjust="spacingAndGlyphs"
text-anchor="middle" opacity="0">P09</text>
<g class="stroked-text"><desc>P09</desc>
<path d="M111.1674 38.7510
L111.1674 37.9510
" />
<path d="M111.1674 37.9510
L111.4721 37.9510
" />
<path d="M111.4721 37.9510
L111.5483 37.9891
" />
<path d="M111.5483 37.9891
L111.5864 38.0272
" />
<path d="M111.5864 38.0272
L111.6245 38.1034
" />
<path d="M111.6245 38.1034
L111.6245 38.2177
" />
<path d="M111.6245 38.2177
L111.5864 38.2939
" />
<path d="M111.5864 38.2939
L111.5483 38.3319
" />
<path d="M111.5483 38.3319
L111.4721 38.3700
" />
<path d="M111.4721 38.3700
L111.1674 38.3700
" />
<path d="M112.1198 37.9510
L112.1959 37.9510
" />
<path d="M112.1959 37.9510
L112.2721 37.9891
" />
<path d="M112.2721 37.9891
L112.3102 38.0272
" />
<path d="M112.3102 38.0272
L112.3483 38.1034
" />
<path d="M112.3483 38.1034
L112.3864 38.2558
" />
<path d="M112.3864 38.2558
L112.3864 38.4462
" />
<path d="M112.3864 38.4462
L112.3483 38.5986
" />
<path d="M112.3483 38.5986
L112.3102 38.6748
" />
<path d="M112.3102 38.6748
L112.2721 38.7129
" />
<path d="M112.2721 38.7129
L112.1959 38.7510
" />
<path d="M112.1959 38.7510
L112.1198 38.7510
" />
<path d="M112.1198 38.7510
L112.0436 38.7129
" />
<path d="M112.0436 38.7129
L112.0055 38.6748
" />
<path d="M112.0055 38.6748
L111.9674 38.5986
" />
<path d="M111.9674 38.5986
L111.9293 38.4462
" />
<path d="M111.9293 38.4462
L111.9293 38.2558
" />
<path d="M111.9293 38.2558
L111.9674 38.1034
" />
<path d="M111.9674 38.1034
L112.0055 38.0272
" />
<path d="M112.0055 38.0272
L112.0436 37.9891
" />
<path d="M112.0436 37.9891
L112.1198 37.9510
" />
<path d="M112.7674 38.7510
L112.9198 38.7510
" />
<path d="M112.9198 38.7510
L112.9959 38.7129
" />
<path d="M112.9959 38.7129
L113.0340 38.6748
" />
<path d="M113.0340 38.6748
L113.1102 38.5605
" />
<path d="M113.1102 38.5605
L113.1483 38.4081
" />
<path d="M113.1483 38.4081
L113.1483 38.1034
" />
<path d="M113.1483 38.1034
L113.1102 38.0272
" />
<path d="M113.1102 38.0272
L113.0721 37.9891
" />
<path d="M113.0721 37.9891
L112.9959 37.9510
" />
<path d="M112.9959 37.9510
L112.8436 37.9510
" />
<path d="M112.8436 37.9510
L112.7674 37.9891
" />
<path d="M112.7674 37.9891
L112.7293 38.0272
" />
<path d="M112.7293 38.0272
L112.6912 38.1034
" />
<path d="M112.6912 38.1034
L112.6912 38.2939
" />
<path d="M112.6912 38.2939
L112.7293 38.3700
" />
<path d="M112.7293 38.3700
L112.7674 38.4081
" />
<path d="M112.7674 38.4081
L112.8436 38.4462
" />
<path d="M112.8436 38.4462
L112.9959 38.4462
" />
<path d="M112.9959 38.4462
L113.0721 38.4081
" />
<path d="M113.0721 38.4081
L113.1102 38.3700
" />
<path d="M113.1102 38.3700
L113.1483 38.2939
" />
</g><text x="102.5388" y="31.1687"
textLength="2.6138" font-size="1.0667" lengthAdjust="spacingAndGlyphs"
text-anchor="middle" opacity="0">P15</text>
<g class="stroked-text"><desc>P15</desc>
<path d="M101.5674 31.1310
L101.5674 30.3310
" />
<path d="M101.5674 30.3310
L101.8721 30.3310
" />
<path d="M101.8721 30.3310
L101.9483 30.3691
" />
<path d="M101.9483 30.3691
L101.9864 30.4072
" />
<path d="M101.9864 30.4072
L102.0245 30.4834
" />
<path d="M102.0245 30.4834
L102.0245 30.5977
" />
<path d="M102.0245 30.5977
L101.9864 30.6739
" />
<path d="M101.9864 30.6739
L101.9483 30.7119
" />
<path d="M101.9483 30.7119
L101.8721 30.7500
" />
<path d="M101.8721 30.7500
L101.5674 30.7500
" />
<path d="M102.7864 31.1310
L102.3293 31.1310
" />
<path d="M102.5578 31.1310
L102.5578 30.3310
" />
<path d="M102.5578 30.3310
L102.4817 30.4453
" />
<path d="M102.4817 30.4453
L102.4055 30.5215
" />
<path d="M102.4055 30.5215
L102.3293 30.5596
" />
<path d="M103.5102 30.3310
L103.1293 30.3310
" />
<path d="M103.1293 30.3310
L103.0912 30.7119
" />
<path d="M103.0912 30.7119
L103.1293 30.6739
" />
<path d="M103.1293 30.6739
L103.2055 30.6358
" />
<path d="M103.2055 30.6358
L103.3959 30.6358
" />
<path d="M103.3959 30.6358
L103.4721 30.6739
" />
<path d="M103.4721 30.6739
L103.5102 30.7119
" />
<path d="M103.5102 30.7119
L103.5483 30.7881
" />
<path d="M103.5483 30.7881
L103.5483 30.9786
" />
<path d="M103.5483 30.9786
L103.5102 31.0548
" />
<path d="M103.5102 31.0548
L103.4721 31.0929
" />
<path d="M103.4721 31.0929
L103.3959 31.1310
" />
<path d="M103.3959 31.1310
L103.2055 31.1310
" />
<path d="M103.2055 31.1310
L103.1293 31.0929
" />
<path d="M103.1293 31.0929
L103.0912 31.0548
" />
</g><text x="102.5388" y="15.9287"
textLength="2.4614" font-size="1.0667" lengthAdjust="spacingAndGlyphs"
text-anchor="middle" opacity="0">RST</text>
<g class="stroked-text"><desc>RST</desc>
<path d="M102.1007 15.8910
L101.8340 15.5100
" />
<path d="M101.6436 15.8910
L101.6436 15.0910
" />
<path d="M101.6436 15.0910
L101.9483 15.0910
" />
<path d="M101.9483 15.0910
L102.0245 15.1291
" />
<path d="M102.0245 15.1291
L102.0626 15.1672
" />
<path d="M102.0626 15.1672
L102.1007 15.2434
" />
<path d="M102.1007 15.2434
L102.1007 15.3577
" />
<path d="M102.1007 15.3577
L102.0626 15.4339
" />
<path d="M102.0626 15.4339
L102.0245 15.4719
" />
<path d="M102.0245 15.4719
L101.9483 15.5100
" />
<path d="M101.9483 15.5100
L101.6436 15.5100
" />
<path d="M102.4055 15.8529
L102.5198 15.8910
" />
<path d="M102.5198 15.8910
L102.7102 15.8910
" />
<path d="M102.7102 15.8910
L102.7864 15.8529
" />
<path d="M102.7864 15.8529
L102.8245 15.8148
" />
<path d="M102.8245 15.8148
L102.8626 15.7386
" />
<path d="M102.8626 15.7386
L102.8626 15.6624
" />
<path d="M102.8626 15.6624
L102.8245 15.5862
" />
<path d="M102.8245 15.5862
L102.7864 15.5481
" />
<path d="M102.7864 15.5481
L102.7102 15.5100
" />
<path d="M102.7102 15.5100
L102.5578 15.4719
" />
<path d="M102.5578 15.4719
L102.4817 15.4339
" />
<path d="M102.4817 15.4339
L102.4436 15.3958
" />
<path d="M102.4436 15.3958
L102.4055 15.3196
" />
<path d="M102.4055 15.3196
L102.4055 15.2434
" />
<path d="M102.4055 15.2434
L102.4436 15.1672
" />
<path d="M102.4436 15.1672
L102.4817 15.1291
" />
<path d="M102.4817 15.1291
L102.5578 15.0910
" />
<path d="M102.5578 15.0910
L102.7483 15.0910
" />
<path d="M102.7483 15.0910
L102.8626 15.1291
" />
<path d="M103.0912 15.0910
L103.5483 15.0910
" />
<path d="M103.3198 15.8910
L103.3198 15.0910
" />
</g><text x="112.1388" y="21.0087"
textLength="2.6138" font-size="1.0667" lengthAdjust="spacingAndGlyphs"
text-anchor="middle" opacity="0">P02</text>
<g class="stroked-text"><desc>P02</desc>
<path d="M111.1674 20.9710
L111.1674 20.1710
" />
<path d="M111.1674 20.1710
L111.4721 20.1710
" />
<path d="M111.4721 20.1710
L111.5483 20.2091
" />
<path d="M111.5483 20.2091
L111.5864 20.2472
" />
<path d="M111.5864 20.2472
L111.6245 20.3234
" />
<path d="M111.6245 20.3234
L111.6245 20.4377
" />
<path d="M111.6245 20.4377
L111.5864 20.5139
" />
<path d="M111.5864 20.5139
L111.5483 20.5519
" />
<path d="M111.5483 20.5519
L111.4721 20.5900
" />
<path d="M111.4721 20.5900
L111.1674 20.5900
" />
<path d="M112.1198 20.1710
L112.1959 20.1710
" />
<path d="M112.1959 20.1710
L112.2721 20.2091
" />
<path d="M112.2721 20.2091
L112.3102 20.2472
" />
<path d="M112.3102 20.2472
L112.3483 20.3234
" />
<path d="M112.3483 20.3234
L112.3864 20.4758
" />
<path d="M112.3864 20.4758
L112.3864 20.6662
" />
<path d="M112.3864 20.6662
L112.3483 20.8186
" />
<path d="M112.3483 20.8186
L112.3102 20.8948
" />
<path d="M112.3102 20.8948
L112.2721 20.9329
" />
<path d="M112.2721 20.9329
L112.1959 20.9710
" />
<path d="M112.1959 20.9710
L112.1198 20.9710
" />
<path d="M112.1198 20.9710
L112.0436 20.9329
" />
<path d="M112.0436 20.9329
L112.0055 20.8948
" />
<path d="M112.0055 20.8948
L111.9674 20.8186
" />
<path d="M111.9674 20.8186
L111.9293 20.6662
" />
<path d="M111.9293 20.6662
L111.9293 20.4758
" />
<path d="M111.9293 20.4758
L111.9674 20.3234
" />
<path d="M111.9674 20.3234
L112.0055 20.2472
" />
<path d="M112.0055 20.2472
L112.0436 20.2091
" />
<path d="M112.0436 20.2091
L112.1198 20.1710
" />
<path d="M112.6912 20.2472
L112.7293 20.2091
" />
<path d="M112.7293 20.2091
L112.8055 20.1710
" />
<path d="M112.8055 20.1710
L112.9959 20.1710
" />
<path d="M112.9959 20.1710
L113.0721 20.2091
" />
<path d="M113.0721 20.2091
L113.1102 20.2472
" />
<path d="M113.1102 20.2472
L113.1483 20.3234
" />
<path d="M113.1483 20.3234
L113.1483 20.3996
" />
<path d="M113.1483 20.3996
L113.1102 20.5139
" />
<path d="M113.1102 20.5139
L112.6531 20.9710
" />
<path d="M112.6531 20.9710
L113.1483 20.9710
" />
</g><text x="112.1388" y="13.3887"
textLength="2.6138" font-size="1.0667" lengthAdjust="spacingAndGlyphs"
text-anchor="middle" opacity="0">P00</text>
<g class="stroked-text"><desc>P00</desc>
<path d="M111.1674 13.3510
L111.1674 12.5510
" />
<path d="M111.1674 12.5510
L111.4721 12.5510
" />
<path d="M111.4721 12.5510
L111.5483 12.5891
" />
<path d="M111.5483 12.5891
L111.5864 12.6272
" />
<path d="M111.5864 12.6272
L111.6245 12.7034
" />
<path d="M111.6245 12.7034
L111.6245 12.8177
" />
<path d="M111.6245 12.8177
L111.5864 12.8939
" />
<path d="M111.5864 12.8939
L111.5483 12.9319
" />
<path d="M111.5483 12.9319
L111.4721 12.9700
" />
<path d="M111.4721 12.9700
L111.1674 12.9700
" />
<path d="M112.1198 12.5510
L112.1959 12.5510
" />
<path d="M112.1959 12.5510
L112.2721 12.5891
" />
<path d="M112.2721 12.5891
L112.3102 12.6272
" />
<path d="M112.3102 12.6272
L112.3483 12.7034
" />
<path d="M112.3483 12.7034
L112.3864 12.8558
" />
<path d="M112.3864 12.8558
L112.3864 13.0462
" />
<path d="M112.3864 13.0462
L112.3483 13.1986
" />
<path d="M112.3483 13.1986
L112.3102 13.2748
" />
<path d="M112.3102 13.2748
L112.2721 13.3129
" />
<path d="M112.2721 13.3129
L112.1959 13.3510
" />
<path d="M112.1959 13.3510
L112.1198 13.3510
" />
<path d="M112.1198 13.3510
L112.0436 13.3129
" />
<path d="M112.0436 13.3129
L112.0055 13.2748
" />
<path d="M112.0055 13.2748
L111.9674 13.1986
" />
<path d="M111.9674 13.1986
L111.9293 13.0462
" />
<path d="M111.9293 13.0462
L111.9293 12.8558
" />
<path d="M111.9293 12.8558
L111.9674 12.7034
" />
<path d="M111.9674 12.7034
L112.0055 12.6272
" />
<path d="M112.0055 12.6272
L112.0436 12.5891
" />
<path d="M112.0436 12.5891
L112.1198 12.5510
" />
<path d="M112.8817 12.5510
L112.9578 12.5510
" />
<path d="M112.9578 12.5510
L113.0340 12.5891
" />
<path d="M113.0340 12.5891
L113.0721 12.6272
" />
<path d="M113.0721 12.6272
L113.1102 12.7034
" />
<path d="M113.1102 12.7034
L113.1483 12.8558
" />
<path d="M113.1483 12.8558
L113.1483 13.0462
" />
<path d="M113.1483 13.0462
L113.1102 13.1986
" />
<path d="M113.1102 13.1986
L113.0721 13.2748
" />
<path d="M113.0721 13.2748
L113.0340 13.3129
" />
<path d="M113.0340 13.3129
L112.9578 13.3510
" />
<path d="M112.9578 13.3510
L112.8817 13.3510
" />
<path d="M112.8817 13.3510
L112.8055 13.3129
" />
<path d="M112.8055 13.3129
L112.7674 13.2748
" />
<path d="M112.7674 13.2748
L112.7293 13.1986
" />
<path d="M112.7293 13.1986
L112.6912 13.0462
" />
<path d="M112.6912 13.0462
L112.6912 12.8558
" />
<path d="M112.6912 12.8558
L112.7293 12.7034
" />
<path d="M112.7293 12.7034
L112.7674 12.6272
" />
<path d="M112.7674 12.6272
L112.8055 12.5891
" />
<path d="M112.8055 12.5891
L112.8817 12.5510
" />
</g><text x="112.1388" y="26.0887"
textLength="2.6138" font-size="1.0667" lengthAdjust="spacingAndGlyphs"
text-anchor="middle" opacity="0">P04</text>
<g class="stroked-text"><desc>P04</desc>
<path d="M111.1674 26.0510
L111.1674 25.2510
" />
<path d="M111.1674 25.2510
L111.4721 25.2510
" />
<path d="M111.4721 25.2510
L111.5483 25.2891
" />
<path d="M111.5483 25.2891
L111.5864 25.3272
" />
<path d="M111.5864 25.3272
L111.6245 25.4034
" />
<path d="M111.6245 25.4034
L111.6245 25.5177
" />
<path d="M111.6245 25.5177
L111.5864 25.5939
" />
<path d="M111.5864 25.5939
L111.5483 25.6319
" />
<path d="M111.5483 25.6319
L111.4721 25.6700
" />
<path d="M111.4721 25.6700
L111.1674 25.6700
" />
<path d="M112.1198 25.2510
L112.1959 25.2510
" />
<path d="M112.1959 25.2510
L112.2721 25.2891
" />
<path d="M112.2721 25.2891
L112.3102 25.3272
" />
<path d="M112.3102 25.3272
L112.3483 25.4034
" />
<path d="M112.3483 25.4034
L112.3864 25.5558
" />
<path d="M112.3864 25.5558
L112.3864 25.7462
" />
<path d="M112.3864 25.7462
L112.3483 25.8986
" />
<path d="M112.3483 25.8986
L112.3102 25.9748
" />
<path d="M112.3102 25.9748
L112.2721 26.0129
" />
<path d="M112.2721 26.0129
L112.1959 26.0510
" />
<path d="M112.1959 26.0510
L112.1198 26.0510
" />
<path d="M112.1198 26.0510
L112.0436 26.0129
" />
<path d="M112.0436 26.0129
L112.0055 25.9748
" />
<path d="M112.0055 25.9748
L111.9674 25.8986
" />
<path d="M111.9674 25.8986
L111.9293 25.7462
" />
<path d="M111.9293 25.7462
L111.9293 25.5558
" />
<path d="M111.9293 25.5558
L111.9674 25.4034
" />
<path d="M111.9674 25.4034
L112.0055 25.3272
" />
<path d="M112.0055 25.3272
L112.0436 25.2891
" />
<path d="M112.0436 25.2891
L112.1198 25.2510
" />
<path d="M113.0721 25.5177
L113.0721 26.0510
" />
<path d="M112.8817 25.2129
L112.6912 25.7843
" />
<path d="M112.6912 25.7843
L113.1864 25.7843
" />
</g><text x="112.1388" y="23.5487"
textLength="2.6138" font-size="1.0667" lengthAdjust="spacingAndGlyphs"
text-anchor="middle" opacity="0">P03</text>
<g class="stroked-text"><desc>P03</desc>
<path d="M111.1674 23.5110
L111.1674 22.7110
" />
<path d="M111.1674 22.7110
L111.4721 22.7110
" />
<path d="M111.4721 22.7110
L111.5483 22.7491
" />
<path d="M111.5483 22.7491
L111.5864 22.7872
" />
<path d="M111.5864 22.7872
L111.6245 22.8634
" />
<path d="M111.6245 22.8634
L111.6245 22.9777
" />
<path d="M111.6245 22.9777
L111.5864 23.0539
" />
<path d="M111.5864 23.0539
L111.5483 23.0919
" />
<path d="M111.5483 23.0919
L111.4721 23.1300
" />
<path d="M111.4721 23.1300
L111.1674 23.1300
" />
<path d="M112.1198 22.7110
L112.1959 22.7110
" />
<path d="M112.1959 22.7110
L112.2721 22.7491
" />
<path d="M112.2721 22.7491
L112.3102 22.7872
" />
<path d="M112.3102 22.7872
L112.3483 22.8634
" />
<path d="M112.3483 22.8634
L112.3864 23.0158
" />
<path d="M112.3864 23.0158
L112.3864 23.2062
" />
<path d="M112.3864 23.2062
L112.3483 23.3586
" />
<path d="M112.3483 23.3586
L112.3102 23.4348
" />
<path d="M112.3102 23.4348
L112.2721 23.4729
" />
<path d="M112.2721 23.4729
L112.1959 23.5110
" />
<path d="M112.1959 23.5110
L112.1198 23.5110
" />
<path d="M112.1198 23.5110
L112.0436 23.4729
" />
<path d="M112.0436 23.4729
L112.0055 23.4348
" />
<path d="M112.0055 23.4348
L111.9674 23.3586
" />
<path d="M111.9674 23.3586
L111.9293 23.2062
" />
<path d="M111.9293 23.2062
L111.9293 23.0158
" />
<path d="M111.9293 23.0158
L111.9674 22.8634
" />
<path d="M111.9674 22.8634
L112.0055 22.7872
" />
<path d="M112.0055 22.7872
L112.0436 22.7491
" />
<path d="M112.0436 22.7491
L112.1198 22.7110
" />
<path d="M112.6531 22.7110
L113.1483 22.7110
" />
<path d="M113.1483 22.7110
L112.8817 23.0158
" />
<path d="M112.8817 23.0158
L112.9959 23.0158
" />
<path d="M112.9959 23.0158
L113.0721 23.0539
" />
<path d="M113.0721 23.0539
L113.1102 23.0919
" />
<path d="M113.1102 23.0919
L113.1483 23.1681
" />
<path d="M113.1483 23.1681
L113.1483 23.3586
" />
<path d="M113.1483 23.3586
L113.1102 23.4348
" />
<path d="M113.1102 23.4348
L113.0721 23.4729
" />
<path d="M113.0721 23.4729
L112.9959 23.5110
" />
<path d="M112.9959 23.5110
L112.7674 23.5110
" />
<path d="M112.7674 23.5110
L112.6912 23.4729
" />
<path d="M112.6912 23.4729
L112.6531 23.4348
" />
</g><text x="112.1388" y="36.2487"
textLength="2.6138" font-size="1.0667" lengthAdjust="spacingAndGlyphs"
text-anchor="middle" opacity="0">P08</text>
<g class="stroked-text"><desc>P08</desc>
<path d="M111.1674 36.2110
L111.1674 35.4110
" />
<path d="M111.1674 35.4110
L111.4721 35.4110
" />
<path d="M111.4721 35.4110
L111.5483 35.4491
" />
<path d="M111.5483 35.4491
L111.5864 35.4872
" />
<path d="M111.5864 35.4872
L111.6245 35.5634
" />
<path d="M111.6245 35.5634
L111.6245 35.6777
" />
<path d="M111.6245 35.6777
L111.5864 35.7539
" />
<path d="M111.5864 35.7539
L111.5483 35.7919
" />
<path d="M111.5483 35.7919
L111.4721 35.8300
" />
<path d="M111.4721 35.8300
L111.1674 35.8300
" />
<path d="M112.1198 35.4110
L112.1959 35.4110
" />
<path d="M112.1959 35.4110
L112.2721 35.4491
" />
<path d="M112.2721 35.4491
L112.3102 35.4872
" />
<path d="M112.3102 35.4872
L112.3483 35.5634
" />
<path d="M112.3483 35.5634
L112.3864 35.7158
" />
<path d="M112.3864 35.7158
L112.3864 35.9062
" />
<path d="M112.3864 35.9062
L112.3483 36.0586
" />
<path d="M112.3483 36.0586
L112.3102 36.1348
" />
<path d="M112.3102 36.1348
L112.2721 36.1729
" />
<path d="M112.2721 36.1729
L112.1959 36.2110
" />
<path d="M112.1959 36.2110
L112.1198 36.2110
" />
<path d="M112.1198 36.2110
L112.0436 36.1729
" />
<path d="M112.0436 36.1729
L112.0055 36.1348
" />
<path d="M112.0055 36.1348
L111.9674 36.0586
" />
<path d="M111.9674 36.0586
L111.9293 35.9062
" />
<path d="M111.9293 35.9062
L111.9293 35.7158
" />
<path d="M111.9293 35.7158
L111.9674 35.5634
" />
<path d="M111.9674 35.5634
L112.0055 35.4872
" />
<path d="M112.0055 35.4872
L112.0436 35.4491
" />
<path d="M112.0436 35.4491
L112.1198 35.4110
" />
<path d="M112.8436 35.7539
L112.7674 35.7158
" />
<path d="M112.7674 35.7158
L112.7293 35.6777
" />
<path d="M112.7293 35.6777
L112.6912 35.6015
" />
<path d="M112.6912 35.6015
L112.6912 35.5634
" />
<path d="M112.6912 35.5634
L112.7293 35.4872
" />
<path d="M112.7293 35.4872
L112.7674 35.4491
" />
<path d="M112.7674 35.4491
L112.8436 35.4110
" />
<path d="M112.8436 35.4110
L112.9959 35.4110
" />
<path d="M112.9959 35.4110
L113.0721 35.4491
" />
<path d="M113.0721 35.4491
L113.1102 35.4872
" />
<path d="M113.1102 35.4872
L113.1483 35.5634
" />
<path d="M113.1483 35.5634
L113.1483 35.6015
" />
<path d="M113.1483 35.6015
L113.1102 35.6777
" />
<path d="M113.1102 35.6777
L113.0721 35.7158
" />
<path d="M113.0721 35.7158
L112.9959 35.7539
" />
<path d="M112.9959 35.7539
L112.8436 35.7539
" />
<path d="M112.8436 35.7539
L112.7674 35.7919
" />
<path d="M112.7674 35.7919
L112.7293 35.8300
" />
<path d="M112.7293 35.8300
L112.6912 35.9062
" />
<path d="M112.6912 35.9062
L112.6912 36.0586
" />
<path d="M112.6912 36.0586
L112.7293 36.1348
" />
<path d="M112.7293 36.1348
L112.7674 36.1729
" />
<path d="M112.7674 36.1729
L112.8436 36.2110
" />
<path d="M112.8436 36.2110
L112.9959 36.2110
" />
<path d="M112.9959 36.2110
L113.0721 36.1729
" />
<path d="M113.0721 36.1729
L113.1102 36.1348
" />
<path d="M113.1102 36.1348
L113.1483 36.0586
" />
<path d="M113.1483 36.0586
L113.1483 35.9062
" />
<path d="M113.1483 35.9062
L113.1102 35.8300
" />
<path d="M113.1102 35.8300
L113.0721 35.7919
" />
<path d="M113.0721 35.7919
L112.9959 35.7539
" />
</g><text x="112.1388" y="31.1687"
textLength="2.6138" font-size="1.0667" lengthAdjust="spacingAndGlyphs"
text-anchor="middle" opacity="0">P06</text>
<g class="stroked-text"><desc>P06</desc>
<path d="M111.1674 31.1310
L111.1674 30.3310
" />
<path d="M111.1674 30.3310
L111.4721 30.3310
" />
<path d="M111.4721 30.3310
L111.5483 30.3691
" />
<path d="M111.5483 30.3691
L111.5864 30.4072
" />
<path d="M111.5864 30.4072
L111.6245 30.4834
" />
<path d="M111.6245 30.4834
L111.6245 30.5977
" />
<path d="M111.6245 30.5977
L111.5864 30.6739
" />
<path d="M111.5864 30.6739
L111.5483 30.7119
" />
<path d="M111.5483 30.7119
L111.4721 30.7500
" />
<path d="M111.4721 30.7500
L111.1674 30.7500
" />
<path d="M112.1198 30.3310
L112.1959 30.3310
" />
<path d="M112.1959 30.3310
L112.2721 30.3691
" />
<path d="M112.2721 30.3691
L112.3102 30.4072
" />
<path d="M112.3102 30.4072
L112.3483 30.4834
" />
<path d="M112.3483 30.4834
L112.3864 30.6358
" />
<path d="M112.3864 30.6358
L112.3864 30.8262
" />
<path d="M112.3864 30.8262
L112.3483 30.9786
" />
<path d="M112.3483 30.9786
L112.3102 31.0548
" />
<path d="M112.3102 31.0548
L112.2721 31.0929
" />
<path d="M112.2721 31.0929
L112.1959 31.1310
" />
<path d="M112.1959 31.1310
L112.1198 31.1310
" />
<path d="M112.1198 31.1310
L112.0436 31.0929
" />
<path d="M112.0436 31.0929
L112.0055 31.0548
" />
<path d="M112.0055 31.0548
L111.9674 30.9786
" />
<path d="M111.9674 30.9786
L111.9293 30.8262
" />
<path d="M111.9293 30.8262
L111.9293 30.6358
" />
<path d="M111.9293 30.6358
L111.9674 30.4834
" />
<path d="M111.9674 30.4834
L112.0055 30.4072
" />
<path d="M112.0055 30.4072
L112.0436 30.3691
" />
<path d="M112.0436 30.3691
L112.1198 30.3310
" />
<path d="M113.0721 30.3310
L112.9198 30.3310
" />
<path d="M112.9198 30.3310
L112.8436 30.3691
" />
<path d="M112.8436 30.3691
L112.8055 30.4072
" />
<path d="M112.8055 30.4072
L112.7293 30.5215
" />
<path d="M112.7293 30.5215
L112.6912 30.6739
" />
<path d="M112.6912 30.6739
L112.6912 30.9786
" />
<path d="M112.6912 30.9786
L112.7293 31.0548
" />
<path d="M112.7293 31.0548
L112.7674 31.0929
" />
<path d="M112.7674 31.0929
L112.8436 31.1310
" />
<path d="M112.8436 31.1310
L112.9959 31.1310
" />
<path d="M112.9959 31.1310
L113.0721 31.0929
" />
<path d="M113.0721 31.0929
L113.1102 31.0548
" />
<path d="M113.1102 31.0548
L113.1483 30.9786
" />
<path d="M113.1483 30.9786
L113.1483 30.7881
" />
<path d="M113.1483 30.7881
L113.1102 30.7119
" />
<path d="M113.1102 30.7119
L113.0721 30.6739
" />
<path d="M113.0721 30.6739
L112.9959 30.6358
" />
<path d="M112.9959 30.6358
L112.8436 30.6358
" />
<path d="M112.8436 30.6358
L112.7674 30.6739
" />
<path d="M112.7674 30.6739
L112.7293 30.7119
" />
<path d="M112.7293 30.7119
L112.6912 30.7881
" />
</g><text x="102.5388" y="26.0887"
textLength="2.6138" font-size="1.0667" lengthAdjust="spacingAndGlyphs"
text-anchor="middle" opacity="0">P19</text>
<g class="stroked-text"><desc>P19</desc>
<path d="M101.5674 26.0510
L101.5674 25.2510
" />
<path d="M101.5674 25.2510
L101.8721 25.2510
" />
<path d="M101.8721 25.2510
L101.9483 25.2891
" />
<path d="M101.9483 25.2891
L101.9864 25.3272
" />
<path d="M101.9864 25.3272
L102.0245 25.4034
" />
<path d="M102.0245 25.4034
L102.0245 25.5177
" />
<path d="M102.0245 25.5177
L101.9864 25.5939
" />
<path d="M101.9864 25.5939
L101.9483 25.6319
" />
<path d="M101.9483 25.6319
L101.8721 25.6700
" />
<path d="M101.8721 25.6700
L101.5674 25.6700
" />
<path d="M102.7864 26.0510
L102.3293 26.0510
" />
<path d="M102.5578 26.0510
L102.5578 25.2510
" />
<path d="M102.5578 25.2510
L102.4817 25.3653
" />
<path d="M102.4817 25.3653
L102.4055 25.4415
" />
<path d="M102.4055 25.4415
L102.3293 25.4796
" />
<path d="M103.1674 26.0510
L103.3198 26.0510
" />
<path d="M103.3198 26.0510
L103.3959 26.0129
" />
<path d="M103.3959 26.0129
L103.4340 25.9748
" />
<path d="M103.4340 25.9748
L103.5102 25.8605
" />
<path d="M103.5102 25.8605
L103.5483 25.7081
" />
<path d="M103.5483 25.7081
L103.5483 25.4034
" />
<path d="M103.5483 25.4034
L103.5102 25.3272
" />
<path d="M103.5102 25.3272
L103.4721 25.2891
" />
<path d="M103.4721 25.2891
L103.3959 25.2510
" />
<path d="M103.3959 25.2510
L103.2436 25.2510
" />
<path d="M103.2436 25.2510
L103.1674 25.2891
" />
<path d="M103.1674 25.2891
L103.1293 25.3272
" />
<path d="M103.1293 25.3272
L103.0912 25.4034
" />
<path d="M103.0912 25.4034
L103.0912 25.5939
" />
<path d="M103.0912 25.5939
L103.1293 25.6700
" />
<path d="M103.1293 25.6700
L103.1674 25.7081
" />
<path d="M103.1674 25.7081
L103.2436 25.7462
" />
<path d="M103.2436 25.7462
L103.3959 25.7462
" />
<path d="M103.3959 25.7462
L103.4721 25.7081
" />
<path d="M103.4721 25.7081
L103.5102 25.6700
" />
<path d="M103.5102 25.6700
L103.5483 25.5939
" />
</g><text x="102.5388" y="13.3887"
textLength="2.7281" font-size="1.0667" lengthAdjust="spacingAndGlyphs"
text-anchor="middle" opacity="0">GND</text>
<g class="stroked-text"><desc>GND</desc>
<path d="M101.9293 12.5891
L101.8531 12.5510
" />
<path d="M101.8531 12.5510
L101.7388 12.5510
" />
<path d="M101.7388 12.5510
L101.6245 12.5891
" />
<path d="M101.6245 12.5891
L101.5483 12.6653
" />
<path d="M101.5483 12.6653
L101.5102 12.7415
" />
<path d="M101.5102 12.7415
L101.4721 12.8939
" />
<path d="M101.4721 12.8939
L101.4721 13.0081
" />
<path d="M101.4721 13.0081
L101.5102 13.1605
" />
<path d="M101.5102 13.1605
L101.5483 13.2367
" />
<path d="M101.5483 13.2367
L101.6245 13.3129
" />
<path d="M101.6245 13.3129
L101.7388 13.3510
" />
<path d="M101.7388 13.3510
L101.8150 13.3510
" />
<path d="M101.8150 13.3510
L101.9293 13.3129
" />
<path d="M101.9293 13.3129
L101.9674 13.2748
" />
<path d="M101.9674 13.2748
L101.9674 13.0081
" />
<path d="M101.9674 13.0081
L101.8150 13.0081
" />
<path d="M102.3102 13.3510
L102.3102 12.5510
" />
<path d="M102.3102 12.5510
L102.7674 13.3510
" />
<path d="M102.7674 13.3510
L102.7674 12.5510
" />
<path d="M103.1483 13.3510
L103.1483 12.5510
" />
<path d="M103.1483 12.5510
L103.3388 12.5510
" />
<path d="M103.3388 12.5510
L103.4531 12.5891
" />
<path d="M103.4531 12.5891
L103.5293 12.6653
" />
<path d="M103.5293 12.6653
L103.5674 12.7415
" />
<path d="M103.5674 12.7415
L103.6055 12.8939
" />
<path d="M103.6055 12.8939
L103.6055 13.0081
" />
<path d="M103.6055 13.0081
L103.5674 13.1605
" />
<path d="M103.5674 13.1605
L103.5293 13.2367
" />
<path d="M103.5293 13.2367
L103.4531 13.3129
" />
<path d="M103.4531 13.3129
L103.3388 13.3510
" />
<path d="M103.3388 13.3510
L103.1483 13.3510
" />
</g><text x="102.5388" y="18.4687"
textLength="2.5757" font-size="1.0667" lengthAdjust="spacingAndGlyphs"
text-anchor="middle" opacity="0">VCC</text>
<g class="stroked-text"><desc>VCC</desc>
<path d="M101.4721 17.6310
L101.7388 18.4310
" />
<path d="M101.7388 18.4310
L102.0055 17.6310
" />
<path d="M102.7293 18.3548
L102.6912 18.3929
" />
<path d="M102.6912 18.3929
L102.5769 18.4310
" />
<path d="M102.5769 18.4310
L102.5007 18.4310
" />
<path d="M102.5007 18.4310
L102.3864 18.3929
" />
<path d="M102.3864 18.3929
L102.3102 18.3167
" />
<path d="M102.3102 18.3167
L102.2721 18.2405
" />
<path d="M102.2721 18.2405
L102.2340 18.0881
" />
<path d="M102.2340 18.0881
L102.2340 17.9739
" />
<path d="M102.2340 17.9739
L102.2721 17.8215
" />
<path d="M102.2721 17.8215
L102.3102 17.7453
" />
<path d="M102.3102 17.7453
L102.3864 17.6691
" />
<path d="M102.3864 17.6691
L102.5007 17.6310
" />
<path d="M102.5007 17.6310
L102.5769 17.6310
" />
<path d="M102.5769 17.6310
L102.6912 17.6691
" />
<path d="M102.6912 17.6691
L102.7293 17.7072
" />
<path d="M103.5293 18.3548
L103.4912 18.3929
" />
<path d="M103.4912 18.3929
L103.3769 18.4310
" />
<path d="M103.3769 18.4310
L103.3007 18.4310
" />
<path d="M103.3007 18.4310
L103.1864 18.3929
" />
<path d="M103.1864 18.3929
L103.1102 18.3167
" />
<path d="M103.1102 18.3167
L103.0721 18.2405
" />
<path d="M103.0721 18.2405
L103.0340 18.0881
" />
<path d="M103.0340 18.0881
L103.0340 17.9739
" />
<path d="M103.0340 17.9739
L103.0721 17.8215
" />
<path d="M103.0721 17.8215
L103.1102 17.7453
" />
<path d="M103.1102 17.7453
L103.1864 17.6691
" />
<path d="M103.1864 17.6691
L103.3007 17.6310
" />
<path d="M103.3007 17.6310
L103.3769 17.6310
" />
<path d="M103.3769 17.6310
L103.4912 17.6691
" />
<path d="M103.4912 17.6691
L103.5293 17.7072
" />
</g><text x="102.5388" y="10.8487"
textLength="2.6900" font-size="1.0667" lengthAdjust="spacingAndGlyphs"
text-anchor="middle" opacity="0">RAW</text>
<g class="stroked-text"><desc>RAW</desc>
<path d="M101.9864 10.8110
L101.7198 10.4300
" />
<path d="M101.5293 10.8110
L101.5293 10.0110
" />
<path d="M101.5293 10.0110
L101.8340 10.0110
" />
<path d="M101.8340 10.0110
L101.9102 10.0491
" />
<path d="M101.9102 10.0491
L101.9483 10.0872
" />
<path d="M101.9483 10.0872
L101.9864 10.1634
" />
<path d="M101.9864 10.1634
L101.9864 10.2777
" />
<path d="M101.9864 10.2777
L101.9483 10.3539
" />
<path d="M101.9483 10.3539
L101.9102 10.3919
" />
<path d="M101.9102 10.3919
L101.8340 10.4300
" />
<path d="M101.8340 10.4300
L101.5293 10.4300
" />
<path d="M102.2912 10.5824
L102.6721 10.5824
" />
<path d="M102.2150 10.8110
L102.4817 10.0110
" />
<path d="M102.4817 10.0110
L102.7483 10.8110
" />
<path d="M102.9388 10.0110
L103.1293 10.8110
" />
<path d="M103.1293 10.8110
L103.2817 10.2396
" />
<path d="M103.2817 10.2396
L103.4340 10.8110
" />
<path d="M103.4340 10.8110
L103.6245 10.0110
" />
</g><text x="102.5388" y="21.0087"
textLength="2.6138" font-size="1.0667" lengthAdjust="spacingAndGlyphs"
text-anchor="middle" opacity="0">P21</text>
<g class="stroked-text"><desc>P21</desc>
<path d="M101.5674 20.9710
L101.5674 20.1710
" />
<path d="M101.5674 20.1710
L101.8721 20.1710
" />
<path d="M101.8721 20.1710
L101.9483 20.2091
" />
<path d="M101.9483 20.2091
L101.9864 20.2472
" />
<path d="M101.9864 20.2472
L102.0245 20.3234
" />
<path d="M102.0245 20.3234
L102.0245 20.4377
" />
<path d="M102.0245 20.4377
L101.9864 20.5139
" />
<path d="M101.9864 20.5139
L101.9483 20.5519
" />
<path d="M101.9483 20.5519
L101.8721 20.5900
" />
<path d="M101.8721 20.5900
L101.5674 20.5900
" />
<path d="M102.3293 20.2472
L102.3674 20.2091
" />
<path d="M102.3674 20.2091
L102.4436 20.1710
" />
<path d="M102.4436 20.1710
L102.6340 20.1710
" />
<path d="M102.6340 20.1710
L102.7102 20.2091
" />
<path d="M102.7102 20.2091
L102.7483 20.2472
" />
<path d="M102.7483 20.2472
L102.7864 20.3234
" />
<path d="M102.7864 20.3234
L102.7864 20.3996
" />
<path d="M102.7864 20.3996
L102.7483 20.5139
" />
<path d="M102.7483 20.5139
L102.2912 20.9710
" />
<path d="M102.2912 20.9710
L102.7864 20.9710
" />
<path d="M103.5483 20.9710
L103.0912 20.9710
" />
<path d="M103.3198 20.9710
L103.3198 20.1710
" />
<path d="M103.3198 20.1710
L103.2436 20.2853
" />
<path d="M103.2436 20.2853
L103.1674 20.3615
" />
<path d="M103.1674 20.3615
L103.0912 20.3996
" />
</g><text x="102.5388" y="38.7887"
textLength="2.6138" font-size="1.0667" lengthAdjust="spacingAndGlyphs"
text-anchor="middle" opacity="0">P10</text>
<g class="stroked-text"><desc>P10</desc>
<path d="M101.5674 38.7510
L101.5674 37.9510
" />
<path d="M101.5674 37.9510
L101.8721 37.9510
" />
<path d="M101.8721 37.9510
L101.9483 37.9891
" />
<path d="M101.9483 37.9891
L101.9864 38.0272
" />
<path d="M101.9864 38.0272
L102.0245 38.1034
" />
<path d="M102.0245 38.1034
L102.0245 38.2177
" />
<path d="M102.0245 38.2177
L101.9864 38.2939
" />
<path d="M101.9864 38.2939
L101.9483 38.3319
" />
<path d="M101.9483 38.3319
L101.8721 38.3700
" />
<path d="M101.8721 38.3700
L101.5674 38.3700
" />
<path d="M102.7864 38.7510
L102.3293 38.7510
" />
<path d="M102.5578 38.7510
L102.5578 37.9510
" />
<path d="M102.5578 37.9510
L102.4817 38.0653
" />
<path d="M102.4817 38.0653
L102.4055 38.1415
" />
<path d="M102.4055 38.1415
L102.3293 38.1796
" />
<path d="M103.2817 37.9510
L103.3578 37.9510
" />
<path d="M103.3578 37.9510
L103.4340 37.9891
" />
<path d="M103.4340 37.9891
L103.4721 38.0272
" />
<path d="M103.4721 38.0272
L103.5102 38.1034
" />
<path d="M103.5102 38.1034
L103.5483 38.2558
" />
<path d="M103.5483 38.2558
L103.5483 38.4462
" />
<path d="M103.5483 38.4462
L103.5102 38.5986
" />
<path d="M103.5102 38.5986
L103.4721 38.6748
" />
<path d="M103.4721 38.6748
L103.4340 38.7129
" />
<path d="M103.4340 38.7129
L103.3578 38.7510
" />
<path d="M103.3578 38.7510
L103.2817 38.7510
" />
<path d="M103.2817 38.7510
L103.2055 38.7129
" />
<path d="M103.2055 38.7129
L103.1674 38.6748
" />
<path d="M103.1674 38.6748
L103.1293 38.5986
" />
<path d="M103.1293 38.5986
L103.0912 38.4462
" />
<path d="M103.0912 38.4462
L103.0912 38.2558
" />
<path d="M103.0912 38.2558
L103.1293 38.1034
" />
<path d="M103.1293 38.1034
L103.1674 38.0272
" />
<path d="M103.1674 38.0272
L103.2055 37.9891
" />
<path d="M103.2055 37.9891
L103.2817 37.9510
" />
</g><path d="M119.4000 31.3837
L119.4000 28.8837
" />
<path d="M120.9000 27.3837
L119.4000 28.8837
" />
<path d="M120.9000 27.3837
L123.4000 27.3837
" />
<path d="M120.9000 32.8837
L119.4000 31.3837
" />
<path d="M120.9000 32.8837
L123.4000 32.8837
" />
<path d="M123.4000 27.3837
L124.9000 28.8837
" />
<path d="M123.4000 32.8837
L124.9000 31.3837
" />
<path d="M124.9000 31.3837
L124.9000 28.8837
" />
</g>
<g style="fill:none; 
stroke:#000000; stroke-width:0.1000; stroke-opacity:1; 
stroke-linecap:round; stroke-linejoin:round;">
<path d="M9.6338 38.8937
L10.0338 38.8937
" />
<path d="M10.0338 38.8937
L10.0338 38.3437
" />
<path d="M10.0338 38.8937
L10.0338 39.4437
" />
<path d="M10.0338 38.8937
L10.6338 38.4937
" />
<path d="M10.6338 38.4937
L10.6338 39.2937
" />
<path d="M10.6338 38.8937
L11.1338 38.8937
" />
<path d="M10.6338 39.2937
L10.0338 38.8937
" />
<path d="M85.6338 57.8937
L86.0338 57.8937
" />
<path d="M86.0338 57.8937
L86.0338 57.3437
" />
<path d="M86.0338 57.8937
L86.0338 58.4437
" />
<path d="M86.0338 57.8937
L86.6338 57.4937
" />
<path d="M86.6338 57.4937
L86.6338 58.2937
" />
<path d="M86.6338 57.8937
L87.1338 57.8937
" />
<path d="M86.6338 58.2937
L86.0338 57.8937
" />
<path d="M85.5338 76.9437
L85.9338 76.9437
" />
<path d="M85.9338 76.9437
L85.9338 76.3937
" />
<path d="M85.9338 76.9437
L85.9338 77.4937
" />
<path d="M85.9338 76.9437
L86.5338 76.5437
" />
<path d="M86.5338 76.5437
L86.5338 77.3437
" />
<path d="M86.5338 76.9437
L87.0338 76.9437
" />
<path d="M86.5338 77.3437
L85.9338 76.9437
" />
<path d="M47.6338 16.0837
L48.0338 16.0837
" />
<path d="M48.0338 16.0837
L48.0338 15.5337
" />
<path d="M48.0338 16.0837
L48.0338 16.6337
" />
<path d="M48.0338 16.0837
L48.6338 15.6837
" />
<path d="M48.6338 15.6837
L48.6338 16.4837
" />
<path d="M48.6338 16.0837
L49.1338 16.0837
" />
<path d="M48.6338 16.4837
L48.0338 16.0837
" />
<path d="M85.6338 38.8937
L86.0338 38.8937
" />
<path d="M86.0338 38.8937
L86.0338 38.3437
" />
<path d="M86.0338 38.8937
L86.0338 39.4437
" />
<path d="M86.0338 38.8937
L86.6338 38.4937
" />
<path d="M86.6338 38.4937
L86.6338 39.2937
" />
<path d="M86.6338 38.8937
L87.1338 38.8937
" />
<path d="M86.6338 39.2937
L86.0338 38.8937
" />
<path d="M66.6338 17.9887
L67.0338 17.9887
" />
<path d="M67.0338 17.9887
L67.0338 17.4387
" />
<path d="M67.0338 17.9887
L67.0338 18.5387
" />
<path d="M67.0338 17.9887
L67.6338 17.5887
" />
<path d="M67.6338 17.5887
L67.6338 18.3887
" />
<path d="M67.6338 17.9887
L68.1338 17.9887
" />
<path d="M67.6338 18.3887
L67.0338 17.9887
" />
<path d="M47.6338 54.0837
L48.0338 54.0837
" />
<path d="M48.0338 54.0837
L48.0338 53.5337
" />
<path d="M48.0338 54.0837
L48.0338 54.6337
" />
<path d="M48.0338 54.0837
L48.6338 53.6837
" />
<path d="M48.6338 53.6837
L48.6338 54.4837
" />
<path d="M48.6338 54.0837
L49.1338 54.0837
" />
<path d="M48.6338 54.4837
L48.0338 54.0837
" />
<path d="M9.6338 19.8937
L10.0338 19.8937
" />
<path d="M10.0338 19.8937
L10.0338 19.3437
" />
<path d="M10.0338 19.8937
L10.0338 20.4437
" />
<path d="M10.0338 19.8937
L10.6338 19.4937
" />
<path d="M10.6338 19.4937
L10.6338 20.2937
" />
<path d="M10.6338 19.8937
L11.1338 19.8937
" />
<path d="M10.6338 20.2937
L10.0338 19.8937
" />
<path d="M115.8540 68.3451
L116.0719 68.0096
" />
<path d="M116.0632 67.2886
L116.7341 67.7243
" />
<path d="M116.0719 68.0096
L115.6106 67.7101
" />
<path d="M116.0719 68.0096
L116.0632 67.2886
" />
<path d="M116.0719 68.0096
L116.5331 68.3092
" />
<path d="M116.3987 67.5064
L116.6710 67.0871
" />
<path d="M116.7341 67.7243
L116.0719 68.0096
" />
</g>
<g style="fill:none; 
stroke:#000000; stroke-width:0.1500; stroke-opacity:1; 
stroke-linecap:round; stroke-linejoin:round;">
<path d="M98.4488 6.6387
L98.4488 39.6587
" />
<path d="M98.4488 39.6587
L116.2288 39.6587
" />
<path d="M100.9888 9.1787
L98.4488 9.1787
" />
<path d="M100.9888 9.1787
L100.9888 11.7187
" />
<path d="M100.9888 11.7187
L98.4488 11.7187
" />
<path d="M116.2288 6.6387
L98.4488 6.6387
" />
<path d="M116.2288 39.6587
L116.2288 6.6387
" />
</g>
<g style="fill:none; 
stroke:#000000; stroke-width:0.1000; stroke-opacity:1; 
stroke-linecap:round; stroke-linejoin:round;">
<path d="M66.6338 55.9887
L67.0338 55.9887
" />
<path d="M67.0338 55.9887
L67.0338 55.4387
" />
<path d="M67.0338 55.9887
L67.0338 56.5387
" />
<path d="M67.0338 55.9887
L67.6338 55.5887
" />
<path d="M67.6338 55.5887
L67.6338 56.3887
" />
<path d="M67.6338 55.9887
L68.1338 55.9887
" />
<path d="M67.6338 56.3887
L67.0338 55.9887
" />
<path d="M9.6338 57.8937
L10.0338 57.8937
" />
<path d="M10.0338 57.8937
L10.0338 57.3437
" />
<path d="M10.0338 57.8937
L10.0338 58.4437
" />
<path d="M10.0338 57.8937
L10.6338 57.4937
" />
<path d="M10.6338 57.4937
L10.6338 58.2937
" />
<path d="M10.6338 57.8937
L11.1338 57.8937
" />
<path d="M10.6338 58.2937
L10.0338 57.8937
" />
<path d="M66.5338 75.0387
L66.9338 75.0387
" />
<path d="M66.9338 75.0387
L66.9338 74.4887
" />
<path d="M66.9338 75.0387
L66.9338 75.5887
" />
<path d="M66.9338 75.0387
L67.5338 74.6387
" />
<path d="M67.5338 74.6387
L67.5338 75.4387
" />
<path d="M67.5338 75.0387
L68.0338 75.0387
" />
<path d="M67.5338 75.4387
L66.9338 75.0387
" />
<path d="M47.6338 35.0837
L48.0338 35.0837
" />
<path d="M48.0338 35.0837
L48.0338 34.5337
" />
<path d="M48.0338 35.0837
L48.0338 35.6337
" />
<path d="M48.0338 35.0837
L48.6338 34.6837
" />
<path d="M48.6338 34.6837
L48.6338 35.4837
" />
<path d="M48.6338 35.0837
L49.1338 35.0837
" />
<path d="M48.6338 35.4837
L48.0338 35.0837
" />
<path d="M47.5338 75.0387
L47.9338 75.0387
" />
<path d="M47.9338 75.0387
L47.9338 74.4887
" />
<path d="M47.9338 75.0387
L47.9338 75.5887
" />
<path d="M47.9338 75.0387
L48.5338 74.6387
" />
<path d="M48.5338 74.6387
L48.5338 75.4387
" />
<path d="M48.5338 75.0387
L49.0338 75.0387
" />
<path d="M48.5338 75.4387
L47.9338 75.0387
" />
<path d="M85.6338 19.8937
L86.0338 19.8937
" />
<path d="M86.0338 19.8937
L86.0338 19.3437
" />
<path d="M86.0338 19.8937
L86.0338 20.4437
" />
<path d="M86.0338 19.8937
L86.6338 19.4937
" />
<path d="M86.6338 19.4937
L86.6338 20.2937
" />
<path d="M86.6338 19.8937
L87.1338 19.8937
" />
<path d="M86.6338 20.2937
L86.0338 19.8937
" />
<path d="M28.6338 17.9887
L29.0338 17.9887
" />
<path d="M29.0338 17.9887
L29.0338 17.4387
" />
<path d="M29.0338 17.9887
L29.0338 18.5387
" />
<path d="M29.0338 17.9887
L29.6338 17.5887
" />
<path d="M29.6338 17.5887
L29.6338 18.3887
" />
<path d="M29.6338 17.9887
L30.1338 17.9887
" />
<path d="M29.6338 18.3887
L29.0338 17.9887
" />
<path d="M28.6338 36.9887
L29.0338 36.9887
" />
<path d="M29.0338 36.9887
L29.0338 36.4387
" />
<path d="M29.0338 36.9887
L29.0338 37.5387
" />
<path d="M29.0338 36.9887
L29.6338 36.5887
" />
<path d="M29.6338 36.5887
L29.6338 37.3887
" />
<path d="M29.6338 36.9887
L30.1338 36.9887
" />
<path d="M29.6338 37.3887
L29.0338 36.9887
" />
<path d="M28.6338 55.9887
L29.0338 55.9887
" />
<path d="M29.0338 55.9887
L29.0338 55.4387
" />
<path d="M29.0338 55.9887
L29.0338 56.5387
" />
<path d="M29.0338 55.9887
L29.6338 55.5887
" />
<path d="M29.6338 55.5887
L29.6338 56.3887
" />
<path d="M29.6338 55.9887
L30.1338 55.9887
" />
<path d="M29.6338 56.3887
L29.0338 55.9887
" />
<path d="M66.6338 36.9887
L67.0338 36.9887
" />
<path d="M67.0338 36.9887
L67.0338 36.4387
" />
<path d="M67.0338 36.9887
L67.0338 37.5387
" />
<path d="M67.0338 36.9887
L67.6338 36.5887
" />
<path d="M67.6338 36.5887
L67.6338 37.3887
" />
<path d="M67.6338 36.9887
L68.1338 36.9887
" />
<path d="M67.6338 37.3887
L67.0338 36.9887
" />
<path style="fill:#000000; fill-opacity:1.0000; stroke:none;fill-rule:evenodd;"
d="M 98.8425,9.5724
100.5951,9.5724
100.5951,11.3250
98.8425,11.3250
Z" /> 
</g>
<g style="fill:#000000; fill-opacity:1.0000; stroke:none;">
<circle cx="99.7188" cy="12.9887" r="0.8763" /> 
</g>
<g style="fill:#000000; fill-opacity:1.0000; stroke:none;">
<circle cx="99.7188" cy="15.5287" r="0.8763" /> 
</g>
<g style="fill:#000000; fill-opacity:1.0000; stroke:none;">
<circle cx="99.7188" cy="18.0687" r="0.8763" /> 
</g>
<g style="fill:#000000; fill-opacity:1.0000; stroke:none;">
<circle cx="99.7188" cy="20.6087" r="0.8763" /> 
</g>
<g style="fill:#000000; fill-opacity:1.0000; stroke:none;">
<circle cx="99.7188" cy="23.1487" r="0.8763" /> 
</g>
<g style="fill:#000000; fill-opacity:1.0000; stroke:none;">
<circle cx="99.7188" cy="25.6887" r="0.8763" /> 
</g>
<g style="fill:#000000; fill-opacity:1.0000; stroke:none;">
<circle cx="99.7188" cy="28.2287" r="0.8763" /> 
</g>
<g style="fill:#000000; fill-opacity:1.0000; stroke:none;">
<circle cx="99.7188" cy="30.7687" r="0.8763" /> 
</g>
<g style="fill:#000000; fill-opacity:1.0000; stroke:none;">
<circle cx="99.7188" cy="33.3087" r="0.8763" /> 
</g>
<g style="fill:#000000; fill-opacity:1.0000; stroke:none;">
<circle cx="99.7188" cy="35.8487" r="0.8763" /> 
</g>
<g style="fill:#000000; fill-opacity:1.0000; stroke:none;">
<circle cx="99.7188" cy="38.3887" r="0.8763" /> 
</g>
<g style="fill:#000000; fill-opacity:1.0000; stroke:none;">
<circle cx="114.9588" cy="10.4487" r="0.8763" /> 
</g>
<g style="fill:#000000; fill-opacity:1.0000; stroke:none;">
<circle cx="114.9588" cy="12.9887" r="0.8763" /> 
</g>
<g style="fill:#000000; fill-opacity:1.0000; stroke:none;">
<circle cx="114.9588" cy="15.5287" r="0.8763" /> 
</g>
<g style="fill:#000000; fill-opacity:1.0000; stroke:none;">
<circle cx="114.9588" cy="18.0687" r="0.8763" /> 
</g>
<g style="fill:#000000; fill-opacity:1.0000; stroke:none;">
<circle cx="114.9588" cy="20.6087" r="0.8763" /> 
</g>
<g style="fill:#000000; fill-opacity:1.0000; stroke:none;">
<circle cx="114.9588" cy="23.1487" r="0.8763" /> 
</g>
<g style="fill:#000000; fill-opacity:1.0000; stroke:none;">
<circle cx="114.9588" cy="25.6887" r="0.8763" /> 
</g>
<g style="fill:#000000; fill-opacity:1.0000; stroke:none;">
<circle cx="114.9588" cy="28.2287" r="0.8763" /> 
</g>
<g style="fill:#000000; fill-opacity:1.0000; stroke:none;">
<circle cx="114.9588" cy="30.7687" r="0.8763" /> 
</g>
<g style="fill:#000000; fill-opacity:1.0000; stroke:none;">
<circle cx="114.9588" cy="33.3087" r="0.8763" /> 
</g>
<g style="fill:#000000; fill-opacity:1.0000; stroke:none;">
<circle cx="114.9588" cy="35.8487" r="0.8763" /> 
</g>
<g style="fill:#000000; fill-opacity:1.0000; stroke:none;">
<circle cx="114.9588" cy="38.3887" r="0.8763" /> 
</g>
<g style="fill:none; 
stroke:#000000; stroke-width:0.0500; stroke-opacity:1; 
stroke-linecap:round; stroke-linejoin:round;">
<path d="M78.0250 2.0250
L78.0250 4.0250
" />
<path d="M19.0250 4.0250
L19.0250 2.0250
" />
<path d="M59.0250 0.0250
L59.0250 2.0250
" />
<path d="M128.0250 4.0250
L128.0250 63.0250
" />
<path d="M114.0250 83.0250
L76.0250 83.0250
" />
<path d="M19.0250 2.0250
L38.0250 2.0250
" />
<path d="M76.0250 83.0250
L76.0250 81.0250
" />
<path d="M38.0250 81.0250
L0.0250 63.0250
" />
<path d="M0.0250 63.0250
L0.0250 4.0250
" />
<path d="M78.0250 4.0250
L128.0250 4.0250
" />
<path d="M38.0250 2.0250
L38.0250 0.0250
" />
<path d="M38.0250 0.0250
L59.0250 0.0250
" />
<path d="M128.0250 63.0250
L115.0250 83.0250
" />
<path d="M114.0250 83.0250
L115.0250 83.0250
" />
<path d="M0.0250 4.0250
L19.0250 4.0250
" />
<path d="M59.0250 2.0250
L78.0250 2.0250
" />
<path d="M76.0250 81.0250
L38.0250 81.0250
" />
</g> 
</svg>
