<?xml version="1.0" standalone="no"?>
 <!DOCTYPE svg PUBLIC "-//W3C//DTD SVG 1.1//EN" 
 "http://www.w3.org/Graphics/SVG/1.1/DTD/svg11.dtd"> 
<svg
  xmlns:svg="http://www.w3.org/2000/svg"
  xmlns="http://www.w3.org/2000/svg"
  xmlns:xlink="http://www.w3.org/1999/xlink"
  version="1.1"
  width="128.0414mm" height="83.0326mm" viewBox="0.0000 0.0000 128.0414 83.0326">
<title>SVG Image created as Glide38_ready_for_manufuncturer-B_Mask.svg date 2024/04/29 22:32:38 </title>
  <desc>Image generated by PCBNEW </desc>
<g style="fill:#000000; fill-opacity:1.0000;stroke:#000000; stroke-opacity:1.0000;
stroke-linecap:round; stroke-linejoin:round;"
 transform="translate(0 0) scale(1 1)">
</g>
<g style="fill:#000000; fill-opacity:1.0000; stroke:none;">
<circle cx="81.3038" cy="52.8937" r="0.9009" /> 
</g>
<g style="fill:#000000; fill-opacity:1.0000; stroke:none;">
<circle cx="86.3838" cy="52.8937" r="2.0439" /> 
</g>
<g style="fill:#000000; fill-opacity:1.0000; stroke:none;">
<circle cx="91.4638" cy="52.8937" r="0.9009" /> 
</g>
<g style="fill:#000000; fill-opacity:1.0000; stroke:none;">
<circle cx="83.8438" cy="47.8137" r="1.1930" /> 
</g>
<g style="fill:#000000; fill-opacity:1.0000; stroke:none;">
<circle cx="88.9238" cy="47.8137" r="1.1930" /> 
</g>
<g style="fill:#000000; fill-opacity:1.0000; stroke:none;">
<circle cx="82.5738" cy="50.3537" r="1.1930" /> 
</g>
<g style="fill:#000000; fill-opacity:1.0000; stroke:none;">
<circle cx="90.1938" cy="50.3537" r="1.1930" /> 
</g>
<g style="fill:#000000; fill-opacity:1.0000; stroke:none;">
<circle cx="24.3038" cy="50.9887" r="0.9009" /> 
</g>
<g style="fill:#000000; fill-opacity:1.0000; stroke:none;">
<circle cx="29.3838" cy="50.9887" r="2.0439" /> 
</g>
<g style="fill:#000000; fill-opacity:1.0000; stroke:none;">
<circle cx="34.4638" cy="50.9887" r="0.9009" /> 
</g>
<g style="fill:#000000; fill-opacity:1.0000; stroke:none;">
<circle cx="26.8438" cy="45.9087" r="1.1930" /> 
</g>
<g style="fill:#000000; fill-opacity:1.0000; stroke:none;">
<circle cx="31.9238" cy="45.9087" r="1.1930" /> 
</g>
<g style="fill:#000000; fill-opacity:1.0000; stroke:none;">
<circle cx="25.5738" cy="48.4487" r="1.1930" /> 
</g>
<g style="fill:#000000; fill-opacity:1.0000; stroke:none;">
<circle cx="33.1938" cy="48.4487" r="1.1930" /> 
<path style="fill:#000000; fill-opacity:1.0000; stroke:none;fill-rule:evenodd;"
d="M 119.7500,34.1837
119.7309,34.1799
119.7146,34.1691
119.7038,34.1528
119.7000,34.1337
119.7000,32.3337
119.7038,32.3146
119.7146,32.2983
119.7309,32.2875
119.7500,32.2837
120.8500,32.2837
120.8691,32.2875
120.8854,32.2983
120.8962,32.3146
120.9000,32.3337
120.9000,34.1337
120.8962,34.1528
120.8854,34.1691
120.8691,34.1799
120.8500,34.1837
Z" /> 
<path style="fill:#000000; fill-opacity:1.0000; stroke:none;fill-rule:evenodd;"
d="M 119.7500,27.9837
119.7309,27.9799
119.7146,27.9691
119.7038,27.9528
119.7000,27.9337
119.7000,26.1337
119.7038,26.1146
119.7146,26.0983
119.7309,26.0875
119.7500,26.0837
120.8500,26.0837
120.8691,26.0875
120.8854,26.0983
120.8962,26.1146
120.9000,26.1337
120.9000,27.9337
120.8962,27.9528
120.8854,27.9691
120.8691,27.9799
120.8500,27.9837
Z" /> 
<path style="fill:#000000; fill-opacity:1.0000; stroke:none;fill-rule:evenodd;"
d="M 123.4500,34.1837
123.4309,34.1799
123.4146,34.1691
123.4038,34.1528
123.4000,34.1337
123.4000,32.3337
123.4038,32.3146
123.4146,32.2983
123.4309,32.2875
123.4500,32.2837
124.5500,32.2837
124.5691,32.2875
124.5854,32.2983
124.5962,32.3146
124.6000,32.3337
124.6000,34.1337
124.5962,34.1528
124.5854,34.1691
124.5691,34.1799
124.5500,34.1837
Z" /> 
<path style="fill:#000000; fill-opacity:1.0000; stroke:none;fill-rule:evenodd;"
d="M 123.4500,27.9837
123.4309,27.9799
123.4146,27.9691
123.4038,27.9528
123.4000,27.9337
123.4000,26.1337
123.4038,26.1146
123.4146,26.0983
123.4309,26.0875
123.4500,26.0837
124.5500,26.0837
124.5691,26.0875
124.5854,26.0983
124.5962,26.1146
124.6000,26.1337
124.6000,27.9337
124.5962,27.9528
124.5854,27.9691
124.5691,27.9799
124.5500,27.9837
Z" /> 
<path style="fill:#000000; fill-opacity:1.0000; stroke:none;fill-rule:evenodd;"
d="M 5.6348,38.0047
5.6386,37.9856
5.6494,37.9693
5.6657,37.9585
5.6848,37.9547
7.4628,37.9547
7.4819,37.9585
7.4982,37.9693
7.5090,37.9856
7.5128,38.0047
7.5128,39.7827
7.5090,39.8018
7.4982,39.8181
7.4819,39.8289
7.4628,39.8327
5.6848,39.8327
5.6657,39.8289
5.6494,39.8181
5.6386,39.8018
5.6348,39.7827
Z" /> 
<path style="fill:#000000; fill-opacity:1.0000; stroke:none;fill-rule:evenodd;"
d="M 8.2338,38.2937
8.2376,38.2746
8.2484,38.2583
8.2647,38.2475
8.2838,38.2437
9.1838,38.2437
9.2029,38.2475
9.2192,38.2583
9.2300,38.2746
9.2338,38.2937
9.2338,39.4937
9.2300,39.5128
9.2192,39.5291
9.2029,39.5399
9.1838,39.5437
8.2838,39.5437
8.2647,39.5399
8.2484,39.5291
8.2376,39.5128
8.2338,39.4937
Z" /> 
<path style="fill:#000000; fill-opacity:1.0000; stroke:none;fill-rule:evenodd;"
d="M 11.5338,38.2937
11.5376,38.2746
11.5484,38.2583
11.5647,38.2475
11.5838,38.2437
12.4838,38.2437
12.5029,38.2475
12.5192,38.2583
12.5300,38.2746
12.5338,38.2937
12.5338,39.4937
12.5300,39.5128
12.5192,39.5291
12.5029,39.5399
12.4838,39.5437
11.5838,39.5437
11.5647,39.5399
11.5484,39.5291
11.5376,39.5128
11.5338,39.4937
Z" /> 
</g>
<g style="fill:#000000; fill-opacity:1.0000; stroke:none;">
<circle cx="14.1938" cy="38.8937" r="1.0025" /> 
</g>
<g style="fill:#000000; fill-opacity:1.0000; stroke:none;">
<circle cx="81.2038" cy="71.9437" r="0.9009" /> 
</g>
<g style="fill:#000000; fill-opacity:1.0000; stroke:none;">
<circle cx="86.2838" cy="71.9437" r="2.0439" /> 
</g>
<g style="fill:#000000; fill-opacity:1.0000; stroke:none;">
<circle cx="91.3638" cy="71.9437" r="0.9009" /> 
</g>
<g style="fill:#000000; fill-opacity:1.0000; stroke:none;">
<circle cx="83.7438" cy="66.8637" r="1.1930" /> 
</g>
<g style="fill:#000000; fill-opacity:1.0000; stroke:none;">
<circle cx="88.8238" cy="66.8637" r="1.1930" /> 
</g>
<g style="fill:#000000; fill-opacity:1.0000; stroke:none;">
<circle cx="82.4738" cy="69.4037" r="1.1930" /> 
</g>
<g style="fill:#000000; fill-opacity:1.0000; stroke:none;">
<circle cx="90.0938" cy="69.4037" r="1.1930" /> 
<path style="fill:#000000; fill-opacity:1.0000; stroke:none;fill-rule:evenodd;"
d="M 81.6348,57.0047
81.6386,56.9856
81.6494,56.9693
81.6657,56.9585
81.6848,56.9547
83.4628,56.9547
83.4819,56.9585
83.4982,56.9693
83.5090,56.9856
83.5128,57.0047
83.5128,58.7827
83.5090,58.8018
83.4982,58.8181
83.4819,58.8289
83.4628,58.8327
81.6848,58.8327
81.6657,58.8289
81.6494,58.8181
81.6386,58.8018
81.6348,58.7827
Z" /> 
<path style="fill:#000000; fill-opacity:1.0000; stroke:none;fill-rule:evenodd;"
d="M 84.2338,57.2937
84.2376,57.2746
84.2484,57.2583
84.2647,57.2475
84.2838,57.2437
85.1838,57.2437
85.2029,57.2475
85.2192,57.2583
85.2300,57.2746
85.2338,57.2937
85.2338,58.4937
85.2300,58.5128
85.2192,58.5291
85.2029,58.5399
85.1838,58.5437
84.2838,58.5437
84.2647,58.5399
84.2484,58.5291
84.2376,58.5128
84.2338,58.4937
Z" /> 
<path style="fill:#000000; fill-opacity:1.0000; stroke:none;fill-rule:evenodd;"
d="M 87.5338,57.2937
87.5376,57.2746
87.5484,57.2583
87.5647,57.2475
87.5838,57.2437
88.4838,57.2437
88.5029,57.2475
88.5192,57.2583
88.5300,57.2746
88.5338,57.2937
88.5338,58.4937
88.5300,58.5128
88.5192,58.5291
88.5029,58.5399
88.4838,58.5437
87.5838,58.5437
87.5647,58.5399
87.5484,58.5291
87.5376,58.5128
87.5338,58.4937
Z" /> 
</g>
<g style="fill:#000000; fill-opacity:1.0000; stroke:none;">
<circle cx="90.1938" cy="57.8937" r="1.0025" /> 
<path style="fill:#000000; fill-opacity:1.0000; stroke:none;fill-rule:evenodd;"
d="M 81.5348,76.0547
81.5386,76.0356
81.5494,76.0193
81.5657,76.0085
81.5848,76.0047
83.3628,76.0047
83.3819,76.0085
83.3982,76.0193
83.4090,76.0356
83.4128,76.0547
83.4128,77.8327
83.4090,77.8518
83.3982,77.8681
83.3819,77.8789
83.3628,77.8827
81.5848,77.8827
81.5657,77.8789
81.5494,77.8681
81.5386,77.8518
81.5348,77.8327
Z" /> 
<path style="fill:#000000; fill-opacity:1.0000; stroke:none;fill-rule:evenodd;"
d="M 84.1338,76.3437
84.1376,76.3246
84.1484,76.3083
84.1647,76.2975
84.1838,76.2937
85.0838,76.2937
85.1029,76.2975
85.1192,76.3083
85.1300,76.3246
85.1338,76.3437
85.1338,77.5437
85.1300,77.5628
85.1192,77.5791
85.1029,77.5899
85.0838,77.5937
84.1838,77.5937
84.1647,77.5899
84.1484,77.5791
84.1376,77.5628
84.1338,77.5437
Z" /> 
<path style="fill:#000000; fill-opacity:1.0000; stroke:none;fill-rule:evenodd;"
d="M 87.4338,76.3437
87.4376,76.3246
87.4484,76.3083
87.4647,76.2975
87.4838,76.2937
88.3838,76.2937
88.4029,76.2975
88.4192,76.3083
88.4300,76.3246
88.4338,76.3437
88.4338,77.5437
88.4300,77.5628
88.4192,77.5791
88.4029,77.5899
88.3838,77.5937
87.4838,77.5937
87.4647,77.5899
87.4484,77.5791
87.4376,77.5628
87.4338,77.5437
Z" /> 
</g>
<g style="fill:#000000; fill-opacity:1.0000; stroke:none;">
<circle cx="90.0938" cy="76.9437" r="1.0025" /> 
<path style="fill:#000000; fill-opacity:1.0000; stroke:none;fill-rule:evenodd;"
d="M 43.6348,15.1947
43.6386,15.1756
43.6494,15.1593
43.6657,15.1485
43.6848,15.1447
45.4628,15.1447
45.4819,15.1485
45.4982,15.1593
45.5090,15.1756
45.5128,15.1947
45.5128,16.9727
45.5090,16.9918
45.4982,17.0081
45.4819,17.0189
45.4628,17.0227
43.6848,17.0227
43.6657,17.0189
43.6494,17.0081
43.6386,16.9918
43.6348,16.9727
Z" /> 
<path style="fill:#000000; fill-opacity:1.0000; stroke:none;fill-rule:evenodd;"
d="M 46.2338,15.4837
46.2376,15.4646
46.2484,15.4483
46.2647,15.4375
46.2838,15.4337
47.1838,15.4337
47.2029,15.4375
47.2192,15.4483
47.2300,15.4646
47.2338,15.4837
47.2338,16.6837
47.2300,16.7028
47.2192,16.7191
47.2029,16.7299
47.1838,16.7337
46.2838,16.7337
46.2647,16.7299
46.2484,16.7191
46.2376,16.7028
46.2338,16.6837
Z" /> 
<path style="fill:#000000; fill-opacity:1.0000; stroke:none;fill-rule:evenodd;"
d="M 49.5338,15.4837
49.5376,15.4646
49.5484,15.4483
49.5647,15.4375
49.5838,15.4337
50.4838,15.4337
50.5029,15.4375
50.5192,15.4483
50.5300,15.4646
50.5338,15.4837
50.5338,16.6837
50.5300,16.7028
50.5192,16.7191
50.5029,16.7299
50.4838,16.7337
49.5838,16.7337
49.5647,16.7299
49.5484,16.7191
49.5376,16.7028
49.5338,16.6837
Z" /> 
</g>
<g style="fill:#000000; fill-opacity:1.0000; stroke:none;">
<circle cx="52.1938" cy="16.0837" r="1.0025" /> 
<path style="fill:#000000; fill-opacity:1.0000; stroke:none;fill-rule:evenodd;"
d="M 81.6348,38.0047
81.6386,37.9856
81.6494,37.9693
81.6657,37.9585
81.6848,37.9547
83.4628,37.9547
83.4819,37.9585
83.4982,37.9693
83.5090,37.9856
83.5128,38.0047
83.5128,39.7827
83.5090,39.8018
83.4982,39.8181
83.4819,39.8289
83.4628,39.8327
81.6848,39.8327
81.6657,39.8289
81.6494,39.8181
81.6386,39.8018
81.6348,39.7827
Z" /> 
<path style="fill:#000000; fill-opacity:1.0000; stroke:none;fill-rule:evenodd;"
d="M 84.2338,38.2937
84.2376,38.2746
84.2484,38.2583
84.2647,38.2475
84.2838,38.2437
85.1838,38.2437
85.2029,38.2475
85.2192,38.2583
85.2300,38.2746
85.2338,38.2937
85.2338,39.4937
85.2300,39.5128
85.2192,39.5291
85.2029,39.5399
85.1838,39.5437
84.2838,39.5437
84.2647,39.5399
84.2484,39.5291
84.2376,39.5128
84.2338,39.4937
Z" /> 
<path style="fill:#000000; fill-opacity:1.0000; stroke:none;fill-rule:evenodd;"
d="M 87.5338,38.2937
87.5376,38.2746
87.5484,38.2583
87.5647,38.2475
87.5838,38.2437
88.4838,38.2437
88.5029,38.2475
88.5192,38.2583
88.5300,38.2746
88.5338,38.2937
88.5338,39.4937
88.5300,39.5128
88.5192,39.5291
88.5029,39.5399
88.4838,39.5437
87.5838,39.5437
87.5647,39.5399
87.5484,39.5291
87.5376,39.5128
87.5338,39.4937
Z" /> 
</g>
<g style="fill:#000000; fill-opacity:1.0000; stroke:none;">
<circle cx="90.1938" cy="38.8937" r="1.0025" /> 
<path style="fill:#000000; fill-opacity:1.0000; stroke:none;fill-rule:evenodd;"
d="M 62.6348,17.0997
62.6386,17.0806
62.6494,17.0643
62.6657,17.0535
62.6848,17.0497
64.4628,17.0497
64.4819,17.0535
64.4982,17.0643
64.5090,17.0806
64.5128,17.0997
64.5128,18.8777
64.5090,18.8968
64.4982,18.9131
64.4819,18.9239
64.4628,18.9277
62.6848,18.9277
62.6657,18.9239
62.6494,18.9131
62.6386,18.8968
62.6348,18.8777
Z" /> 
<path style="fill:#000000; fill-opacity:1.0000; stroke:none;fill-rule:evenodd;"
d="M 65.2338,17.3887
65.2376,17.3696
65.2484,17.3533
65.2647,17.3425
65.2838,17.3387
66.1838,17.3387
66.2029,17.3425
66.2192,17.3533
66.2300,17.3696
66.2338,17.3887
66.2338,18.5887
66.2300,18.6078
66.2192,18.6241
66.2029,18.6349
66.1838,18.6387
65.2838,18.6387
65.2647,18.6349
65.2484,18.6241
65.2376,18.6078
65.2338,18.5887
Z" /> 
<path style="fill:#000000; fill-opacity:1.0000; stroke:none;fill-rule:evenodd;"
d="M 68.5338,17.3887
68.5376,17.3696
68.5484,17.3533
68.5647,17.3425
68.5838,17.3387
69.4838,17.3387
69.5029,17.3425
69.5192,17.3533
69.5300,17.3696
69.5338,17.3887
69.5338,18.5887
69.5300,18.6078
69.5192,18.6241
69.5029,18.6349
69.4838,18.6387
68.5838,18.6387
68.5647,18.6349
68.5484,18.6241
68.5376,18.6078
68.5338,18.5887
Z" /> 
</g>
<g style="fill:#000000; fill-opacity:1.0000; stroke:none;">
<circle cx="71.1938" cy="17.9887" r="1.0025" /> 
<path style="fill:#000000; fill-opacity:1.0000; stroke:none;fill-rule:evenodd;"
d="M 43.6348,53.1947
43.6386,53.1756
43.6494,53.1593
43.6657,53.1485
43.6848,53.1447
45.4628,53.1447
45.4819,53.1485
45.4982,53.1593
45.5090,53.1756
45.5128,53.1947
45.5128,54.9727
45.5090,54.9918
45.4982,55.0081
45.4819,55.0189
45.4628,55.0227
43.6848,55.0227
43.6657,55.0189
43.6494,55.0081
43.6386,54.9918
43.6348,54.9727
Z" /> 
<path style="fill:#000000; fill-opacity:1.0000; stroke:none;fill-rule:evenodd;"
d="M 46.2338,53.4837
46.2376,53.4646
46.2484,53.4483
46.2647,53.4375
46.2838,53.4337
47.1838,53.4337
47.2029,53.4375
47.2192,53.4483
47.2300,53.4646
47.2338,53.4837
47.2338,54.6837
47.2300,54.7028
47.2192,54.7191
47.2029,54.7299
47.1838,54.7337
46.2838,54.7337
46.2647,54.7299
46.2484,54.7191
46.2376,54.7028
46.2338,54.6837
Z" /> 
<path style="fill:#000000; fill-opacity:1.0000; stroke:none;fill-rule:evenodd;"
d="M 49.5338,53.4837
49.5376,53.4646
49.5484,53.4483
49.5647,53.4375
49.5838,53.4337
50.4838,53.4337
50.5029,53.4375
50.5192,53.4483
50.5300,53.4646
50.5338,53.4837
50.5338,54.6837
50.5300,54.7028
50.5192,54.7191
50.5029,54.7299
50.4838,54.7337
49.5838,54.7337
49.5647,54.7299
49.5484,54.7191
49.5376,54.7028
49.5338,54.6837
Z" /> 
</g>
<g style="fill:#000000; fill-opacity:1.0000; stroke:none;">
<circle cx="52.1938" cy="54.0837" r="1.0025" /> 
</g>
<g style="fill:#000000; fill-opacity:1.0000; stroke:none;">
<circle cx="62.3038" cy="12.9887" r="0.9009" /> 
</g>
<g style="fill:#000000; fill-opacity:1.0000; stroke:none;">
<circle cx="67.3838" cy="12.9887" r="2.0439" /> 
</g>
<g style="fill:#000000; fill-opacity:1.0000; stroke:none;">
<circle cx="72.4638" cy="12.9887" r="0.9009" /> 
</g>
<g style="fill:#000000; fill-opacity:1.0000; stroke:none;">
<circle cx="64.8438" cy="7.9087" r="1.1930" /> 
</g>
<g style="fill:#000000; fill-opacity:1.0000; stroke:none;">
<circle cx="69.9238" cy="7.9087" r="1.1930" /> 
</g>
<g style="fill:#000000; fill-opacity:1.0000; stroke:none;">
<circle cx="63.5738" cy="10.4487" r="1.1930" /> 
</g>
<g style="fill:#000000; fill-opacity:1.0000; stroke:none;">
<circle cx="71.1938" cy="10.4487" r="1.1930" /> 
<path style="fill:#000000; fill-opacity:1.0000; stroke:none;fill-rule:evenodd;"
d="M 5.6348,19.0047
5.6386,18.9856
5.6494,18.9693
5.6657,18.9585
5.6848,18.9547
7.4628,18.9547
7.4819,18.9585
7.4982,18.9693
7.5090,18.9856
7.5128,19.0047
7.5128,20.7827
7.5090,20.8018
7.4982,20.8181
7.4819,20.8289
7.4628,20.8327
5.6848,20.8327
5.6657,20.8289
5.6494,20.8181
5.6386,20.8018
5.6348,20.7827
Z" /> 
<path style="fill:#000000; fill-opacity:1.0000; stroke:none;fill-rule:evenodd;"
d="M 8.2338,19.2937
8.2376,19.2746
8.2484,19.2583
8.2647,19.2475
8.2838,19.2437
9.1838,19.2437
9.2029,19.2475
9.2192,19.2583
9.2300,19.2746
9.2338,19.2937
9.2338,20.4937
9.2300,20.5128
9.2192,20.5291
9.2029,20.5399
9.1838,20.5437
8.2838,20.5437
8.2647,20.5399
8.2484,20.5291
8.2376,20.5128
8.2338,20.4937
Z" /> 
<path style="fill:#000000; fill-opacity:1.0000; stroke:none;fill-rule:evenodd;"
d="M 11.5338,19.2937
11.5376,19.2746
11.5484,19.2583
11.5647,19.2475
11.5838,19.2437
12.4838,19.2437
12.5029,19.2475
12.5192,19.2583
12.5300,19.2746
12.5338,19.2937
12.5338,20.4937
12.5300,20.5128
12.5192,20.5291
12.5029,20.5399
12.4838,20.5437
11.5838,20.5437
11.5647,20.5399
11.5484,20.5291
11.5376,20.5128
11.5338,20.4937
Z" /> 
</g>
<g style="fill:#000000; fill-opacity:1.0000; stroke:none;">
<circle cx="14.1938" cy="19.8937" r="1.0025" /> 
</g>
<g style="fill:#000000; fill-opacity:1.0000; stroke:none;">
<circle cx="43.2038" cy="70.0387" r="0.9009" /> 
</g>
<g style="fill:#000000; fill-opacity:1.0000; stroke:none;">
<circle cx="48.2838" cy="70.0387" r="2.0439" /> 
</g>
<g style="fill:#000000; fill-opacity:1.0000; stroke:none;">
<circle cx="53.3638" cy="70.0387" r="0.9009" /> 
</g>
<g style="fill:#000000; fill-opacity:1.0000; stroke:none;">
<circle cx="45.7438" cy="64.9587" r="1.1930" /> 
</g>
<g style="fill:#000000; fill-opacity:1.0000; stroke:none;">
<circle cx="50.8238" cy="64.9587" r="1.1930" /> 
</g>
<g style="fill:#000000; fill-opacity:1.0000; stroke:none;">
<circle cx="44.4738" cy="67.4987" r="1.1930" /> 
</g>
<g style="fill:#000000; fill-opacity:1.0000; stroke:none;">
<circle cx="52.0938" cy="67.4987" r="1.1930" /> 
</g>
<g style="fill:#000000; fill-opacity:1.0000; stroke:none;">
<circle cx="62.3038" cy="31.9887" r="0.9009" /> 
</g>
<g style="fill:#000000; fill-opacity:1.0000; stroke:none;">
<circle cx="67.3838" cy="31.9887" r="2.0439" /> 
</g>
<g style="fill:#000000; fill-opacity:1.0000; stroke:none;">
<circle cx="72.4638" cy="31.9887" r="0.9009" /> 
</g>
<g style="fill:#000000; fill-opacity:1.0000; stroke:none;">
<circle cx="64.8438" cy="26.9087" r="1.1930" /> 
</g>
<g style="fill:#000000; fill-opacity:1.0000; stroke:none;">
<circle cx="69.9238" cy="26.9087" r="1.1930" /> 
</g>
<g style="fill:#000000; fill-opacity:1.0000; stroke:none;">
<circle cx="63.5738" cy="29.4487" r="1.1930" /> 
</g>
<g style="fill:#000000; fill-opacity:1.0000; stroke:none;">
<circle cx="71.1938" cy="29.4487" r="1.1930" /> 
</g>
<g style="fill:#000000; fill-opacity:1.0000; stroke:none;">
<circle cx="43.3038" cy="11.0837" r="0.9009" /> 
</g>
<g style="fill:#000000; fill-opacity:1.0000; stroke:none;">
<circle cx="48.3838" cy="11.0837" r="2.0439" /> 
</g>
<g style="fill:#000000; fill-opacity:1.0000; stroke:none;">
<circle cx="53.4638" cy="11.0837" r="0.9009" /> 
</g>
<g style="fill:#000000; fill-opacity:1.0000; stroke:none;">
<circle cx="45.8438" cy="6.0037" r="1.1930" /> 
</g>
<g style="fill:#000000; fill-opacity:1.0000; stroke:none;">
<circle cx="50.9238" cy="6.0037" r="1.1930" /> 
</g>
<g style="fill:#000000; fill-opacity:1.0000; stroke:none;">
<circle cx="44.5738" cy="8.5437" r="1.1930" /> 
</g>
<g style="fill:#000000; fill-opacity:1.0000; stroke:none;">
<circle cx="52.1938" cy="8.5437" r="1.1930" /> 
<path style="fill:#000000; fill-opacity:1.0000; stroke:none;fill-rule:evenodd;"
d="M 112.9304,71.2148
112.9165,71.2011
112.9088,71.1832
112.9085,71.1637
112.9157,71.1456
113.8841,69.6544
113.8977,69.6405
113.9156,69.6328
113.9351,69.6325
113.9533,69.6397
115.4444,70.6081
115.4584,70.6217
115.4661,70.6396
115.4663,70.6592
115.4591,70.6773
114.4908,72.1684
114.4771,72.1824
114.4592,72.1901
114.4397,72.1904
114.4216,72.1831
Z" /> 
<path style="fill:#000000; fill-opacity:1.0000; stroke:none;fill-rule:evenodd;"
d="M 114.5883,69.1925
114.5743,69.1788
114.5666,69.1609
114.5664,69.1414
114.5736,69.1233
115.0638,68.3685
115.0774,68.3545
115.0953,68.3468
115.1148,68.3466
115.1330,68.3538
116.1394,69.0074
116.1533,69.0210
116.1610,69.0389
116.1613,69.0584
116.1541,69.0765
115.6639,69.8313
115.6503,69.8453
115.6324,69.8530
115.6128,69.8533
115.5947,69.8460
Z" /> 
<path style="fill:#000000; fill-opacity:1.0000; stroke:none;fill-rule:evenodd;"
d="M 116.3856,66.4248
116.3717,66.4112
116.3640,66.3933
116.3637,66.3738
116.3709,66.3557
116.8611,65.6009
116.8747,65.5869
116.8926,65.5792
116.9122,65.5789
116.9303,65.5862
117.9367,66.2397
117.9506,66.2534
117.9584,66.2713
117.9586,66.2908
117.9514,66.3089
117.4612,67.0637
117.4476,67.0777
117.4297,67.0854
117.4102,67.0856
117.3920,67.0784
Z" /> 
</g>
<g style="fill:#000000; fill-opacity:1.0000; stroke:none;">
<circle cx="118.3376" cy="64.5208" r="1.0025" /> 
</g>
<g style="fill:#000000; fill-opacity:1.0000; stroke:none;">
<circle cx="18.2588" cy="22.5137" r="0.4000" /> 
</g>
<g style="fill:#000000; fill-opacity:1.0000; stroke:none;">
<circle cx="18.7421" cy="21.3470" r="0.4000" /> 
</g>
<g style="fill:#000000; fill-opacity:1.0000; stroke:none;">
<circle cx="18.7421" cy="23.6804" r="0.4000" /> 
</g>
<g style="fill:#000000; fill-opacity:1.0000; stroke:none;">
<circle cx="19.9088" cy="20.8637" r="0.4000" /> 
</g>
<g style="fill:#000000; fill-opacity:1.0000; stroke:none;">
<circle cx="19.9088" cy="22.5137" r="2.2500" /> 
</g>
<g style="fill:#000000; fill-opacity:1.0000; stroke:none;">
<circle cx="19.9088" cy="24.1637" r="0.4000" /> 
</g>
<g style="fill:#000000; fill-opacity:1.0000; stroke:none;">
<circle cx="21.0755" cy="21.3470" r="0.4000" /> 
</g>
<g style="fill:#000000; fill-opacity:1.0000; stroke:none;">
<circle cx="21.0755" cy="23.6804" r="0.4000" /> 
</g>
<g style="fill:#000000; fill-opacity:1.0000; stroke:none;">
<circle cx="21.5588" cy="22.5137" r="0.4000" /> 
<path style="fill:#000000; fill-opacity:1.0000; stroke:none;fill-rule:evenodd;"
d="M 100.5951,9.5224
100.6142,9.5262
100.6305,9.5370
100.6413,9.5533
100.6451,9.5724
100.6451,11.3250
100.6413,11.3441
100.6305,11.3604
100.6142,11.3712
100.5951,11.3750
98.8425,11.3750
98.8234,11.3712
98.8071,11.3604
98.7963,11.3441
98.7925,11.3250
98.7925,9.5724
98.7963,9.5533
98.8071,9.5370
98.8234,9.5262
98.8425,9.5224
Z" /> 
</g>
<g style="fill:#000000; fill-opacity:1.0000; stroke:none;">
<circle cx="99.7188" cy="12.9887" r="0.9263" /> 
</g>
<g style="fill:#000000; fill-opacity:1.0000; stroke:none;">
<circle cx="99.7188" cy="15.5287" r="0.9263" /> 
</g>
<g style="fill:#000000; fill-opacity:1.0000; stroke:none;">
<circle cx="99.7188" cy="18.0687" r="0.9263" /> 
</g>
<g style="fill:#000000; fill-opacity:1.0000; stroke:none;">
<circle cx="99.7188" cy="20.6087" r="0.9263" /> 
</g>
<g style="fill:#000000; fill-opacity:1.0000; stroke:none;">
<circle cx="99.7188" cy="23.1487" r="0.9263" /> 
</g>
<g style="fill:#000000; fill-opacity:1.0000; stroke:none;">
<circle cx="99.7188" cy="25.6887" r="0.9263" /> 
</g>
<g style="fill:#000000; fill-opacity:1.0000; stroke:none;">
<circle cx="99.7188" cy="28.2287" r="0.9263" /> 
</g>
<g style="fill:#000000; fill-opacity:1.0000; stroke:none;">
<circle cx="99.7188" cy="30.7687" r="0.9263" /> 
</g>
<g style="fill:#000000; fill-opacity:1.0000; stroke:none;">
<circle cx="99.7188" cy="33.3087" r="0.9263" /> 
</g>
<g style="fill:#000000; fill-opacity:1.0000; stroke:none;">
<circle cx="99.7188" cy="35.8487" r="0.9263" /> 
</g>
<g style="fill:#000000; fill-opacity:1.0000; stroke:none;">
<circle cx="99.7188" cy="38.3887" r="0.9263" /> 
</g>
<g style="fill:#000000; fill-opacity:1.0000; stroke:none;">
<circle cx="114.9588" cy="10.4487" r="0.9263" /> 
</g>
<g style="fill:#000000; fill-opacity:1.0000; stroke:none;">
<circle cx="114.9588" cy="12.9887" r="0.9263" /> 
</g>
<g style="fill:#000000; fill-opacity:1.0000; stroke:none;">
<circle cx="114.9588" cy="15.5287" r="0.9263" /> 
</g>
<g style="fill:#000000; fill-opacity:1.0000; stroke:none;">
<circle cx="114.9588" cy="18.0687" r="0.9263" /> 
</g>
<g style="fill:#000000; fill-opacity:1.0000; stroke:none;">
<circle cx="114.9588" cy="20.6087" r="0.9263" /> 
</g>
<g style="fill:#000000; fill-opacity:1.0000; stroke:none;">
<circle cx="114.9588" cy="23.1487" r="0.9263" /> 
</g>
<g style="fill:#000000; fill-opacity:1.0000; stroke:none;">
<circle cx="114.9588" cy="25.6887" r="0.9263" /> 
</g>
<g style="fill:#000000; fill-opacity:1.0000; stroke:none;">
<circle cx="114.9588" cy="28.2287" r="0.9263" /> 
</g>
<g style="fill:#000000; fill-opacity:1.0000; stroke:none;">
<circle cx="114.9588" cy="30.7687" r="0.9263" /> 
</g>
<g style="fill:#000000; fill-opacity:1.0000; stroke:none;">
<circle cx="114.9588" cy="33.3087" r="0.9263" /> 
</g>
<g style="fill:#000000; fill-opacity:1.0000; stroke:none;">
<circle cx="114.9588" cy="35.8487" r="0.9263" /> 
</g>
<g style="fill:#000000; fill-opacity:1.0000; stroke:none;">
<circle cx="114.9588" cy="38.3887" r="0.9263" /> 
<path style="fill:#000000; fill-opacity:1.0000; stroke:none;fill-rule:evenodd;"
d="M 62.6348,55.0997
62.6386,55.0806
62.6494,55.0643
62.6657,55.0535
62.6848,55.0497
64.4628,55.0497
64.4819,55.0535
64.4982,55.0643
64.5090,55.0806
64.5128,55.0997
64.5128,56.8777
64.5090,56.8968
64.4982,56.9131
64.4819,56.9239
64.4628,56.9277
62.6848,56.9277
62.6657,56.9239
62.6494,56.9131
62.6386,56.8968
62.6348,56.8777
Z" /> 
<path style="fill:#000000; fill-opacity:1.0000; stroke:none;fill-rule:evenodd;"
d="M 65.2338,55.3887
65.2376,55.3696
65.2484,55.3533
65.2647,55.3425
65.2838,55.3387
66.1838,55.3387
66.2029,55.3425
66.2192,55.3533
66.2300,55.3696
66.2338,55.3887
66.2338,56.5887
66.2300,56.6078
66.2192,56.6241
66.2029,56.6349
66.1838,56.6387
65.2838,56.6387
65.2647,56.6349
65.2484,56.6241
65.2376,56.6078
65.2338,56.5887
Z" /> 
<path style="fill:#000000; fill-opacity:1.0000; stroke:none;fill-rule:evenodd;"
d="M 68.5338,55.3887
68.5376,55.3696
68.5484,55.3533
68.5647,55.3425
68.5838,55.3387
69.4838,55.3387
69.5029,55.3425
69.5192,55.3533
69.5300,55.3696
69.5338,55.3887
69.5338,56.5887
69.5300,56.6078
69.5192,56.6241
69.5029,56.6349
69.4838,56.6387
68.5838,56.6387
68.5647,56.6349
68.5484,56.6241
68.5376,56.6078
68.5338,56.5887
Z" /> 
</g>
<g style="fill:#000000; fill-opacity:1.0000; stroke:none;">
<circle cx="71.1938" cy="55.9887" r="1.0025" /> 
<path style="fill:#000000; fill-opacity:1.0000; stroke:none;fill-rule:evenodd;"
d="M 5.6348,57.0047
5.6386,56.9856
5.6494,56.9693
5.6657,56.9585
5.6848,56.9547
7.4628,56.9547
7.4819,56.9585
7.4982,56.9693
7.5090,56.9856
7.5128,57.0047
7.5128,58.7827
7.5090,58.8018
7.4982,58.8181
7.4819,58.8289
7.4628,58.8327
5.6848,58.8327
5.6657,58.8289
5.6494,58.8181
5.6386,58.8018
5.6348,58.7827
Z" /> 
<path style="fill:#000000; fill-opacity:1.0000; stroke:none;fill-rule:evenodd;"
d="M 8.2338,57.2937
8.2376,57.2746
8.2484,57.2583
8.2647,57.2475
8.2838,57.2437
9.1838,57.2437
9.2029,57.2475
9.2192,57.2583
9.2300,57.2746
9.2338,57.2937
9.2338,58.4937
9.2300,58.5128
9.2192,58.5291
9.2029,58.5399
9.1838,58.5437
8.2838,58.5437
8.2647,58.5399
8.2484,58.5291
8.2376,58.5128
8.2338,58.4937
Z" /> 
<path style="fill:#000000; fill-opacity:1.0000; stroke:none;fill-rule:evenodd;"
d="M 11.5338,57.2937
11.5376,57.2746
11.5484,57.2583
11.5647,57.2475
11.5838,57.2437
12.4838,57.2437
12.5029,57.2475
12.5192,57.2583
12.5300,57.2746
12.5338,57.2937
12.5338,58.4937
12.5300,58.5128
12.5192,58.5291
12.5029,58.5399
12.4838,58.5437
11.5838,58.5437
11.5647,58.5399
11.5484,58.5291
11.5376,58.5128
11.5338,58.4937
Z" /> 
</g>
<g style="fill:#000000; fill-opacity:1.0000; stroke:none;">
<circle cx="14.1938" cy="57.8937" r="1.0025" /> 
<path style="fill:#000000; fill-opacity:1.0000; stroke:none;fill-rule:evenodd;"
d="M 62.5348,74.1497
62.5386,74.1306
62.5494,74.1143
62.5657,74.1035
62.5848,74.0997
64.3628,74.0997
64.3819,74.1035
64.3982,74.1143
64.4090,74.1306
64.4128,74.1497
64.4128,75.9277
64.4090,75.9468
64.3982,75.9631
64.3819,75.9739
64.3628,75.9777
62.5848,75.9777
62.5657,75.9739
62.5494,75.9631
62.5386,75.9468
62.5348,75.9277
Z" /> 
<path style="fill:#000000; fill-opacity:1.0000; stroke:none;fill-rule:evenodd;"
d="M 65.1338,74.4387
65.1376,74.4196
65.1484,74.4033
65.1647,74.3925
65.1838,74.3887
66.0838,74.3887
66.1029,74.3925
66.1192,74.4033
66.1300,74.4196
66.1338,74.4387
66.1338,75.6387
66.1300,75.6578
66.1192,75.6741
66.1029,75.6849
66.0838,75.6887
65.1838,75.6887
65.1647,75.6849
65.1484,75.6741
65.1376,75.6578
65.1338,75.6387
Z" /> 
<path style="fill:#000000; fill-opacity:1.0000; stroke:none;fill-rule:evenodd;"
d="M 68.4338,74.4387
68.4376,74.4196
68.4484,74.4033
68.4647,74.3925
68.4838,74.3887
69.3838,74.3887
69.4029,74.3925
69.4192,74.4033
69.4300,74.4196
69.4338,74.4387
69.4338,75.6387
69.4300,75.6578
69.4192,75.6741
69.4029,75.6849
69.3838,75.6887
68.4838,75.6887
68.4647,75.6849
68.4484,75.6741
68.4376,75.6578
68.4338,75.6387
Z" /> 
</g>
<g style="fill:#000000; fill-opacity:1.0000; stroke:none;">
<circle cx="71.0938" cy="75.0387" r="1.0025" /> 
</g>
<g style="fill:#000000; fill-opacity:1.0000; stroke:none;">
<circle cx="5.3038" cy="52.8937" r="0.9009" /> 
</g>
<g style="fill:#000000; fill-opacity:1.0000; stroke:none;">
<circle cx="10.3838" cy="52.8937" r="2.0439" /> 
</g>
<g style="fill:#000000; fill-opacity:1.0000; stroke:none;">
<circle cx="15.4638" cy="52.8937" r="0.9009" /> 
</g>
<g style="fill:#000000; fill-opacity:1.0000; stroke:none;">
<circle cx="7.8438" cy="47.8137" r="1.1930" /> 
</g>
<g style="fill:#000000; fill-opacity:1.0000; stroke:none;">
<circle cx="12.9238" cy="47.8137" r="1.1930" /> 
</g>
<g style="fill:#000000; fill-opacity:1.0000; stroke:none;">
<circle cx="6.5738" cy="50.3537" r="1.1930" /> 
</g>
<g style="fill:#000000; fill-opacity:1.0000; stroke:none;">
<circle cx="14.1938" cy="50.3537" r="1.1930" /> 
</g>
<g style="fill:#000000; fill-opacity:1.0000; stroke:none;">
<circle cx="62.3038" cy="50.9887" r="0.9009" /> 
</g>
<g style="fill:#000000; fill-opacity:1.0000; stroke:none;">
<circle cx="67.3838" cy="50.9887" r="2.0439" /> 
</g>
<g style="fill:#000000; fill-opacity:1.0000; stroke:none;">
<circle cx="72.4638" cy="50.9887" r="0.9009" /> 
</g>
<g style="fill:#000000; fill-opacity:1.0000; stroke:none;">
<circle cx="64.8438" cy="45.9087" r="1.1930" /> 
</g>
<g style="fill:#000000; fill-opacity:1.0000; stroke:none;">
<circle cx="69.9238" cy="45.9087" r="1.1930" /> 
</g>
<g style="fill:#000000; fill-opacity:1.0000; stroke:none;">
<circle cx="63.5738" cy="48.4487" r="1.1930" /> 
</g>
<g style="fill:#000000; fill-opacity:1.0000; stroke:none;">
<circle cx="71.1938" cy="48.4487" r="1.1930" /> 
</g>
<g style="fill:#000000; fill-opacity:1.0000; stroke:none;">
<circle cx="62.2038" cy="70.0387" r="0.9009" /> 
</g>
<g style="fill:#000000; fill-opacity:1.0000; stroke:none;">
<circle cx="67.2838" cy="70.0387" r="2.0439" /> 
</g>
<g style="fill:#000000; fill-opacity:1.0000; stroke:none;">
<circle cx="72.3638" cy="70.0387" r="0.9009" /> 
</g>
<g style="fill:#000000; fill-opacity:1.0000; stroke:none;">
<circle cx="64.7438" cy="64.9587" r="1.1930" /> 
</g>
<g style="fill:#000000; fill-opacity:1.0000; stroke:none;">
<circle cx="69.8238" cy="64.9587" r="1.1930" /> 
</g>
<g style="fill:#000000; fill-opacity:1.0000; stroke:none;">
<circle cx="63.4738" cy="67.4987" r="1.1930" /> 
</g>
<g style="fill:#000000; fill-opacity:1.0000; stroke:none;">
<circle cx="71.0938" cy="67.4987" r="1.1930" /> 
</g>
<g style="fill:#000000; fill-opacity:1.0000; stroke:none;">
<circle cx="18.2588" cy="60.5137" r="0.4000" /> 
</g>
<g style="fill:#000000; fill-opacity:1.0000; stroke:none;">
<circle cx="18.7421" cy="59.3470" r="0.4000" /> 
</g>
<g style="fill:#000000; fill-opacity:1.0000; stroke:none;">
<circle cx="18.7421" cy="61.6804" r="0.4000" /> 
</g>
<g style="fill:#000000; fill-opacity:1.0000; stroke:none;">
<circle cx="19.9088" cy="58.8637" r="0.4000" /> 
</g>
<g style="fill:#000000; fill-opacity:1.0000; stroke:none;">
<circle cx="19.9088" cy="60.5137" r="2.2500" /> 
</g>
<g style="fill:#000000; fill-opacity:1.0000; stroke:none;">
<circle cx="19.9088" cy="62.1637" r="0.4000" /> 
</g>
<g style="fill:#000000; fill-opacity:1.0000; stroke:none;">
<circle cx="21.0755" cy="59.3470" r="0.4000" /> 
</g>
<g style="fill:#000000; fill-opacity:1.0000; stroke:none;">
<circle cx="21.0755" cy="61.6804" r="0.4000" /> 
</g>
<g style="fill:#000000; fill-opacity:1.0000; stroke:none;">
<circle cx="21.5588" cy="60.5137" r="0.4000" /> 
<path style="fill:#000000; fill-opacity:1.0000; stroke:none;fill-rule:evenodd;"
d="M 43.6348,34.1947
43.6386,34.1756
43.6494,34.1593
43.6657,34.1485
43.6848,34.1447
45.4628,34.1447
45.4819,34.1485
45.4982,34.1593
45.5090,34.1756
45.5128,34.1947
45.5128,35.9727
45.5090,35.9918
45.4982,36.0081
45.4819,36.0189
45.4628,36.0227
43.6848,36.0227
43.6657,36.0189
43.6494,36.0081
43.6386,35.9918
43.6348,35.9727
Z" /> 
<path style="fill:#000000; fill-opacity:1.0000; stroke:none;fill-rule:evenodd;"
d="M 46.2338,34.4837
46.2376,34.4646
46.2484,34.4483
46.2647,34.4375
46.2838,34.4337
47.1838,34.4337
47.2029,34.4375
47.2192,34.4483
47.2300,34.4646
47.2338,34.4837
47.2338,35.6837
47.2300,35.7028
47.2192,35.7191
47.2029,35.7299
47.1838,35.7337
46.2838,35.7337
46.2647,35.7299
46.2484,35.7191
46.2376,35.7028
46.2338,35.6837
Z" /> 
<path style="fill:#000000; fill-opacity:1.0000; stroke:none;fill-rule:evenodd;"
d="M 49.5338,34.4837
49.5376,34.4646
49.5484,34.4483
49.5647,34.4375
49.5838,34.4337
50.4838,34.4337
50.5029,34.4375
50.5192,34.4483
50.5300,34.4646
50.5338,34.4837
50.5338,35.6837
50.5300,35.7028
50.5192,35.7191
50.5029,35.7299
50.4838,35.7337
49.5838,35.7337
49.5647,35.7299
49.5484,35.7191
49.5376,35.7028
49.5338,35.6837
Z" /> 
</g>
<g style="fill:#000000; fill-opacity:1.0000; stroke:none;">
<circle cx="52.1938" cy="35.0837" r="1.0025" /> 
<path style="fill:#000000; fill-opacity:1.0000; stroke:none;fill-rule:evenodd;"
d="M 43.5348,74.1497
43.5386,74.1306
43.5494,74.1143
43.5657,74.1035
43.5848,74.0997
45.3628,74.0997
45.3819,74.1035
45.3982,74.1143
45.4090,74.1306
45.4128,74.1497
45.4128,75.9277
45.4090,75.9468
45.3982,75.9631
45.3819,75.9739
45.3628,75.9777
43.5848,75.9777
43.5657,75.9739
43.5494,75.9631
43.5386,75.9468
43.5348,75.9277
Z" /> 
<path style="fill:#000000; fill-opacity:1.0000; stroke:none;fill-rule:evenodd;"
d="M 46.1338,74.4387
46.1376,74.4196
46.1484,74.4033
46.1647,74.3925
46.1838,74.3887
47.0838,74.3887
47.1029,74.3925
47.1192,74.4033
47.1300,74.4196
47.1338,74.4387
47.1338,75.6387
47.1300,75.6578
47.1192,75.6741
47.1029,75.6849
47.0838,75.6887
46.1838,75.6887
46.1647,75.6849
46.1484,75.6741
46.1376,75.6578
46.1338,75.6387
Z" /> 
<path style="fill:#000000; fill-opacity:1.0000; stroke:none;fill-rule:evenodd;"
d="M 49.4338,74.4387
49.4376,74.4196
49.4484,74.4033
49.4647,74.3925
49.4838,74.3887
50.3838,74.3887
50.4029,74.3925
50.4192,74.4033
50.4300,74.4196
50.4338,74.4387
50.4338,75.6387
50.4300,75.6578
50.4192,75.6741
50.4029,75.6849
50.3838,75.6887
49.4838,75.6887
49.4647,75.6849
49.4484,75.6741
49.4376,75.6578
49.4338,75.6387
Z" /> 
</g>
<g style="fill:#000000; fill-opacity:1.0000; stroke:none;">
<circle cx="52.0938" cy="75.0387" r="1.0025" /> 
<path style="fill:#000000; fill-opacity:1.0000; stroke:none;fill-rule:evenodd;"
d="M 105.1063,44.0137
105.1025,44.0328
105.0917,44.0491
105.0754,44.0599
105.0563,44.0637
103.3563,44.0637
103.3372,44.0599
103.3209,44.0491
103.3101,44.0328
103.3063,44.0137
103.3063,42.3137
103.3101,42.2946
103.3209,42.2783
103.3372,42.2675
103.3563,42.2637
105.0563,42.2637
105.0754,42.2675
105.0917,42.2783
105.1025,42.2946
105.1063,42.3137
Z" /> 
</g>
<g style="fill:#000000; fill-opacity:1.0000; stroke:none;">
<circle cx="106.7463" cy="43.1637" r="0.9000" /> 
<circle cx="109.2863" cy="43.1637" r="0.9000" /> 
<circle cx="111.8263" cy="43.1637" r="0.9000" /> 
<circle cx="75.2588" cy="22.5137" r="0.4000" /> 
</g>
<g style="fill:#000000; fill-opacity:1.0000; stroke:none;">
<circle cx="75.7421" cy="21.3470" r="0.4000" /> 
</g>
<g style="fill:#000000; fill-opacity:1.0000; stroke:none;">
<circle cx="75.7421" cy="23.6804" r="0.4000" /> 
</g>
<g style="fill:#000000; fill-opacity:1.0000; stroke:none;">
<circle cx="76.9088" cy="20.8637" r="0.4000" /> 
</g>
<g style="fill:#000000; fill-opacity:1.0000; stroke:none;">
<circle cx="76.9088" cy="22.5137" r="2.2500" /> 
</g>
<g style="fill:#000000; fill-opacity:1.0000; stroke:none;">
<circle cx="76.9088" cy="24.1637" r="0.4000" /> 
</g>
<g style="fill:#000000; fill-opacity:1.0000; stroke:none;">
<circle cx="78.0755" cy="21.3470" r="0.4000" /> 
</g>
<g style="fill:#000000; fill-opacity:1.0000; stroke:none;">
<circle cx="78.0755" cy="23.6804" r="0.4000" /> 
</g>
<g style="fill:#000000; fill-opacity:1.0000; stroke:none;">
<circle cx="78.5588" cy="22.5137" r="0.4000" /> 
</g>
<g style="fill:#000000; fill-opacity:1.0000; stroke:none;">
<circle cx="121.3813" cy="8.8737" r="0.8000" /> 
</g>
<g style="fill:#000000; fill-opacity:1.0000; stroke:none;">
<circle cx="121.3813" cy="15.8737" r="0.8000" /> 
</g>
<g style="fill:#000000; fill-opacity:1.0000; stroke:none;">
<circle cx="123.6813" cy="8.8737" r="0.8000" /> 
</g>
<g style="fill:#000000; fill-opacity:1.0000; stroke:none;">
<circle cx="123.6813" cy="15.8737" r="0.8000" /> 
</g>
<g style="fill:none; 
stroke:#000000; stroke-width:1.7000; stroke-opacity:1; 
stroke-linecap:round; stroke-linejoin:round;">
<path d="M121.3813 18.2737
L121.3813 18.8737
" />
<path d="M123.6813 18.2737
L123.6813 18.8737
" />
<path d="M119.0813 17.1737
L119.0813 17.7737
" />
<path d="M125.9813 17.1737
L125.9813 17.7737
" />
<path d="M119.0813 13.1737
L119.0813 13.7737
" />
<path d="M125.9813 13.1737
L125.9813 13.7737
" />
<path d="M119.0813 10.1737
L119.0813 10.7737
" />
<path d="M125.9813 10.1737
L125.9813 10.7737
" />
<path style="fill:#000000; fill-opacity:1.0000; stroke:none;fill-rule:evenodd;"
d="M 81.6348,19.0047
81.6386,18.9856
81.6494,18.9693
81.6657,18.9585
81.6848,18.9547
83.4628,18.9547
83.4819,18.9585
83.4982,18.9693
83.5090,18.9856
83.5128,19.0047
83.5128,20.7827
83.5090,20.8018
83.4982,20.8181
83.4819,20.8289
83.4628,20.8327
81.6848,20.8327
81.6657,20.8289
81.6494,20.8181
81.6386,20.8018
81.6348,20.7827
Z" /> 
<path style="fill:#000000; fill-opacity:1.0000; stroke:none;fill-rule:evenodd;"
d="M 84.2338,19.2937
84.2376,19.2746
84.2484,19.2583
84.2647,19.2475
84.2838,19.2437
85.1838,19.2437
85.2029,19.2475
85.2192,19.2583
85.2300,19.2746
85.2338,19.2937
85.2338,20.4937
85.2300,20.5128
85.2192,20.5291
85.2029,20.5399
85.1838,20.5437
84.2838,20.5437
84.2647,20.5399
84.2484,20.5291
84.2376,20.5128
84.2338,20.4937
Z" /> 
<path style="fill:#000000; fill-opacity:1.0000; stroke:none;fill-rule:evenodd;"
d="M 87.5338,19.2937
87.5376,19.2746
87.5484,19.2583
87.5647,19.2475
87.5838,19.2437
88.4838,19.2437
88.5029,19.2475
88.5192,19.2583
88.5300,19.2746
88.5338,19.2937
88.5338,20.4937
88.5300,20.5128
88.5192,20.5291
88.5029,20.5399
88.4838,20.5437
87.5838,20.5437
87.5647,20.5399
87.5484,20.5291
87.5376,20.5128
87.5338,20.4937
Z" /> 
</g>
<g style="fill:#000000; fill-opacity:1.0000; stroke:none;">
<circle cx="90.1938" cy="19.8937" r="1.0025" /> 
<path style="fill:#000000; fill-opacity:1.0000; stroke:none;fill-rule:evenodd;"
d="M 24.6348,17.0997
24.6386,17.0806
24.6494,17.0643
24.6657,17.0535
24.6848,17.0497
26.4628,17.0497
26.4819,17.0535
26.4982,17.0643
26.5090,17.0806
26.5128,17.0997
26.5128,18.8777
26.5090,18.8968
26.4982,18.9131
26.4819,18.9239
26.4628,18.9277
24.6848,18.9277
24.6657,18.9239
24.6494,18.9131
24.6386,18.8968
24.6348,18.8777
Z" /> 
<path style="fill:#000000; fill-opacity:1.0000; stroke:none;fill-rule:evenodd;"
d="M 27.2338,17.3887
27.2376,17.3696
27.2484,17.3533
27.2647,17.3425
27.2838,17.3387
28.1838,17.3387
28.2029,17.3425
28.2192,17.3533
28.2300,17.3696
28.2338,17.3887
28.2338,18.5887
28.2300,18.6078
28.2192,18.6241
28.2029,18.6349
28.1838,18.6387
27.2838,18.6387
27.2647,18.6349
27.2484,18.6241
27.2376,18.6078
27.2338,18.5887
Z" /> 
<path style="fill:#000000; fill-opacity:1.0000; stroke:none;fill-rule:evenodd;"
d="M 30.5338,17.3887
30.5376,17.3696
30.5484,17.3533
30.5647,17.3425
30.5838,17.3387
31.4838,17.3387
31.5029,17.3425
31.5192,17.3533
31.5300,17.3696
31.5338,17.3887
31.5338,18.5887
31.5300,18.6078
31.5192,18.6241
31.5029,18.6349
31.4838,18.6387
30.5838,18.6387
30.5647,18.6349
30.5484,18.6241
30.5376,18.6078
30.5338,18.5887
Z" /> 
</g>
<g style="fill:#000000; fill-opacity:1.0000; stroke:none;">
<circle cx="33.1938" cy="17.9887" r="1.0025" /> 
<path style="fill:#000000; fill-opacity:1.0000; stroke:none;fill-rule:evenodd;"
d="M 24.6348,36.0997
24.6386,36.0806
24.6494,36.0643
24.6657,36.0535
24.6848,36.0497
26.4628,36.0497
26.4819,36.0535
26.4982,36.0643
26.5090,36.0806
26.5128,36.0997
26.5128,37.8777
26.5090,37.8968
26.4982,37.9131
26.4819,37.9239
26.4628,37.9277
24.6848,37.9277
24.6657,37.9239
24.6494,37.9131
24.6386,37.8968
24.6348,37.8777
Z" /> 
<path style="fill:#000000; fill-opacity:1.0000; stroke:none;fill-rule:evenodd;"
d="M 27.2338,36.3887
27.2376,36.3696
27.2484,36.3533
27.2647,36.3425
27.2838,36.3387
28.1838,36.3387
28.2029,36.3425
28.2192,36.3533
28.2300,36.3696
28.2338,36.3887
28.2338,37.5887
28.2300,37.6078
28.2192,37.6241
28.2029,37.6349
28.1838,37.6387
27.2838,37.6387
27.2647,37.6349
27.2484,37.6241
27.2376,37.6078
27.2338,37.5887
Z" /> 
<path style="fill:#000000; fill-opacity:1.0000; stroke:none;fill-rule:evenodd;"
d="M 30.5338,36.3887
30.5376,36.3696
30.5484,36.3533
30.5647,36.3425
30.5838,36.3387
31.4838,36.3387
31.5029,36.3425
31.5192,36.3533
31.5300,36.3696
31.5338,36.3887
31.5338,37.5887
31.5300,37.6078
31.5192,37.6241
31.5029,37.6349
31.4838,37.6387
30.5838,37.6387
30.5647,37.6349
30.5484,37.6241
30.5376,37.6078
30.5338,37.5887
Z" /> 
</g>
<g style="fill:#000000; fill-opacity:1.0000; stroke:none;">
<circle cx="33.1938" cy="36.9887" r="1.0025" /> 
</g>
<g style="fill:#000000; fill-opacity:1.0000; stroke:none;">
<circle cx="116.3750" cy="48.0250" r="0.4000" /> 
</g>
<g style="fill:#000000; fill-opacity:1.0000; stroke:none;">
<circle cx="116.8583" cy="46.8583" r="0.4000" /> 
</g>
<g style="fill:#000000; fill-opacity:1.0000; stroke:none;">
<circle cx="116.8583" cy="49.1917" r="0.4000" /> 
</g>
<g style="fill:#000000; fill-opacity:1.0000; stroke:none;">
<circle cx="118.0250" cy="46.3750" r="0.4000" /> 
</g>
<g style="fill:#000000; fill-opacity:1.0000; stroke:none;">
<circle cx="118.0250" cy="48.0250" r="2.2500" /> 
</g>
<g style="fill:#000000; fill-opacity:1.0000; stroke:none;">
<circle cx="118.0250" cy="49.6750" r="0.4000" /> 
</g>
<g style="fill:#000000; fill-opacity:1.0000; stroke:none;">
<circle cx="119.1917" cy="46.8583" r="0.4000" /> 
</g>
<g style="fill:#000000; fill-opacity:1.0000; stroke:none;">
<circle cx="119.1917" cy="49.1917" r="0.4000" /> 
</g>
<g style="fill:#000000; fill-opacity:1.0000; stroke:none;">
<circle cx="119.6750" cy="48.0250" r="0.4000" /> 
</g>
<g style="fill:#000000; fill-opacity:1.0000; stroke:none;">
<circle cx="94.2588" cy="60.5137" r="0.4000" /> 
</g>
<g style="fill:#000000; fill-opacity:1.0000; stroke:none;">
<circle cx="94.7421" cy="59.3470" r="0.4000" /> 
</g>
<g style="fill:#000000; fill-opacity:1.0000; stroke:none;">
<circle cx="94.7421" cy="61.6804" r="0.4000" /> 
</g>
<g style="fill:#000000; fill-opacity:1.0000; stroke:none;">
<circle cx="95.9088" cy="58.8637" r="0.4000" /> 
</g>
<g style="fill:#000000; fill-opacity:1.0000; stroke:none;">
<circle cx="95.9088" cy="60.5137" r="2.2500" /> 
</g>
<g style="fill:#000000; fill-opacity:1.0000; stroke:none;">
<circle cx="95.9088" cy="62.1637" r="0.4000" /> 
</g>
<g style="fill:#000000; fill-opacity:1.0000; stroke:none;">
<circle cx="97.0755" cy="59.3470" r="0.4000" /> 
</g>
<g style="fill:#000000; fill-opacity:1.0000; stroke:none;">
<circle cx="97.0755" cy="61.6804" r="0.4000" /> 
</g>
<g style="fill:#000000; fill-opacity:1.0000; stroke:none;">
<circle cx="97.5588" cy="60.5137" r="0.4000" /> 
</g>
<g style="fill:#000000; fill-opacity:1.0000; stroke:none;">
<circle cx="24.3038" cy="12.9887" r="0.9009" /> 
</g>
<g style="fill:#000000; fill-opacity:1.0000; stroke:none;">
<circle cx="29.3838" cy="12.9887" r="2.0439" /> 
</g>
<g style="fill:#000000; fill-opacity:1.0000; stroke:none;">
<circle cx="34.4638" cy="12.9887" r="0.9009" /> 
</g>
<g style="fill:#000000; fill-opacity:1.0000; stroke:none;">
<circle cx="26.8438" cy="7.9087" r="1.1930" /> 
</g>
<g style="fill:#000000; fill-opacity:1.0000; stroke:none;">
<circle cx="31.9238" cy="7.9087" r="1.1930" /> 
</g>
<g style="fill:#000000; fill-opacity:1.0000; stroke:none;">
<circle cx="25.5738" cy="10.4487" r="1.1930" /> 
</g>
<g style="fill:#000000; fill-opacity:1.0000; stroke:none;">
<circle cx="33.1938" cy="10.4487" r="1.1930" /> 
</g>
<g style="fill:#000000; fill-opacity:1.0000; stroke:none;">
<circle cx="5.3038" cy="33.8937" r="0.9009" /> 
</g>
<g style="fill:#000000; fill-opacity:1.0000; stroke:none;">
<circle cx="10.3838" cy="33.8937" r="2.0439" /> 
</g>
<g style="fill:#000000; fill-opacity:1.0000; stroke:none;">
<circle cx="15.4638" cy="33.8937" r="0.9009" /> 
</g>
<g style="fill:#000000; fill-opacity:1.0000; stroke:none;">
<circle cx="7.8438" cy="28.8137" r="1.1930" /> 
</g>
<g style="fill:#000000; fill-opacity:1.0000; stroke:none;">
<circle cx="12.9238" cy="28.8137" r="1.1930" /> 
</g>
<g style="fill:#000000; fill-opacity:1.0000; stroke:none;">
<circle cx="6.5738" cy="31.3537" r="1.1930" /> 
</g>
<g style="fill:#000000; fill-opacity:1.0000; stroke:none;">
<circle cx="14.1938" cy="31.3537" r="1.1930" /> 
<path style="fill:#000000; fill-opacity:1.0000; stroke:none;fill-rule:evenodd;"
d="M 24.6348,55.0997
24.6386,55.0806
24.6494,55.0643
24.6657,55.0535
24.6848,55.0497
26.4628,55.0497
26.4819,55.0535
26.4982,55.0643
26.5090,55.0806
26.5128,55.0997
26.5128,56.8777
26.5090,56.8968
26.4982,56.9131
26.4819,56.9239
26.4628,56.9277
24.6848,56.9277
24.6657,56.9239
24.6494,56.9131
24.6386,56.8968
24.6348,56.8777
Z" /> 
<path style="fill:#000000; fill-opacity:1.0000; stroke:none;fill-rule:evenodd;"
d="M 27.2338,55.3887
27.2376,55.3696
27.2484,55.3533
27.2647,55.3425
27.2838,55.3387
28.1838,55.3387
28.2029,55.3425
28.2192,55.3533
28.2300,55.3696
28.2338,55.3887
28.2338,56.5887
28.2300,56.6078
28.2192,56.6241
28.2029,56.6349
28.1838,56.6387
27.2838,56.6387
27.2647,56.6349
27.2484,56.6241
27.2376,56.6078
27.2338,56.5887
Z" /> 
<path style="fill:#000000; fill-opacity:1.0000; stroke:none;fill-rule:evenodd;"
d="M 30.5338,55.3887
30.5376,55.3696
30.5484,55.3533
30.5647,55.3425
30.5838,55.3387
31.4838,55.3387
31.5029,55.3425
31.5192,55.3533
31.5300,55.3696
31.5338,55.3887
31.5338,56.5887
31.5300,56.6078
31.5192,56.6241
31.5029,56.6349
31.4838,56.6387
30.5838,56.6387
30.5647,56.6349
30.5484,56.6241
30.5376,56.6078
30.5338,56.5887
Z" /> 
</g>
<g style="fill:#000000; fill-opacity:1.0000; stroke:none;">
<circle cx="33.1938" cy="55.9887" r="1.0025" /> 
</g>
<g style="fill:#000000; fill-opacity:1.0000; stroke:none;">
<circle cx="5.3038" cy="14.8937" r="0.9009" /> 
</g>
<g style="fill:#000000; fill-opacity:1.0000; stroke:none;">
<circle cx="10.3838" cy="14.8937" r="2.0439" /> 
</g>
<g style="fill:#000000; fill-opacity:1.0000; stroke:none;">
<circle cx="15.4638" cy="14.8937" r="0.9009" /> 
</g>
<g style="fill:#000000; fill-opacity:1.0000; stroke:none;">
<circle cx="7.8438" cy="9.8137" r="1.1930" /> 
</g>
<g style="fill:#000000; fill-opacity:1.0000; stroke:none;">
<circle cx="12.9238" cy="9.8137" r="1.1930" /> 
</g>
<g style="fill:#000000; fill-opacity:1.0000; stroke:none;">
<circle cx="6.5738" cy="12.3537" r="1.1930" /> 
</g>
<g style="fill:#000000; fill-opacity:1.0000; stroke:none;">
<circle cx="14.1938" cy="12.3537" r="1.1930" /> 
</g>
<g style="fill:#000000; fill-opacity:1.0000; stroke:none;">
<circle cx="109.3023" cy="69.2533" r="0.9009" /> 
</g>
<g style="fill:#000000; fill-opacity:1.0000; stroke:none;">
<circle cx="112.0691" cy="64.9929" r="2.0439" /> 
</g>
<g style="fill:#000000; fill-opacity:1.0000; stroke:none;">
<circle cx="114.8359" cy="60.7325" r="0.9009" /> 
</g>
<g style="fill:#000000; fill-opacity:1.0000; stroke:none;">
<circle cx="106.4253" cy="64.3564" r="1.1930" /> 
</g>
<g style="fill:#000000; fill-opacity:1.0000; stroke:none;">
<circle cx="109.1920" cy="60.0959" r="1.1930" /> 
</g>
<g style="fill:#000000; fill-opacity:1.0000; stroke:none;">
<circle cx="107.8638" cy="66.8049" r="1.1930" /> 
</g>
<g style="fill:#000000; fill-opacity:1.0000; stroke:none;">
<circle cx="112.0140" cy="60.4142" r="1.1930" /> 
</g>
<g style="fill:#000000; fill-opacity:1.0000; stroke:none;">
<circle cx="81.3038" cy="14.8937" r="0.9009" /> 
</g>
<g style="fill:#000000; fill-opacity:1.0000; stroke:none;">
<circle cx="86.3838" cy="14.8937" r="2.0439" /> 
</g>
<g style="fill:#000000; fill-opacity:1.0000; stroke:none;">
<circle cx="91.4638" cy="14.8937" r="0.9009" /> 
</g>
<g style="fill:#000000; fill-opacity:1.0000; stroke:none;">
<circle cx="83.8438" cy="9.8137" r="1.1930" /> 
</g>
<g style="fill:#000000; fill-opacity:1.0000; stroke:none;">
<circle cx="88.9238" cy="9.8137" r="1.1930" /> 
</g>
<g style="fill:#000000; fill-opacity:1.0000; stroke:none;">
<circle cx="82.5738" cy="12.3537" r="1.1930" /> 
</g>
<g style="fill:#000000; fill-opacity:1.0000; stroke:none;">
<circle cx="90.1938" cy="12.3537" r="1.1930" /> 
</g>
<g style="fill:#000000; fill-opacity:1.0000; stroke:none;">
<circle cx="24.3038" cy="31.9887" r="0.9009" /> 
</g>
<g style="fill:#000000; fill-opacity:1.0000; stroke:none;">
<circle cx="29.3838" cy="31.9887" r="2.0439" /> 
</g>
<g style="fill:#000000; fill-opacity:1.0000; stroke:none;">
<circle cx="34.4638" cy="31.9887" r="0.9009" /> 
</g>
<g style="fill:#000000; fill-opacity:1.0000; stroke:none;">
<circle cx="26.8438" cy="26.9087" r="1.1930" /> 
</g>
<g style="fill:#000000; fill-opacity:1.0000; stroke:none;">
<circle cx="31.9238" cy="26.9087" r="1.1930" /> 
</g>
<g style="fill:#000000; fill-opacity:1.0000; stroke:none;">
<circle cx="25.5738" cy="29.4487" r="1.1930" /> 
</g>
<g style="fill:#000000; fill-opacity:1.0000; stroke:none;">
<circle cx="33.1938" cy="29.4487" r="1.1930" /> 
<path style="fill:#000000; fill-opacity:1.0000; stroke:none;fill-rule:evenodd;"
d="M 62.6348,36.0997
62.6386,36.0806
62.6494,36.0643
62.6657,36.0535
62.6848,36.0497
64.4628,36.0497
64.4819,36.0535
64.4982,36.0643
64.5090,36.0806
64.5128,36.0997
64.5128,37.8777
64.5090,37.8968
64.4982,37.9131
64.4819,37.9239
64.4628,37.9277
62.6848,37.9277
62.6657,37.9239
62.6494,37.9131
62.6386,37.8968
62.6348,37.8777
Z" /> 
<path style="fill:#000000; fill-opacity:1.0000; stroke:none;fill-rule:evenodd;"
d="M 65.2338,36.3887
65.2376,36.3696
65.2484,36.3533
65.2647,36.3425
65.2838,36.3387
66.1838,36.3387
66.2029,36.3425
66.2192,36.3533
66.2300,36.3696
66.2338,36.3887
66.2338,37.5887
66.2300,37.6078
66.2192,37.6241
66.2029,37.6349
66.1838,37.6387
65.2838,37.6387
65.2647,37.6349
65.2484,37.6241
65.2376,37.6078
65.2338,37.5887
Z" /> 
<path style="fill:#000000; fill-opacity:1.0000; stroke:none;fill-rule:evenodd;"
d="M 68.5338,36.3887
68.5376,36.3696
68.5484,36.3533
68.5647,36.3425
68.5838,36.3387
69.4838,36.3387
69.5029,36.3425
69.5192,36.3533
69.5300,36.3696
69.5338,36.3887
69.5338,37.5887
69.5300,37.6078
69.5192,37.6241
69.5029,37.6349
69.4838,37.6387
68.5838,37.6387
68.5647,37.6349
68.5484,37.6241
68.5376,37.6078
68.5338,37.5887
Z" /> 
</g>
<g style="fill:#000000; fill-opacity:1.0000; stroke:none;">
<circle cx="71.1938" cy="36.9887" r="1.0025" /> 
</g>
<g style="fill:#000000; fill-opacity:1.0000; stroke:none;">
<circle cx="43.3038" cy="30.0837" r="0.9009" /> 
</g>
<g style="fill:#000000; fill-opacity:1.0000; stroke:none;">
<circle cx="48.3838" cy="30.0837" r="2.0439" /> 
</g>
<g style="fill:#000000; fill-opacity:1.0000; stroke:none;">
<circle cx="53.4638" cy="30.0837" r="0.9009" /> 
</g>
<g style="fill:#000000; fill-opacity:1.0000; stroke:none;">
<circle cx="45.8438" cy="25.0037" r="1.1930" /> 
</g>
<g style="fill:#000000; fill-opacity:1.0000; stroke:none;">
<circle cx="50.9238" cy="25.0037" r="1.1930" /> 
</g>
<g style="fill:#000000; fill-opacity:1.0000; stroke:none;">
<circle cx="44.5738" cy="27.5437" r="1.1930" /> 
</g>
<g style="fill:#000000; fill-opacity:1.0000; stroke:none;">
<circle cx="52.1938" cy="27.5437" r="1.1930" /> 
</g>
<g style="fill:#000000; fill-opacity:1.0000; stroke:none;">
<circle cx="43.3038" cy="49.0837" r="0.9009" /> 
</g>
<g style="fill:#000000; fill-opacity:1.0000; stroke:none;">
<circle cx="48.3838" cy="49.0837" r="2.0439" /> 
</g>
<g style="fill:#000000; fill-opacity:1.0000; stroke:none;">
<circle cx="53.4638" cy="49.0837" r="0.9009" /> 
</g>
<g style="fill:#000000; fill-opacity:1.0000; stroke:none;">
<circle cx="45.8438" cy="44.0037" r="1.1930" /> 
</g>
<g style="fill:#000000; fill-opacity:1.0000; stroke:none;">
<circle cx="50.9238" cy="44.0037" r="1.1930" /> 
</g>
<g style="fill:#000000; fill-opacity:1.0000; stroke:none;">
<circle cx="44.5738" cy="46.5437" r="1.1930" /> 
</g>
<g style="fill:#000000; fill-opacity:1.0000; stroke:none;">
<circle cx="52.1938" cy="46.5437" r="1.1930" /> 
</g>
<g style="fill:#000000; fill-opacity:1.0000; stroke:none;">
<circle cx="81.3038" cy="33.8937" r="0.9009" /> 
</g>
<g style="fill:#000000; fill-opacity:1.0000; stroke:none;">
<circle cx="86.3838" cy="33.8937" r="2.0439" /> 
</g>
<g style="fill:#000000; fill-opacity:1.0000; stroke:none;">
<circle cx="91.4638" cy="33.8937" r="0.9009" /> 
</g>
<g style="fill:#000000; fill-opacity:1.0000; stroke:none;">
<circle cx="83.8438" cy="28.8137" r="1.1930" /> 
</g>
<g style="fill:#000000; fill-opacity:1.0000; stroke:none;">
<circle cx="88.9238" cy="28.8137" r="1.1930" /> 
</g>
<g style="fill:#000000; fill-opacity:1.0000; stroke:none;">
<circle cx="82.5738" cy="31.3537" r="1.1930" /> 
</g>
<g style="fill:#000000; fill-opacity:1.0000; stroke:none;">
<circle cx="90.1938" cy="31.3537" r="1.1930" /> 
</g>
<g style="fill:none; 
stroke:#000000; stroke-width:0.0500; stroke-opacity:1; 
stroke-linecap:round; stroke-linejoin:round;">
<path d="M78.0250 2.0250
L78.0250 4.0250
" />
<path d="M19.0250 4.0250
L19.0250 2.0250
" />
<path d="M59.0250 0.0250
L59.0250 2.0250
" />
<path d="M128.0250 4.0250
L128.0250 63.0250
" />
<path d="M114.0250 83.0250
L76.0250 83.0250
" />
<path d="M19.0250 2.0250
L38.0250 2.0250
" />
<path d="M76.0250 83.0250
L76.0250 81.0250
" />
<path d="M38.0250 81.0250
L0.0250 63.0250
" />
<path d="M0.0250 63.0250
L0.0250 4.0250
" />
<path d="M78.0250 4.0250
L128.0250 4.0250
" />
<path d="M38.0250 2.0250
L38.0250 0.0250
" />
<path d="M38.0250 0.0250
L59.0250 0.0250
" />
<path d="M128.0250 63.0250
L115.0250 83.0250
" />
<path d="M114.0250 83.0250
L115.0250 83.0250
" />
<path d="M0.0250 4.0250
L19.0250 4.0250
" />
<path d="M59.0250 2.0250
L78.0250 2.0250
" />
<path d="M76.0250 81.0250
L38.0250 81.0250
" />
</g> 
</svg>
