0
SECTION
2
HEADER
9
$INSUNITS
70
4
0
ENDSEC
0
SECTION
2
TABLES
0
TABLE
2
LTYPE
0
LTYPE
72
65
70
64
2
CONTINUOUS
3
______
73
0
40
0
0
ENDTAB
0
TABLE
2
LAYER
0
ENDTAB
0
ENDSEC
0
SECTION
2
ENTITIES
0
LINE
8
0
10
-9.25
20
-11.155
11
9.25
21
-11.155
0
LINE
8
0
10
9.25
20
-11.155
11
9.25
21
7.345
0
LINE
8
0
10
9.25
20
7.345
11
-9.25
21
7.345
0
LINE
8
0
10
-9.25
20
7.345
11
-9.25
21
-11.155
0
LINE
8
0
10
-9.25
20
7.845
11
9.25
21
7.845
0
LINE
8
0
10
9.25
20
7.845
11
9.25
21
26.345
0
LINE
8
0
10
9.25
20
26.345
11
-9.25
21
26.345
0
LINE
8
0
10
-9.25
20
26.345
11
-9.25
21
7.845
0
LINE
8
0
10
-9.25
20
26.845
11
9.25
21
26.845
0
LINE
8
0
10
9.25
20
26.845
11
9.25
21
45.345
0
LINE
8
0
10
9.25
20
45.345
11
-9.25
21
45.345
0
LINE
8
0
10
-9.25
20
45.345
11
-9.25
21
26.845
0
LINE
8
0
10
9.75
20
-9.25
11
28.25
21
-9.25
0
LINE
8
0
10
28.25
20
-9.25
11
28.25
21
9.25
0
LINE
8
0
10
28.25
20
9.25
11
9.75
21
9.25
0
LINE
8
0
10
9.75
20
9.25
11
9.75
21
-9.25
0
LINE
8
0
10
9.75
20
9.75
11
28.25
21
9.75
0
LINE
8
0
10
28.25
20
9.75
11
28.25
21
28.25
0
LINE
8
0
10
28.25
20
28.25
11
9.75
21
28.25
0
LINE
8
0
10
9.75
20
28.25
11
9.75
21
9.75
0
LINE
8
0
10
9.75
20
28.75
11
28.25
21
28.75
0
LINE
8
0
10
28.25
20
28.75
11
28.25
21
47.25
0
LINE
8
0
10
28.25
20
47.25
11
9.75
21
47.25
0
LINE
8
0
10
9.75
20
47.25
11
9.75
21
28.75
0
LINE
8
0
10
28.75
20
-7.345
11
47.25
21
-7.345
0
LINE
8
0
10
47.25
20
-7.345
11
47.25
21
11.155
0
LINE
8
0
10
47.25
20
11.155
11
28.75
21
11.155
0
LINE
8
0
10
28.75
20
11.155
11
28.75
21
-7.345
0
LINE
8
0
10
28.75
20
11.655
11
47.25
21
11.655
0
LINE
8
0
10
47.25
20
11.655
11
47.25
21
30.155
0
LINE
8
0
10
47.25
20
30.155
11
28.75
21
30.155
0
LINE
8
0
10
28.75
20
30.155
11
28.75
21
11.655
0
LINE
8
0
10
28.75
20
30.655
11
47.25
21
30.655
0
LINE
8
0
10
47.25
20
30.655
11
47.25
21
49.155
0
LINE
8
0
10
47.25
20
49.155
11
28.75
21
49.155
0
LINE
8
0
10
28.75
20
49.155
11
28.75
21
30.655
0
LINE
8
0
10
47.75
20
-9.25
11
66.25
21
-9.25
0
LINE
8
0
10
66.25
20
-9.25
11
66.25
21
9.25
0
LINE
8
0
10
66.25
20
9.25
11
47.75
21
9.25
0
LINE
8
0
10
47.75
20
9.25
11
47.75
21
-9.25
0
LINE
8
0
10
47.75
20
9.75
11
66.25
21
9.75
0
LINE
8
0
10
66.25
20
9.75
11
66.25
21
28.25
0
LINE
8
0
10
66.25
20
28.25
11
47.75
21
28.25
0
LINE
8
0
10
47.75
20
28.25
11
47.75
21
9.75
0
LINE
8
0
10
47.75
20
28.75
11
66.25
21
28.75
0
LINE
8
0
10
66.25
20
28.75
11
66.25
21
47.25
0
LINE
8
0
10
66.25
20
47.25
11
47.75
21
47.25
0
LINE
8
0
10
47.75
20
47.25
11
47.75
21
28.75
0
LINE
8
0
10
66.75
20
-11.155
11
85.25
21
-11.155
0
LINE
8
0
10
85.25
20
-11.155
11
85.25
21
7.345
0
LINE
8
0
10
85.25
20
7.345
11
66.75
21
7.345
0
LINE
8
0
10
66.75
20
7.345
11
66.75
21
-11.155
0
LINE
8
0
10
66.75
20
7.845
11
85.25
21
7.845
0
LINE
8
0
10
85.25
20
7.845
11
85.25
21
26.345
0
LINE
8
0
10
85.25
20
26.345
11
66.75
21
26.345
0
LINE
8
0
10
66.75
20
26.345
11
66.75
21
7.845
0
LINE
8
0
10
66.75
20
26.845
11
85.25
21
26.845
0
LINE
8
0
10
85.25
20
26.845
11
85.25
21
45.345
0
LINE
8
0
10
85.25
20
45.345
11
66.75
21
45.345
0
LINE
8
0
10
66.75
20
45.345
11
66.75
21
26.845
0
LINE
8
0
10
28.65
20
-28.3
11
47.15
21
-28.3
0
LINE
8
0
10
47.15
20
-28.3
11
47.15
21
-9.8
0
LINE
8
0
10
47.15
20
-9.8
11
28.65
21
-9.8
0
LINE
8
0
10
28.65
20
-9.8
11
28.65
21
-28.3
0
LINE
8
0
10
47.65
20
-28.3
11
66.15
21
-28.3
0
LINE
8
0
10
66.15
20
-28.3
11
66.15
21
-9.8
0
LINE
8
0
10
66.15
20
-9.8
11
47.65
21
-9.8
0
LINE
8
0
10
47.65
20
-9.8
11
47.65
21
-28.3
0
LINE
8
0
10
66.65
20
-30.205
11
85.15
21
-30.205
0
LINE
8
0
10
85.15
20
-30.205
11
85.15
21
-11.705
0
LINE
8
0
10
85.15
20
-11.705
11
66.65
21
-11.705
0
LINE
8
0
10
66.65
20
-11.705
11
66.65
21
-30.205
0
LINE
8
0
10
104.4051459
20
-26.799814
11
114.480968
21
-11.2844085
0
LINE
8
0
10
114.480968
20
-11.2844085
11
98.9655625
21
-1.2085864
0
LINE
8
0
10
98.9655625
20
-1.2085864
11
88.8897404
21
-16.7239919
0
LINE
8
0
10
88.8897404
20
-16.7239919
11
104.4051459
21
-26.799814
0
ENDSEC
0
EOF