0
SECTION
2
HEADER
9
$INSUNITS
70
4
0
ENDSEC
0
SECTION
2
TABLES
0
TABLE
2
LTYPE
0
LTYPE
72
65
70
64
2
CONTINUOUS
3
______
73
0
40
0
0
ENDTAB
0
TABLE
2
LAYER
0
ENDTAB
0
ENDSEC
0
SECTION
2
ENTITIES
0
LINE
8
0
10
-9.5
20
-11.405
11
9.5
21
-11.405
0
LINE
8
0
10
9.5
20
-11.405
11
9.5
21
-9.5
0
LINE
8
0
10
-9.5
20
-11.405
11
-9.5
21
45.595
0
LINE
8
0
10
9.5
20
45.595
11
-9.5
21
45.595
0
LINE
8
0
10
9.5
20
-9.5
11
28.5
21
-9.5
0
LINE
8
0
10
28.5
20
-9.5
11
28.5
21
-7.595
0
LINE
8
0
10
28.5
20
47.5
11
9.5
21
47.5
0
LINE
8
0
10
9.5
20
47.5
11
9.5
21
45.595
0
LINE
8
0
10
28.5
20
-7.595
11
47.5
21
-7.595
0
LINE
8
0
10
47.5
20
47.5
11
47.5
21
49.405
0
LINE
8
0
10
47.5
20
49.405
11
28.5
21
49.405
0
LINE
8
0
10
28.5
20
49.405
11
28.5
21
47.5
0
LINE
8
0
10
47.5
20
-9.5
11
66.5
21
-9.5
0
LINE
8
0
10
47.5
20
-7.595
11
47.5
21
-9.5
0
LINE
8
0
10
66.5
20
45.595
11
66.5
21
47.5
0
LINE
8
0
10
66.5
20
47.5
11
47.5
21
47.5
0
LINE
8
0
10
66.5
20
-11.405
11
85.5
21
-11.405
0
LINE
8
0
10
85.5
20
-11.405
11
85.5
21
45.595
0
LINE
8
0
10
66.5
20
-9.5
11
66.5
21
-11.405
0
LINE
8
0
10
85.5
20
45.595
11
66.5
21
45.595
0
LINE
8
0
10
28.4
20
-28.55
11
66.4
21
-28.55
0
LINE
8
0
10
28.4
20
-9.55
11
66.4
21
-9.55
0
LINE
8
0
10
28.4
20
-9.55
11
28.4
21
-28.55
0
LINE
8
0
10
66.4
20
-11.455
11
66.4
21
-9.55
0
LINE
8
0
10
66.4
20
-30.455
11
85.4
21
-30.455
0
LINE
8
0
10
85.4
20
-30.455
11
85.4
21
-11.455
0
LINE
8
0
10
85.4
20
-11.455
11
66.4
21
-11.455
0
LINE
8
0
10
66.4
20
-28.55
11
66.4
21
-30.455
0
LINE
8
0
10
104.4786538
20
-27.1456414
11
114.8267954
21
-11.2109006
0
LINE
8
0
10
114.8267954
20
-11.2109006
11
98.8920546
21
-0.862759
0
LINE
8
0
10
98.8920546
20
-0.862759
11
88.543913
21
-16.7974998
0
LINE
8
0
10
88.543913
20
-16.7974998
11
104.4786538
21
-27.1456414
0
ENDSEC
0
EOF